<svg width="149" height="215" viewBox="0 0 149 215" fill="none" xmlns="http://www.w3.org/2000/svg">
<path fill-rule="evenodd" clip-rule="evenodd" d="M70.8981 195.269C67.1797 195.179 63.3728 194.819 59.6268 193.769C58.2641 193.387 56.8719 193.012 55.5623 192.379C53.2558 191.281 51.1124 189.712 49.4253 187.761C48.5739 186.772 47.8443 185.781 47.1915 184.607C46.5072 183.434 46.108 182.071 45.9488 180.704C45.7875 179.487 45.9173 178.234 46.2162 177.053C46.5406 175.867 47.1187 174.787 47.7932 173.8C49.6042 171.315 52.6737 169.826 55.5387 170.1C56.4374 170.157 56.3096 170.621 55.7334 171.325C55.1179 171.948 54.2881 173.218 53.3659 173.914C52.4791 174.516 51.9658 175.423 51.3936 176.109C50.8647 176.858 50.5245 177.68 50.3731 178.516C50.147 179.338 50.1057 180.22 50.2807 181.139C50.4616 182.053 50.9158 182.964 51.5332 184.039C52.2844 185.233 53.3187 186.271 54.5123 187.118C55.7275 187.944 57.0843 188.585 58.4824 189.146C61.5735 190.371 65.0501 190.906 68.562 191.128C70.7309 191.252 72.9333 191.283 75.1002 191.159C78.3899 190.967 81.7072 190.558 84.8239 189.592C87.2661 188.91 89.5275 187.868 91.6846 186.68C92.1644 186.422 92.6107 186.135 93.0787 185.858C94.817 184.828 95.4698 184.641 96.2603 184.924C96.4373 184.987 96.6398 185.022 96.7814 185.103C97.2278 185.323 96.8974 186.324 95.696 187.465C93.9046 189.128 91.8124 190.603 89.5353 191.787C88.3948 192.369 87.2229 192.935 86.0037 193.368C84.7728 193.755 83.5182 194.081 82.2538 194.337C78.504 195.128 74.6676 195.379 70.904 195.371L70.8981 195.269Z" fill="#231F20"/>
<path fill-rule="evenodd" clip-rule="evenodd" d="M81.0409 196.692C79.0253 197.227 76.9744 197.609 74.9176 197.923C74.1605 198.026 73.4192 198.124 72.6602 198.226C69.9859 198.419 67.2959 198.36 64.6453 197.988C63.4655 197.833 62.2896 197.624 61.1294 197.379C59.6586 197.007 58.113 196.629 56.8584 195.662C56.4593 195.379 56.7759 195.015 57.3422 194.791C57.9223 194.557 58.6695 194.5 59.4167 194.738C62.028 195.717 64.8911 196.158 67.8269 196.415C69.5927 196.549 71.4391 196.354 73.2344 196.095C75.2204 195.868 77.1907 195.459 79.1433 194.972C80.3467 194.685 81.5285 194.289 82.7123 193.924L85.3787 192.978C86.2498 192.624 87.115 192.248 87.9684 191.861C89.2741 191.216 90.4873 190.453 91.7517 189.775L92.5677 189.297C93.6099 188.733 94.0228 188.689 94.4279 188.86C94.5203 188.902 94.6285 188.929 94.6993 188.98C94.9333 189.143 94.6403 189.596 93.9619 190.19C91.9621 191.971 89.5494 193.438 86.9754 194.584C85.0857 195.489 83.0879 196.185 81.0586 196.744L81.0409 196.692Z" fill="#231F20"/>
<path fill-rule="evenodd" clip-rule="evenodd" d="M84.9756 209.375C85.6146 208.83 86.1613 208.055 86.6627 207.243C86.8554 206.954 86.9262 206.586 87.1071 206.279C87.7246 205.165 88.2692 203.959 88.81 202.712C89.0695 202.17 89.2583 201.59 89.4707 201.012C89.7578 200.278 89.9426 199.444 90.7685 198.845C91.0045 198.66 91.2758 199.029 91.5236 199.478C91.7595 199.952 92.0466 200.345 91.9719 200.726C91.614 201.957 91.4587 203.554 90.5719 204.936C90.0921 205.778 89.8954 206.779 89.4668 207.699C89.0125 208.714 88.4029 209.691 87.7206 210.619C87.229 211.154 86.7984 211.722 86.2006 212.167L85.5576 212.69L84.8183 213.089C84.3463 213.392 83.8154 213.545 83.3002 213.74C82.905 213.923 82.5097 214.047 82.0988 214.161C81.6957 214.267 81.2709 214.46 80.8541 214.493C80.6712 214.517 80.4903 214.52 80.3035 214.505C79.6133 214.418 79.4107 214.21 79.3596 213.516C79.3458 213.368 79.3242 213.225 79.3242 213.091C79.3262 212.67 79.6388 212.141 80.04 211.95C81.269 211.341 82.1833 211.14 83.078 210.704C83.6758 210.31 84.3621 209.986 84.9185 209.329L84.9756 209.375Z" fill="#231F20"/>
<path fill-rule="evenodd" clip-rule="evenodd" d="M54.0003 174.661C53.5067 174.865 52.9207 175.089 52.4154 175.481C52.2345 175.624 52.1263 175.829 51.9454 175.976C51.2847 176.493 50.6339 177.099 50.1541 177.815C49.9771 178.129 49.867 178.501 49.8886 178.825C49.8768 179.287 50.042 179.535 49.6998 179.891C49.5779 180.011 48.8189 180.367 47.9714 180.457C47.1534 180.595 46.0837 180.204 45.9991 179.661C45.7769 178.69 45.9677 177.84 46.2646 177.132C46.5517 176.407 46.9961 175.811 47.5309 175.308C48.1838 174.731 48.4728 173.939 49.0431 173.327C49.6762 172.671 50.3763 172.083 51.1746 171.601C51.6426 171.288 52.1971 171.076 52.7202 170.842C53.1252 170.673 53.5834 170.584 54.0022 170.458C54.4643 170.415 54.9009 170.311 55.361 170.28C55.7209 170.274 56.0886 170.187 56.4641 170.171C56.8319 170.189 57.2212 170.209 57.6066 170.272C57.7836 170.283 57.9134 170.38 58.0549 170.468C58.5465 170.858 58.5583 171.198 58.2063 171.9C58.1257 172.061 58.051 172.22 57.9606 172.37C57.6577 172.861 57.2035 173.211 56.8515 173.4C55.7582 174.018 55.7012 174.199 55.2391 174.307C54.9402 174.374 54.5056 174.507 54.0593 174.745L54.0003 174.661Z" fill="#231F20"/>
<path fill-rule="evenodd" clip-rule="evenodd" d="M20.2675 141.614C15.5561 136.152 11.3107 130.235 7.91676 123.825C7.26196 122.674 6.69368 121.479 6.13523 120.277C5.54335 119.092 5.01047 117.882 4.55623 116.636C1.08756 107.964 -0.330196 98.4958 0.361966 89.2401C0.47405 87.1833 0.816198 85.1402 1.06396 83.0972C1.50443 81.0875 1.75022 79.0346 2.3303 77.0761C3.48849 71.9852 5.46666 66.9238 8.53223 62.6489C9.49576 61.3216 9.58228 61.6637 9.11428 62.9792C8.62662 64.2947 7.80861 66.676 6.72317 69.3778C6.24338 70.5792 5.81864 71.8043 5.43913 73.0392C5.05569 74.2682 4.79613 75.562 4.43039 76.8087C4.07251 78.0632 3.75002 79.3237 3.53569 80.6097C3.31152 81.8918 2.97331 83.1561 2.83763 84.452C2.01568 89.5999 1.95473 94.8541 2.45615 100.075C3.05196 106.338 5.0026 112.687 7.72406 118.523C10.6834 124.967 14.4746 131.053 18.9324 136.636C21.6401 140.098 24.568 143.4 27.6473 146.55C32.2899 151.348 37.2707 155.871 42.3479 160.155C46.2983 163.488 50.3176 166.574 54.2916 169.814C55.1627 170.534 56.0397 171.206 56.8892 171.971C60.0688 174.763 60.9281 175.849 61.2428 176.818C61.3175 177.037 61.4433 177.296 61.461 177.446C61.5121 177.957 60.0924 176.974 57.719 175.043C50.6303 169.366 42.9555 163.486 35.6603 157.039C30.2488 152.245 25.0006 147.173 20.2321 141.656L20.2675 141.614Z" fill="#231F20"/>
<path fill-rule="evenodd" clip-rule="evenodd" d="M10.8947 58.9407C13.9898 54.8054 17.6354 51.1676 21.6134 47.9762C25.6838 44.9126 30.0413 42.2737 34.6445 40.1599C43.8825 36.0541 53.9661 33.8164 64.1204 34.1349C67.8251 34.249 71.5218 34.6757 75.0967 35.3855C76.8979 35.7414 78.6932 36.1701 80.4727 36.6951C82.2523 37.2103 83.9925 37.9634 85.7426 38.6064C91.8069 41.2571 97.2026 45.3393 101.505 50.269C105.827 55.1967 109.085 60.9346 111.319 66.9733C115.858 79.0625 116.729 92.1861 115.038 104.724C114.361 110.31 113.173 115.822 111.707 121.227C110.289 126.655 108.427 131.928 106.448 137.106C103.898 143.76 100.838 150.222 97.4268 156.477C94.0427 162.747 90.1964 168.755 86.0218 174.487C83.4046 178.056 83.2748 177.226 84.7535 173.741C85.5106 172.013 86.5803 169.567 87.9469 166.682C89.2644 163.768 90.8965 160.427 92.7606 156.866C96.0838 150.556 98.9291 144.029 101.653 137.485C104.319 130.914 106.596 124.193 108.315 117.342C111.783 103.676 112.855 89.3132 109.551 75.6096C108.545 71.5372 107.131 67.5239 105.267 63.7091C103.395 59.8963 100.97 56.3529 98.1406 53.1969C95.3011 50.0527 92.0232 47.2762 88.3205 45.2233C84.6238 43.1665 80.6969 41.5914 76.5125 40.622C58.2056 36.0403 37.7986 40.8048 23.1354 52.843C18.654 56.5515 14.7586 60.9877 11.8995 66.0275C11.2585 67.3233 10.5703 68.6015 9.95872 69.9091L8.45445 73.9755C7.70329 76.8071 6.92068 79.6426 6.5392 82.5529L6.26588 84.1948L6.12823 85.8544L5.86474 89.1756L5.88637 92.5086L5.90406 94.1741L6.05941 95.8357C6.32487 100.284 7.35131 104.655 8.61372 108.928C9.90366 113.207 11.7658 117.295 13.7912 121.281C15.9109 125.223 18.3138 129.008 20.9271 132.636C29.1426 143.9 39.2576 153.258 49.6283 162.419C51.9211 164.438 54.206 166.367 56.4889 168.467C64.9699 176.166 67.2745 179.546 67.7169 182.283C67.8133 182.909 67.9175 183.693 67.8663 184.049C67.8152 184.358 67.6225 184.328 67.2922 184.051C66.9461 183.772 66.5862 183.231 65.8508 182.535C64.4999 181.123 62.2543 178.925 59.1455 176.197C49.8288 168.2 39.8043 160.067 30.6351 150.658C21.4836 141.282 12.9181 130.619 7.28839 118.089C5.19027 113.456 3.61914 108.554 2.52977 103.534C1.41877 98.506 1.13562 93.305 1.29489 88.155C1.48563 82.9855 2.51208 77.9083 3.85117 72.955C5.4105 67.9211 7.78391 63.1703 10.7826 58.8915L10.8947 58.9407Z" fill="#231F20"/>
<path fill-rule="evenodd" clip-rule="evenodd" d="M61.7312 192.109C66.7435 193.028 72.0743 192.876 77.3009 192.025C79.1946 191.692 81.1137 191.165 82.9503 190.762C86.0395 189.962 89.1876 188.491 92.0605 186.786C94.9275 185.054 97.6017 182.932 99.4659 180.354C101.037 178.03 101.405 175.244 100.011 172.961C99.1434 171.512 97.6883 170.316 96.1191 169.335C94.5165 168.391 92.8077 167.532 90.9908 166.885C89.8621 166.505 90.0312 166.136 91.1933 165.805C92.3142 165.55 94.6207 165.19 96.9705 166.238C99.0215 167.154 101.041 168.397 102.677 170.395C103.532 171.38 104.042 172.662 104.525 173.918C104.665 174.591 104.777 175.281 104.832 175.971C104.85 176.656 104.732 177.332 104.661 178.01C104.142 180.669 102.76 182.779 101.261 184.527C99.751 186.299 97.9734 187.634 96.1447 188.839C93.9502 190.263 91.6751 191.547 89.2938 192.691C88.1022 193.262 86.8791 193.787 85.6108 194.241C84.9836 194.479 84.3032 194.652 83.6543 194.854L81.7607 195.267C76.2391 196.496 70.515 197.139 64.7909 196.658C61.2731 196.349 57.7729 195.611 54.4399 194.321C51.923 193.317 49.5496 191.893 47.4613 190.088C45.4025 188.251 43.7193 185.882 42.8875 183.133C42.2858 181.003 42.1953 178.608 42.9209 176.433C43.6682 174.266 45.0662 172.4 46.7337 170.969C47.4691 170.334 48.2144 169.752 49.0501 169.264C50.5917 168.354 51.7499 168.084 52.564 167.982C53.3938 167.917 53.9287 168.106 54.4085 168.501C54.6267 168.676 54.8863 168.831 55.0279 169.016C55.5037 169.655 54.3967 170.576 52.5738 171.726C49.8583 173.397 47.5753 175.712 46.952 178.182C46.5744 179.412 46.6433 180.628 46.9323 181.912C47.2823 183.196 48.0355 184.448 48.9557 185.616C51.8836 189.075 56.7406 191.152 61.7411 192.005L61.7312 192.109Z" fill="#6D1DF7"/>
<path fill-rule="evenodd" clip-rule="evenodd" d="M56.4795 182.804C59.2599 183.968 62.353 184.729 65.5169 185.101C66.6731 185.242 67.8431 185.223 69.0092 185.268C73.1268 185.449 77.3368 185.144 81.3698 184.115C83.1533 183.655 84.9073 183.024 86.5138 182.198C88.5805 181.117 90.3797 179.721 91.9764 178.169C92.4837 177.687 92.8612 177.963 92.932 178.816C93.0461 179.683 92.6882 181.191 91.5123 182.261C87.3397 185.893 82.176 187.586 77.0359 188.09C73.9566 188.382 70.7809 188.854 67.6131 188.764C64.1424 188.66 60.6521 188.207 57.2916 187.124C55.2289 186.459 53.2114 185.571 51.3492 184.371C49.9472 183.453 48.6376 182.338 47.56 180.997C47.0566 180.299 46.5513 179.603 46.1757 178.822C45.745 178.122 45.4304 177.007 45.4501 176.059C45.4717 174.52 46.0597 173.153 46.8128 172.012C47.5777 170.868 48.5373 169.901 49.6444 169.114C50.1242 168.756 50.6236 168.44 51.1742 168.17C53.2743 167.236 54.2339 167.598 54.7058 168.428C54.8179 168.62 54.9496 168.805 55.0047 168.994C55.1522 169.633 54.4718 170.217 53.4611 170.774C51.9194 171.586 50.4683 172.915 49.6798 174.291C49.2845 174.972 49.1115 175.636 49.1508 176.075C49.1567 176.303 49.2255 176.478 49.314 176.663C49.4202 176.891 49.7151 177.365 49.8941 177.711C51.2764 179.87 53.7029 181.593 56.5109 182.713L56.4795 182.804Z" fill="#6D1DF7"/>
<path fill-rule="evenodd" clip-rule="evenodd" d="M67.7973 200.803C70.391 201.412 73.2127 201.505 76.0266 201.251C77.059 201.18 78.0618 200.893 79.0882 200.724C82.7201 200.132 86.3088 199.001 89.742 197.497C91.2483 196.797 92.6896 195.938 93.9953 194.96C95.7198 193.728 97.0923 192.2 98.5101 190.78C98.9879 190.351 99.4146 190.615 99.6171 191.431C99.7115 191.834 99.7922 192.424 99.6722 193.037C99.5306 193.606 99.2573 194.233 98.8208 194.795C95.5468 198.445 91.4724 201.06 86.9596 202.439C84.2559 203.213 81.5639 204.34 78.7127 204.834C75.5999 205.398 72.3947 205.597 69.1954 205.276C67.233 205.068 65.2568 204.602 63.4064 203.943C60.6004 202.912 57.9498 201.332 55.7514 199.271C54.0347 197.694 52.4557 195.92 51.3211 193.838C51.0891 193.374 50.861 192.917 50.6663 192.432C50.0981 190.577 50.4225 189.868 51.2012 189.293C51.3801 189.162 51.5414 189.008 51.7124 188.922C52.2611 188.633 53.0948 189.185 53.8184 190.194C54.8822 191.698 55.8084 193.116 56.8643 194.416C57.9242 195.712 59.1728 196.829 60.5886 197.774C62.6691 199.17 65.2509 200.191 67.8111 200.696L67.7973 200.803Z" fill="#6D1DF7"/>
<path fill-rule="evenodd" clip-rule="evenodd" d="M56.9679 80.1067C56.8971 79.1216 56.8912 78.1108 56.9463 77.0765L57.0623 75.4818L57.253 74.3315C57.3631 73.9166 57.5126 73.5154 57.6404 73.1064C58.187 71.4625 59.4652 70.3928 60.9793 70.0802C62.5091 69.7774 64.1038 70.3024 65.3309 71.4193C65.6278 71.7083 65.9385 72.0053 66.1843 72.3336C66.4576 72.664 66.7171 72.9845 66.8292 73.1988C67.1419 73.6865 67.3896 74.1663 67.6256 74.6461C68.0936 75.6018 68.4534 76.5456 68.7759 77.4855C69.3835 79.3811 69.8928 81.3475 70.1229 83.2981C71.0923 91.1026 69.9184 98.9721 66.5028 106.041C65.8755 107.329 65.1421 108.576 64.3319 109.783C63.921 110.391 63.3704 111.004 62.8867 111.606C62.3105 112.159 61.7245 112.723 61.0658 113.199C58.3738 115.149 54.7675 115.663 51.8121 114.963C49.1555 114.418 46.7998 113.291 44.6623 111.946C42.521 110.585 40.5959 109.003 38.8537 107.162C37.0839 105.262 35.7095 103.178 34.5532 100.964C33.4108 98.7479 32.4708 96.4059 31.9989 93.8713C31.5349 91.3701 31.4503 88.5601 32.6753 85.9586C33.2554 84.6942 34.0538 83.5616 35.2139 82.606C36.3505 81.6483 37.9393 81.0938 39.4475 81.141C42.5072 81.2433 44.8118 83.0858 46.5501 84.767C48.3453 86.5151 49.83 88.4972 51.1278 90.556C55.7153 97.8984 58.2794 106.134 60.7138 114.04C62.3046 119.147 63.7007 124.391 64.5895 129.748C65.0064 132.43 65.3269 135.136 65.4095 137.853C65.4921 140.573 65.3525 143.288 65.0969 145.978C64.6879 149.333 64.1923 148.796 63.6712 145.974C63.3841 144.468 63.0066 142.513 62.572 140.244C62.0529 137.902 61.5318 135.204 61.0343 132.267C60.1455 127.056 58.6609 121.955 57.0701 116.819C55.5206 111.624 53.9731 106.462 52.0932 101.546C50.2095 96.6439 47.9186 91.8361 44.6171 88.1079C43.803 87.1817 42.8828 86.3008 42.0195 85.7069C41.1229 85.1151 40.1652 84.7493 39.3531 84.7513C38.5391 84.7296 37.8292 85.0207 37.141 85.6853C36.4527 86.3539 35.8687 87.3547 35.5738 88.3242C34.8089 90.7802 35.3988 93.9323 36.5589 96.7717C37.7132 99.6347 39.4397 102.429 41.5417 104.627C43.7401 106.853 46.3849 108.769 49.187 110.039C51.9753 111.246 55.0546 111.82 57.4634 110.694C58.7946 110.115 59.9391 109.097 60.8849 107.819C61.8464 106.429 62.6959 104.914 63.3999 103.326C64.7685 100.128 65.6809 96.6793 66.0682 93.1752C66.491 89.6711 66.4025 86.1061 65.7831 82.6787C65.4331 80.9817 64.971 79.3084 64.3162 77.7077C63.9918 76.9192 63.624 76.1641 63.2091 75.5152C62.865 74.9745 62.69 74.768 62.2869 74.5379C61.811 74.2686 61.2133 74.5537 61.0245 75.0472C60.9203 75.2793 60.8318 75.5428 60.7944 75.7807C60.7079 76.174 60.6116 76.7462 60.5939 77.2476C60.4916 79.3438 60.7295 81.5481 61.1386 83.6953C61.5535 85.8446 62.1473 87.9761 62.9771 89.974C63.7873 91.9207 64.8904 93.9618 66.3003 94.9371C67.4663 95.6509 68.9057 96.0009 70.2881 95.7393C71.6881 95.5034 73.0626 94.7522 74.268 93.7631C76.665 91.7633 78.5862 88.9062 79.5064 85.937C79.9606 84.531 79.9744 82.9147 79.7719 81.3829C79.5516 79.8747 79.0011 78.3743 78.0985 77.6055C77.1645 76.8307 76.2324 76.8406 75.2473 77.7707C74.2562 78.7204 73.448 80.1559 72.8385 81.6228C72.3351 82.7692 72.0421 83.9372 71.753 85.2271C71.4286 86.4758 71.2123 87.75 71.0038 89.0222C70.6283 91.5706 70.4021 94.1368 70.3471 96.7048C70.231 101.841 70.6204 106.973 71.5112 112.033C71.9044 114.263 72.3941 116.422 72.9505 118.628C73.9652 122.726 74.8402 125.359 75.3121 127.264C75.8077 129.162 75.8863 130.345 75.7428 131.407C75.6759 131.891 75.6681 132.503 75.5461 132.827C75.2315 133.905 72.7972 131.057 70.6145 124.918C67.4545 115.834 65.8736 105.89 66.3062 95.761C66.4419 93.2322 66.6798 90.6897 67.1045 88.157C67.3424 86.8966 67.484 85.6145 67.7888 84.3541L68.2057 82.4329C68.3905 81.7073 68.6068 81.0545 68.8467 80.3879C69.3403 79.0685 69.9243 77.7707 70.7816 76.4591C71.639 75.2085 72.7834 73.6688 75.2748 72.841C76.4625 72.5716 77.7839 72.546 78.9027 73.0907C80.0845 73.4781 80.9261 74.2017 81.6124 74.9627C82.9731 76.524 83.4824 78.162 83.8344 79.6879C84.269 81.9905 84.324 84.1004 83.74 86.5367C83.1265 88.7548 82.1531 90.6425 80.9733 92.4024C79.7817 94.1486 78.364 95.7511 76.608 97.1079C74.8618 98.4392 72.6831 99.5797 70.1072 99.7842C69.4799 99.8766 68.8153 99.7645 68.1762 99.735C67.5371 99.6544 66.9177 99.4519 66.2963 99.2906C65.7143 99.0546 65.1539 98.7754 64.5935 98.5001C63.9662 98.1324 63.4235 97.6861 62.9692 97.2417C61.2388 95.4346 60.35 93.5527 59.5576 91.6808C58.071 87.9171 57.1842 84.1279 56.8774 80.1342L56.9679 80.1067Z" fill="#231F20"/>
<path fill-rule="evenodd" clip-rule="evenodd" d="M134.864 84.8568C134.818 85.2009 134.364 85.0495 133.658 84.6326C133.432 84.5009 132.899 83.9522 132.882 83.8166C132.846 83.5531 132.817 83.2915 132.832 83.0674C132.832 82.9317 133.725 81.5061 134.042 81.0047C134.337 80.515 134.724 80.1198 135.145 79.7658C135.981 79.0226 136.875 78.3324 137.821 77.7031C138.032 77.5655 138.268 77.4672 138.519 77.4023C139.396 77.1958 140.151 76.8084 140.899 76.3562C141.024 76.2834 141.17 76.246 141.241 76.0573C141.333 75.7151 143.581 74.8244 143.923 74.8656C144.743 74.8991 145.525 74.8578 146.322 74.9581C146.434 74.9718 146.538 74.8912 146.666 75.0485C146.959 75.4103 147.171 75.312 147.405 75.312C147.726 75.3041 148.052 75.3415 148.379 75.4477C148.54 75.4988 148.711 75.7092 148.872 75.8744C149.018 76.0219 148.98 76.6118 148.941 76.6786C148.823 76.8733 148.949 77.1388 148.976 77.3806C148.986 77.4613 148.998 77.5674 148.996 77.6343C148.963 77.7641 147.555 78.9852 147.423 79.0324C147.401 79.0206 146.874 79.2487 146.332 79.4611C145.785 79.6774 145.232 79.9369 145.128 80.0175C145.018 80.0923 144.863 80.0392 144.721 80.0234C144.642 80.0018 143.128 80.9339 143.071 80.9653C142.719 81.0754 142.458 81.3625 141.972 81.2131C141.876 81.1875 141.819 81.2406 141.756 81.2799C141.215 81.6182 140.596 81.8207 139.996 82.0881C139.695 82.2317 139.438 82.444 139.16 82.6269C139.109 82.6603 139.032 82.6544 138.97 82.6702C138.891 82.6898 138.802 82.6957 138.741 82.7429C138.1 83.2031 137.343 83.5393 136.805 84.1469C136.675 84.2728 135.751 84.5658 135.619 84.7447C135.542 84.8371 134.881 84.7152 134.864 84.8568Z" fill="#FFAF13"/>
<path fill-rule="evenodd" clip-rule="evenodd" d="M115.918 41.0429C115.871 41.3968 115.389 41.2356 114.654 40.8108C114.42 40.6752 113.865 40.1128 113.843 39.9732C113.802 39.6979 113.767 39.4245 113.775 39.1886C113.775 39.047 114.63 37.5211 114.917 36.9685C115.188 36.4357 115.558 36.0031 115.959 35.6098C116.779 34.8134 117.654 34.0839 118.523 33.3839C118.718 33.2305 118.942 33.1125 119.19 33.0417C120.039 32.79 120.72 32.3181 121.333 31.7655C121.436 31.6731 121.565 31.6161 121.579 31.4057C121.614 31.0596 123.363 29.7638 123.646 29.6989C124.381 29.5455 125.042 29.2859 125.738 29.0657C125.84 29.0401 125.889 28.93 126.082 29.0362C126.53 29.284 126.658 29.0972 126.855 29.0028C127.128 28.8691 127.409 28.7472 127.742 28.6862C127.907 28.6547 128.18 28.7648 128.422 28.8317C128.642 28.8927 128.998 29.4452 129.006 29.5317C129.028 29.7775 129.311 29.9506 129.492 30.1551C129.553 30.2239 129.633 30.3143 129.675 30.3753C129.767 30.4992 129.108 32.5914 128.947 32.7232C128.953 32.8136 126.965 34.5853 126.768 34.8232C126.666 34.9471 126.473 34.9471 126.308 34.9805C126.23 35.0041 124.704 36.4475 124.635 36.475C124.249 36.6657 123.992 37.0315 123.425 36.943C123.313 36.9253 123.254 36.9882 123.19 37.0413C122.631 37.4877 121.963 37.763 121.329 38.0874C121.011 38.2545 120.753 38.5062 120.462 38.7088C120.409 38.7481 120.325 38.7402 120.26 38.7599C120.175 38.7835 120.079 38.7894 120.016 38.8425C119.383 39.3931 118.547 39.6959 117.988 40.335C117.851 40.4648 116.858 40.7499 116.72 40.9347C116.638 41.0291 115.938 40.8974 115.918 41.0429Z" fill="#FFAF13"/>
<path fill-rule="evenodd" clip-rule="evenodd" d="M90.4232 209.065C89.3829 210.549 88.1481 212.048 86.5042 213.214C85.8848 213.609 85.3047 214.083 84.5889 214.331C83.36 214.84 81.9147 214.97 80.6621 214.771C79.3918 214.578 78.2415 214.146 77.2111 213.587C76.2948 213.096 75.4099 212.59 74.5683 212.046C74.0354 211.688 73.4888 211.344 72.9952 210.937C72.5213 210.504 72.1221 209.989 71.7898 209.425C71.5873 209.067 71.9609 208.776 72.5626 208.607C73.1545 208.449 74.0197 208.333 74.6293 208.609C76.5308 209.942 78.444 211.047 80.3455 211.78C81.5529 212.215 82.6875 211.883 83.7926 211.271C84.9979 210.618 86.0696 209.535 86.9938 208.251C87.5739 207.47 88.091 206.601 88.5866 205.718C89.32 204.361 90.0613 202.961 90.7024 201.514C91.19 200.387 91.5224 199.18 92.0552 198.029C92.1752 197.776 92.2656 197.51 92.4053 197.265C92.9794 196.38 93.4415 196.274 94.2694 196.614C94.4483 196.684 94.6233 196.734 94.7649 196.804C95.1936 197.009 95.6006 197.801 95.4354 198.488C94.9714 200.546 94.1121 202.47 93.0837 204.505C92.3325 206.015 91.485 207.557 90.4959 209.106L90.4232 209.065Z" fill="#6D1DF7"/>
<path fill-rule="evenodd" clip-rule="evenodd" d="M63.8822 18.75C64.1005 19.0588 63.6738 19.34 62.9049 19.5975C62.6591 19.6801 61.91 19.6919 61.7939 19.6074C61.5737 19.4422 61.3515 19.277 61.1883 19.1079C61.0998 18.9998 60.4981 17.3402 60.209 16.7955C59.9475 16.2626 59.8099 15.7258 59.6958 15.187C59.4677 14.0937 59.1315 13.022 58.9407 11.9366C58.8916 11.6967 58.8975 11.4489 58.9407 11.1952C59.1 10.3202 58.9506 9.4845 58.6694 8.67436C58.6222 8.53868 58.6183 8.3912 58.4216 8.29092C58.0834 8.12968 57.5348 5.89785 57.6803 5.55373C57.8848 4.74359 57.9438 3.95704 58.046 3.15476C58.0598 3.04071 57.9752 2.94239 58.1444 2.80081C58.5376 2.4685 58.398 2.26203 58.4255 2.0123C58.4491 1.67212 58.4649 1.32997 58.5809 0.96619C58.6949 0.769553 58.9289 0.545387 59.0784 0.344817C59.216 0.159978 59.6152 0.140314 59.6899 0.173743C59.8728 0.279927 60.0596 0.108853 60.2287 0.0518278C60.2877 0.0321641 60.3644 0.00660132 60.4194 0.000702206C60.6161 -0.0366588 62.6041 1.42829 62.5687 1.65835C62.5766 1.67998 62.8676 2.33872 63.1763 3.04268C63.4831 3.74074 63.8173 4.47223 63.9039 4.61774C63.9982 4.77112 63.9334 4.95792 63.9117 5.13489C63.9314 5.20765 64.6786 7.38639 64.6766 7.48471C64.6983 7.96057 64.9362 8.40693 64.596 8.94375C64.5311 9.04994 64.5665 9.14039 64.5882 9.23478C64.7612 10.0331 64.7022 10.8708 64.6884 11.6927C64.6806 12.1135 64.775 12.5225 64.7769 12.9414C64.7789 13.0161 64.7219 13.0967 64.6983 13.1754C64.6688 13.2737 64.6196 13.374 64.6255 13.4684C64.6943 14.4496 64.5056 15.4485 64.653 16.416C64.6845 16.6401 64.2676 17.7354 64.3207 17.9871C64.3463 18.1326 63.7898 18.6281 63.8822 18.75Z" fill="#FFAF13"/>
<path fill-rule="evenodd" clip-rule="evenodd" d="M0.217146 22.2007C-0.201691 22.1456 0.0126434 21.5852 0.626151 20.7652C0.820822 20.5037 1.57001 19.8823 1.73125 19.8548C2.0439 19.7978 2.34869 19.7447 2.59645 19.7388C2.74197 19.7506 4.17152 20.5096 4.7162 20.6708C5.22352 20.8557 5.63646 21.1349 6.03367 21.4397L8.56045 23.2035C8.74923 23.3353 8.90654 23.5103 9.04811 23.7187C9.52004 24.4463 10.1965 24.9084 10.9417 25.2662C11.0656 25.3252 11.1698 25.4255 11.3704 25.3528C11.687 25.2387 13.6219 26.389 13.8185 26.6525C14.2865 27.3014 14.8273 27.8481 15.3425 28.4439C15.4172 28.5284 15.5489 28.5324 15.5332 28.7526C15.4958 29.2619 15.7318 29.313 15.9147 29.4585C16.1664 29.663 16.4082 29.8911 16.6049 30.1881C16.7032 30.3336 16.7032 30.6384 16.7288 30.8979C16.7543 31.1339 16.3335 31.6845 16.2529 31.7238C16.0169 31.8359 15.9501 32.1741 15.8144 32.4278C15.7692 32.5123 15.7082 32.6224 15.663 32.6873C15.5588 32.825 13.3918 32.9292 13.2227 32.825C13.2031 32.8151 12.5718 32.5595 11.8994 32.2822C11.2269 32.0129 10.519 31.7336 10.3616 31.6923C10.1984 31.651 10.1139 31.476 10.0077 31.3364C9.96248 31.2853 7.87026 30.4791 7.7975 30.4142C7.43176 30.133 6.94017 30.0268 6.77302 29.4369C6.74156 29.3209 6.64914 29.2875 6.56852 29.2462C5.8567 28.8647 5.27662 28.2826 4.68081 27.7281C4.37209 27.4489 4.00634 27.2405 3.67402 26.9888C3.61503 26.9435 3.5934 26.8492 3.55014 26.7823C3.49508 26.6997 3.45969 26.5876 3.38497 26.5326C2.59842 25.9289 2.00261 25.107 1.17477 24.5308C0.972232 24.403 0.551429 23.2723 0.333162 23.1249C0.201415 23.0403 0.380355 22.2223 0.217146 22.2007Z" fill="#FFAF13"/>
</svg>
