<svg width="255" height="243" viewBox="0 0 255 243" fill="none" xmlns="http://www.w3.org/2000/svg">
<path d="M160.725 257.109C163.049 258.999 165.374 260.667 167.699 262.557C184.081 275.677 201.019 288.022 219.627 297.599C225.165 300.494 230.925 302.946 236.798 305.065C240.565 306.404 244.555 307.3 248.546 307.531C260.187 308.332 267.191 300.031 264.111 288.714C262.791 283.832 260.361 279.17 258.376 274.509C257.824 273.066 257.051 271.844 256.833 270.07C257.83 270.626 258.826 271.183 259.823 271.74C267.796 276.636 275.88 281.643 284.743 284.989C289.064 286.662 293.496 288.002 298.04 289.01C300.7 289.681 303.583 289.687 306.245 289.471C314.119 288.712 319.564 283.512 321.023 275.643C321.808 271.542 321.373 267.327 320.495 263.334C318.958 256.234 316.422 249.686 313.331 243.248C306.047 227.709 297.097 212.942 287.814 198.506C278.089 183.627 268.031 168.857 258.194 154.088C257.531 153.2 257.089 152.312 256.982 150.87C258.422 151.428 259.64 151.985 261.081 152.542C271.494 157 282.131 160.794 293.326 162.481C298.536 163.269 303.858 163.502 309.07 163.403C313.838 163.302 318.499 161.538 322.276 158.442C327.718 154.129 330.171 148.147 330.408 141.272C330.642 135.507 329.212 130.07 327.228 124.744C323.699 115.644 318.617 107.427 312.868 99.6527C297.057 78.4395 278.359 59.8812 258.103 43.0937C243.161 30.7531 227.44 19.6304 210.383 10.5009C203.959 7.16035 197.313 4.04113 190.332 2.14093C185.345 0.688584 180.357 -0.0984705 175.034 0.111707C161.504 0.969326 152.173 8.93265 149.151 21.8995C148.031 26.9977 147.909 31.9872 148.452 37.1999C149.213 44.409 150.75 51.2871 153.286 58.0565C156.152 65.8246 159.351 73.4826 162.328 81.14C162.769 82.2498 163.21 83.3596 163.982 85.2464C162.32 84.6883 161.434 84.4646 160.436 84.1298C151.684 80.8951 143.042 77.5498 134.288 74.7586C125.534 71.9675 116.557 70.2847 107.242 70.4862C102.695 70.5872 98.148 71.1317 93.932 72.2314C82.3934 75.311 74.5045 82.723 70.377 94.135C67.811 101.337 67.2404 108.765 67.5564 116.417C67.8709 124.733 69.5165 132.832 71.4951 140.82C71.825 142.04 72.1546 143.482 72.4836 145.146C71.0428 144.81 70.0456 144.476 69.0484 144.141C58.3007 140.458 47.4351 139.991 36.3405 142.85C27.5757 145.159 19.1413 148.467 11.7008 153.663C5.26037 157.862 1.80972 163.953 0.795113 171.602C-0.332548 180.249 0.757937 188.678 4.39994 196.559C6.71714 201.775 9.25611 206.992 12.3502 211.878C20.086 223.87 28.0435 235.863 36.3349 247.302C53.6911 271.402 72.4916 294.285 93.6251 315.066C105.575 326.846 118.303 337.851 132.587 346.864C138.677 350.758 144.879 354.32 151.749 356.33C156.403 357.671 161.279 359.012 166.047 359.134C180.349 359.941 189.461 351.09 189.381 336.786C189.391 332.572 188.957 328.136 187.856 324.142C185.656 316.153 183.234 308.165 180.035 300.728C174.298 287.188 167.785 273.979 161.604 260.881C161.163 259.771 160.611 258.772 160.169 257.662C160.392 257.441 160.503 257.33 160.725 257.109Z" fill="#7C3AED"/>
</svg>
