<svg width="1920" height="111" viewBox="0 0 1920 111" fill="none" xmlns="http://www.w3.org/2000/svg">
<path d="M-1437 99.7514C-1330.23 107.28 -1227.91 125.947 -1152.99 72.6977C-1131.25 57.2492 -1115.82 36.107 -1085.21 25.1709C-1048.41 12.0181 -1003.58 19.2013 -967.091 28.8268C-914.125 42.8005 -869.635 64.7947 -828.959 88.0525C-806.01 101.174 -785.268 117.853 -754.083 125.343C-664.94 146.753 -603.008 110.241 -548.498 75.8052C-510.263 51.6502 -459.881 24.7242 -397.456 35.7731C-299.344 53.1386 -231.199 101.409 -139.265 125.16C-53.1387 147.411 41.2913 143.041 117.313 110.536C182.496 82.6662 240.872 25.4881 333.548 26.2677C382.446 26.679 423.881 48.0403 459.417 63.9235C511.881 87.3732 562.974 115.468 627.887 127.902C738.559 149.101 826.177 114.359 894.469 69.0418C955.63 28.4571 1035.77 11.6655 1128.78 31.0204C1171.06 39.8203 1200.1 56.4782 1227.21 75.988C1266.06 103.94 1298.4 115.652 1362.12 122.784C1411.5 128.311 1459.61 130.687 1502.51 112.913C1541.17 96.894 1569.14 72.0913 1604.5 53.8698C1707.55 0.759107 1831.68 47.1938 1932.72 80.3751C1979.29 95.6657 2025.14 114.135 2078.92 120.59C2137.58 127.63 2197.64 122.96 2255.78 117.3C2303.27 112.677 2349.77 106.476 2397.79 103.773C2412.48 102.946 2419.97 103.158 2432 99.7514" stroke="#440E6F" stroke-opacity="0.5" stroke-width="35" stroke-linecap="round"/>
</svg>
