<svg width="221" height="244" viewBox="0 0 221 244" fill="none" xmlns="http://www.w3.org/2000/svg">
<path fill-rule="evenodd" clip-rule="evenodd" d="M113.111 226.533C112.353 226.707 111.93 226.22 111.11 225.753C110.833 225.601 110.458 225.017 110.717 224.788C110.95 224.586 111.259 224.327 111.532 224.172C111.787 224.028 112.058 223.888 112.345 223.763C112.745 223.458 117.855 223.163 119.501 223.539C121.133 223.729 122.708 224.184 124.251 224.748C125.81 225.36 127.366 226.012 128.893 226.885C129.661 227.302 130.412 227.779 131.144 228.357C131.512 228.644 131.886 228.879 132.238 229.239L132.969 229.954C133.255 230.24 133.558 230.519 133.77 230.812C134.203 231.323 134.417 231.908 134.727 232.452C134.967 233.008 135.382 233.552 135.428 234.098C135.531 235.042 135.744 235.867 135.821 236.837C135.875 237.311 135.932 237.78 135.986 238.243C136.065 238.76 136.017 238.961 136.039 239.335C133.762 239.646 131.267 239.998 129.597 240.641C129.241 240.75 129.059 240.803 128.891 240.871C128.711 240.944 128.537 241.035 128.386 241.179C128.139 241.407 126.495 242.004 124.742 242.527C123.852 242.746 123.013 243.199 122.279 243.415C121.543 243.633 120.961 243.71 120.742 243.734C118.532 243.827 116.296 243.951 114.017 243.763C113.69 243.716 113.34 243.791 113.043 243.542C112.367 242.986 111.676 243 110.978 242.895C110.02 242.784 109.041 242.444 108.167 241.961C107.719 241.731 107.401 241.152 107.061 240.772C106.76 240.408 107.167 239.988 107.322 239.939C107.767 239.856 107.565 239.472 107.62 239.238C107.638 239.153 107.662 239.043 107.704 238.979C107.727 238.94 108.077 238.863 108.57 238.698C109.025 238.659 109.644 238.497 110.246 238.342C111.435 238.125 112.63 237.739 112.871 237.717C112.899 237.715 113.318 237.666 113.942 237.596C114.577 237.509 115.414 237.422 116.29 237.238C118.031 236.928 119.885 236.372 120.255 236.241C120.645 236.13 121.096 236.231 121.533 236.239C121.582 236.235 121.97 236.184 122.514 236.051C123.049 235.869 123.751 235.63 124.453 235.392C125.872 234.898 127.288 234.403 127.395 234.367C127.512 234.362 127.783 234.251 127.718 234.282C127.728 234.288 127.765 234.344 128.066 234.496L128.098 234.51C128.191 234.555 128.193 234.536 128.204 234.532C128.137 234.403 128.143 234.34 128.137 234.241L128.111 234.073C128.052 233.948 128.224 234.144 127.85 233.693C127.211 233.095 126.471 232.595 125.672 232.09C125.533 231.995 125.427 231.845 125.3 231.726C125.136 231.58 124.966 231.429 124.774 231.325C122.783 230.236 120.645 229.103 118.336 228.592C117.815 228.507 115.429 227.261 114.808 227.253C114.638 227.235 114.298 227.016 113.946 226.816C113.613 226.651 113.261 226.501 113.111 226.533Z" fill="#6D4D8E"/>
<path fill-rule="evenodd" clip-rule="evenodd" d="M70.1277 53.0302C69.147 52.0394 68.7547 50.8889 68.5889 49.6494C68.5404 49.251 69.0661 48.8628 69.4079 49.1075C70.069 49.5867 70.7565 50.0639 71.3874 50.6179C71.5734 50.7898 73.0596 52.3043 74.566 54.2414C76.1027 56.1461 77.5687 58.5806 78.153 59.9354C79.3521 62.4972 80.0254 65.5485 79.6514 68.6704C79.3076 71.845 77.8396 74.8679 75.8904 77.1811C73.8239 79.6944 71.3186 81.2372 69.0884 82.6021C68.0895 83.2168 67.0987 83.7546 66.1443 84.2662C64.5065 85.1357 63.0587 86.1325 62.0578 87.2891C61.0044 88.4983 60.6364 89.5578 60.3877 91.4302C60.3007 91.9964 60.2158 92.5989 60.325 93.1954C60.3674 93.4421 60.3594 94.2186 60.3492 95.4055C60.327 96.5782 60.3108 98.2161 59.9549 100.036C59.5991 101.86 58.7721 103.692 57.9309 104.947C57.0796 106.221 56.3315 106.979 56.0039 107.303C54.3641 108.765 52.8718 109.683 51.2401 110.666C49.6225 111.602 47.9584 112.441 46.2012 113.096C45.7079 113.29 45.1902 113.551 44.6746 113.561C43.4634 113.553 42.416 113.974 41.2736 114.212C39.7065 114.544 38.0626 114.704 36.445 114.437C35.6443 114.354 34.8861 113.988 34.1662 113.664C33.5171 113.379 34.0105 112.87 34.241 112.829C34.9305 112.728 34.4392 112.368 34.4291 112.119C34.425 112.035 34.419 111.921 34.4614 111.859C34.4837 111.818 35.0074 111.778 35.7575 111.719C36.1357 111.654 36.5724 111.578 37.0395 111.495C37.5046 111.4 37.9959 111.216 38.4873 111.112C40.4668 110.597 42.3695 109.551 42.7658 109.43C42.8103 109.396 43.5039 109.135 44.5027 108.629C45.5057 108.148 46.7917 107.37 48.0514 106.502C49.303 105.633 50.5283 104.624 51.3493 103.803C52.0752 103.083 52.5888 102.303 52.7081 102.09C53.0114 101.597 53.3854 101.172 53.6726 100.689C53.7898 100.558 54.4227 98.8793 54.4187 96.4792C54.4106 94.1013 54.5582 91.0622 54.6492 90.86C54.8473 89.6852 55.0212 88.5933 55.5348 87.2022C55.7633 86.547 56.1354 85.9566 56.473 85.3642C56.8815 84.8384 57.2839 84.2783 57.7752 83.8659C58.1614 83.5484 58.4688 83.1076 58.8186 82.7719C61.8192 79.7349 65.2647 78.2831 68.0875 76.5017C69.5292 75.5877 70.795 74.6475 71.7372 73.5536C71.9091 73.3393 72.1295 73.1634 72.3256 72.9632C72.5703 72.7124 72.8594 72.4779 73.0111 72.1746C75.0836 69.2407 75.4334 65.4514 74.0059 61.8199C73.8785 61.4013 73.4842 60.1699 72.9909 58.9021C72.5157 57.6323 71.8666 56.3746 71.5572 55.9257C71.2459 55.4101 70.5301 53.4305 70.1277 53.0302Z" fill="#6D4D8E"/>
<path fill-rule="evenodd" clip-rule="evenodd" d="M144.794 112.481C143.633 111.351 142.224 110.635 140.701 110.022C140.22 109.822 140.269 109.307 140.916 109.24C142.151 109.116 143.518 109.167 144.858 109.753C145.034 109.869 146.068 110.257 147.062 111.561C148.051 112.841 148.579 115.11 148.037 117.178C147.574 119.297 146.349 121.085 145.034 122.508C143.68 123.98 141.999 124.803 141.172 125.26C139.401 126.223 139.318 126.449 138.839 127.925C138.455 129.3 138.321 131.049 138.226 132.833C138.012 136.49 138.376 140.579 137.027 145.025C136.647 146.127 136.182 147.233 135.517 148.267C135.179 148.778 134.85 149.296 134.425 149.747L133.814 150.442L133.228 150.992C131.691 152.472 130.007 153.769 128.234 154.877C126.664 155.88 124.994 156.696 123.292 157.362C117.432 159.602 111.348 160.892 105.148 161.096C104.117 161.167 103.059 161.074 102.05 161.204C101.175 161.246 96.6638 161.256 91.7483 159.574C89.2997 158.664 87.0654 157.174 85.5246 155.694C83.9737 154.215 83.0699 152.822 82.7625 152.295C81.2238 149.678 80.3098 146.611 80.5019 143.426L80.6475 142.237C80.7365 141.839 80.8537 141.436 80.9629 141.04C81.1328 140.237 81.5534 139.493 81.9274 138.757C82.7908 137.35 83.9353 136.155 85.1647 135.342C85.8501 134.814 86.572 134.359 87.2858 134.109C88.9398 133.646 90.3653 132.918 91.8272 132.291C93.833 131.421 95.7822 130.59 97.3655 129.426C97.7537 129.136 98.1662 128.872 98.518 128.554C98.9245 128.269 99.2601 127.925 99.5594 127.533C100.142 126.839 100.368 127.44 100.249 127.784C99.9072 128.74 100.516 128.164 100.758 128.16C100.839 128.166 100.944 128.172 100.973 128.245C100.981 128.267 100.898 128.487 100.738 128.865C100.611 129.27 100.247 129.705 99.8708 130.301C99.0215 131.387 97.6344 132.614 96.1401 133.567C94.6499 134.527 93.1193 135.372 91.9404 136.05C90.7677 136.723 89.9548 137.251 89.6839 137.406C89.6374 137.453 88.592 137.991 87.5082 138.976C86.9622 139.463 86.4749 140.08 86.0705 140.759C85.9411 141.135 85.747 141.485 85.6499 141.895C85.6136 142.332 85.4356 142.706 85.4639 143.191C85.3365 145.033 85.9694 147.051 86.8086 148.477C87.6416 149.923 88.5434 150.861 88.8629 151.148C89.4999 151.787 90.157 152.428 90.8647 153.024C90.9638 153.069 91.6634 153.574 92.7856 154.076C93.9038 154.592 95.4324 154.972 97.2341 155.289C100.734 155.894 104.36 155.766 104.629 155.76C107.5 155.795 110.345 155.33 113.216 155.085C113.79 155.065 114.348 154.879 114.908 154.735C119.697 153.5 124.319 151.528 128.138 148.58C128.654 148.232 129.065 147.777 129.53 147.379C130.027 146.958 130.365 146.56 130.684 146.18C131.303 145.363 131.772 144.423 132.12 143.371C132.219 142.973 132.409 142.613 132.51 142.199C132.648 141.685 132.803 141.163 132.864 140.605C133.236 137.716 133.133 134.564 133.436 131.195C133.592 129.5 133.895 127.784 134.591 125.954C134.975 125.048 135.478 124.063 136.328 123.248C137.149 122.431 138.133 121.91 138.912 121.558C139.714 121.166 141.435 120.751 142.729 119.558C144.155 118.371 145.004 116.713 145.093 116.074C145.178 115.72 145.455 114.966 145.398 114.202C145.382 113.436 145.026 112.718 144.794 112.481Z" fill="#231F20"/>
<path fill-rule="evenodd" clip-rule="evenodd" d="M68.5327 34.683C58.6774 38.8524 49.6916 45.1105 42.3659 52.9236C35.024 60.7285 29.3279 70.0257 25.5609 80.0246C17.9602 100.01 18.2615 122.903 26.6811 142.602C30.8303 152.455 36.9651 161.467 44.5699 168.973C52.1706 176.489 61.2171 182.51 71.042 186.688C80.867 190.871 91.4785 193.215 102.169 193.49C112.857 193.779 123.612 191.947 133.603 188.113C143.572 184.265 152.836 178.507 160.585 171.11C168.345 163.73 174.567 154.752 178.793 144.921C183.035 135.094 185.29 124.434 185.476 113.75C185.678 103.059 183.812 92.3669 180.138 82.3519C176.526 72.4157 171.225 62.8355 164.05 54.8849C156.929 46.8858 148.123 40.4215 138.438 35.9104C119.041 26.8335 96.3313 25.5839 75.9778 31.9472C70.2818 33.7064 72.2654 38.4985 77.4902 36.8203C96.6609 30.8189 118.094 32.0119 136.278 40.5327C145.365 44.7647 153.593 50.8106 160.247 58.2819C166.964 65.7492 171.878 74.5894 175.345 84.103C178.807 93.5357 180.566 103.611 180.376 113.655C180.2 123.696 178.081 133.699 174.108 142.905C170.147 152.117 164.326 160.515 157.066 167.418C149.818 174.337 141.149 179.728 131.779 183.349C122.411 186.944 112.334 188.663 102.296 188.39C92.259 188.133 82.2763 185.929 73.0357 181.995C54.5101 174.196 39.1084 159.162 31.3783 140.616C23.4803 122.161 23.1831 100.609 30.3329 81.8201C33.8754 72.4258 39.2196 63.709 46.0864 56.4135C52.939 49.106 61.3202 43.2725 70.5386 39.3741C72.5201 38.4743 73.062 36.8546 72.6394 35.6738C72.1966 34.4484 70.6619 33.7084 68.5327 34.683Z" fill="#232020"/>
<path fill-rule="evenodd" clip-rule="evenodd" d="M74.724 13.5176C57.8746 17.6971 42.1939 26.4565 29.7888 38.625C29.3298 39.0213 32.7106 42.4102 33.0948 41.9956C44.8872 30.4237 59.8258 22.0707 75.8927 18.0894C76.3254 17.9721 75.1769 13.37 74.724 13.5176Z" fill="#232020"/>
<path fill-rule="evenodd" clip-rule="evenodd" d="M16.2233 55.2415C9.66594 65.3395 4.98498 76.6344 2.4049 88.3803C2.27751 88.7806 6.95645 89.7836 7.01306 89.3953C9.47587 78.1914 13.9385 67.4262 20.1824 57.8115C20.3583 57.5547 16.3912 54.9564 16.2233 55.2415Z" fill="#232020"/>
<path fill-rule="evenodd" clip-rule="evenodd" d="M0.054397 107.083C-0.291367 117.665 1.01283 128.3 3.92048 138.481C3.98519 138.845 8.58122 137.513 8.4599 137.187C5.6857 127.475 4.44216 117.331 4.77175 107.237C4.78995 106.964 0.050353 106.792 0.054397 107.083Z" fill="#232020"/>
<path fill-rule="evenodd" clip-rule="evenodd" d="M12.9325 160.139C19.5404 171.922 28.6435 182.272 39.3925 190.417C50.1375 198.578 62.492 204.561 75.5056 208.069C88.5334 211.537 102.22 212.428 115.592 210.833L120.605 210.17C122.279 209.98 123.9 209.486 125.552 209.159L130.484 208.055C132.108 207.61 133.701 207.052 135.309 206.555C141.795 204.708 147.983 201.918 153.913 198.715C155.573 197.832 153.165 193.695 151.642 194.576C145.989 197.629 140.085 200.3 133.879 202.056C132.34 202.531 130.82 203.067 129.269 203.495L124.554 204.545C122.976 204.858 121.428 205.337 119.824 205.513L115.036 206.146C102.255 207.671 89.1704 206.821 76.7168 203.505C64.2814 200.153 52.4871 194.435 42.2476 186.658C32.0021 178.893 23.3418 169.048 17.0533 157.836C16.3396 156.645 12.152 158.876 12.9325 160.139Z" fill="#232020"/>
<path fill-rule="evenodd" clip-rule="evenodd" d="M25.5694 108.635C25.5754 109.905 25.6381 111.175 25.7311 112.433L25.8019 113.377L25.8807 114.151C25.8909 114.226 25.8524 114.341 25.9495 114.366L26.0567 114.434L26.8432 114.77C27.377 115.019 27.9452 115.191 28.5033 115.387C29.6296 115.751 30.7922 116.036 31.9812 116.196C36.7288 116.855 41.7454 116.115 46.0422 114.004C47.585 113.266 49.0773 112.166 50.5938 111.163L52.6764 109.468C53.3761 108.906 53.9382 108.237 54.5893 107.638C56.7124 105.402 58.334 102.8 59.0882 99.8455C59.895 96.8732 59.7818 93.731 59.9173 90.1055L60.0608 88.682C60.1741 88.1684 60.265 87.667 60.4187 87.1513C60.6674 86.6458 60.7847 86.0453 61.2538 85.5075C61.6764 84.9231 62.194 84.5692 62.6146 84.2639C64.2686 83.2165 65.7407 82.5634 67.1763 81.7344C70.0192 80.141 72.5811 78.2039 74.2796 75.6178C77.4299 71.0622 77.0498 64.7374 75.1632 59.4902C73.9055 56.071 71.9988 52.8621 69.6472 50.0313C67.2733 47.2834 64.5477 44.5314 61.456 43.0695C60.9687 42.8309 60.6695 42.7358 60.4632 42.6085C60.257 42.477 60.1518 42.3294 60.166 42.1879C60.1801 42.0443 60.3176 41.8987 60.6108 41.7592C60.906 41.6055 61.3691 41.4822 61.9312 41.4984C64.2423 41.4276 68.3733 42.936 71.6328 46.4098C74.4939 49.4712 76.9588 52.9571 78.5622 56.9344C80.1434 60.9097 80.9522 65.2611 80.4973 69.7095C80.0888 74.1619 77.7494 78.6508 74.3868 81.512C72.7409 82.988 70.9291 84.177 69.1194 85.1819L66.4605 86.5892C66.044 86.8096 65.6052 87.0321 65.2594 87.2403C64.8671 87.4445 64.578 87.6831 64.4607 87.7418C64.3455 87.7863 64.2828 88.0329 64.1028 88.3888C64.0179 88.8175 63.8804 89.2077 63.8561 89.7537C63.7348 90.7526 63.751 91.9577 63.7368 93.1547C63.7348 95.5811 63.6499 98.2299 63.0049 100.828C62.3821 103.433 61.2053 105.912 59.6989 108.107C58.8941 109.159 58.1096 110.239 57.1552 111.126C56.6922 111.585 56.2534 112.079 55.7681 112.501L54.2759 113.723C53.2082 114.663 52.0112 115.364 50.8587 116.151C49.7465 116.95 48.3999 117.617 47.1078 118.197C44.4853 119.362 41.6929 120.043 38.8803 120.365C36.0656 120.684 33.2085 120.589 30.4262 120.047C29.029 119.819 27.6601 119.419 26.3175 118.956C25.6361 118.721 25.0173 118.442 24.3157 118.147L22.9448 117.441L22.2613 117.089C22.1077 117.061 22.1218 116.907 22.0976 116.784L22.0349 116.404C21.9419 115.797 21.8266 115.122 21.774 114.57L21.6426 113.312C21.5658 112.473 21.5011 111.636 21.4667 110.801C21.3797 109.129 21.3413 107.456 21.3858 105.786C21.4343 102.448 21.6972 99.1156 22.2007 95.8177C22.9367 90.8173 24.2065 85.8856 25.9839 81.144L27.4256 77.6337C27.9513 76.4852 28.5397 75.365 29.0917 74.2287C29.6134 73.0782 30.3069 72.0206 30.9358 70.9288L31.8962 69.301C32.1106 68.9856 32.3957 68.2941 32.6889 67.7643C36.3184 60.8713 40.5181 54.4231 46.02 48.8241C47.2109 47.5745 48.4727 46.4341 49.8173 45.3038C51.1013 44.3009 52.2296 43.5345 53.2042 42.9502C54.2152 42.4143 55.0523 42.018 55.762 41.741C57.2017 41.2214 58.1925 41.276 59.0377 41.5267C59.4279 41.646 59.897 41.7269 60.1538 41.9028C60.5906 42.198 60.2974 42.7844 59.4623 43.5629C59.0498 43.9632 58.4816 44.3676 57.8103 44.8549C57.1613 45.3907 56.3929 45.969 55.5113 46.5777C52.9818 48.539 50.5493 50.6844 48.2927 53.0926C46.0584 55.523 43.9656 58.1456 42.0184 60.9137C40.0813 63.6819 38.2635 66.6037 36.6823 69.5983L36.1141 70.7104L36.0555 70.8317C36.0211 70.8964 35.9605 71.0339 35.9079 71.1148L35.6248 71.596L35.3013 72.142L34.0011 74.3257C33.1074 75.7674 32.4583 77.3486 31.6637 78.851C27.4882 88.0471 25.4399 98.3634 25.6745 108.619L25.5694 108.635Z" fill="#231F20"/>
<path fill-rule="evenodd" clip-rule="evenodd" d="M103.458 32.8366C103.253 32.8366 102.999 32.8447 102.677 32.8851L102.418 32.9215C102.315 32.9215 102.212 32.968 102.307 33.0085C102.398 33.0671 102.513 33.1076 102.643 33.1561L104.738 33.886C105.821 34.2743 106.909 34.6969 108.011 35.2711C108.565 35.5724 109.117 35.8757 109.683 36.3205C110.181 36.6865 111.028 37.5014 111.368 38.381C111.752 39.2707 111.728 40.3079 111.305 41.1815C111.242 41.414 111.095 41.6182 110.967 41.8305L110.666 42.3097C110.474 42.607 110.189 42.8981 109.942 43.1812C108.822 44.3863 107.051 44.7928 105.971 44.9262C103.965 45.1567 103.088 45.6137 102.069 47.0231C101.096 48.4 100.382 50.05 100.283 51.6272C99.9899 54.4479 101.715 57.2039 104.317 58.9934C105.599 59.9033 107.071 60.6271 108.6 61.1508C110.043 61.6523 111.675 61.812 113.329 61.8363C116.661 61.8828 120.097 61.2722 123.649 60.8779C125.435 60.702 127.257 60.4957 129.271 60.8253C130.257 60.9608 131.394 61.442 132.192 62.0385C132.995 62.6289 133.671 63.2537 134.324 63.8866C136.598 66.1351 138.659 68.4422 140.924 70.5047C143.172 72.555 145.592 74.4112 148.227 75.5415C149.948 76.2371 151.654 76.51 153.478 76.3766C155.405 76.235 157.326 75.9459 159.221 75.5637C161.113 75.1796 162.988 74.7003 164.793 74.0917C166.548 73.4851 168.457 72.743 169.608 71.7563C169.751 71.6168 169.856 71.5096 169.941 71.4489C169.951 71.4227 170.085 71.3762 170.105 71.3782C170.186 71.3883 170.374 71.2771 170.52 71.2265C170.671 71.182 170.857 71.1942 171.094 71.5015C171.153 71.6491 171.191 71.8594 171.195 72.1405C171.155 72.375 171.084 72.6723 170.954 72.9796C169.812 75.3494 166.075 77.7738 161.409 78.8536C159.33 79.3328 157.229 79.6725 155.108 79.8828L153.511 80.0021C152.989 80.0465 152.301 79.9919 151.705 79.9798C151.076 79.9899 150.49 79.8484 149.893 79.7331C149.291 79.628 148.706 79.4885 148.162 79.2701C145.902 78.5341 143.946 77.3472 142.205 76.0409C140.452 74.7367 138.859 73.3052 137.383 71.8271C135.899 70.3571 134.496 68.8426 133.117 67.3989C131.766 65.9895 130.27 64.4993 129.271 64.1859C127.91 63.8118 125.906 63.9028 123.961 64.0969C121.985 64.291 119.941 64.5741 117.848 64.752C115.351 64.9684 112.735 65.114 110.023 64.6793C107.237 64.2203 104.78 63.1263 102.481 61.5734C100.22 60.0185 98.2004 57.7498 97.3471 54.8664C96.4999 51.9689 97.1611 48.8166 98.5624 46.4266C99.2863 45.1183 100.281 43.7312 101.832 42.8233C103.375 41.875 105.184 41.8164 106.232 41.5919C106.786 41.4726 107.152 41.3291 107.469 41.044C107.649 40.9449 107.775 40.7083 107.945 40.5546L108.147 40.2291C108.179 40.1785 108.222 40.13 108.246 40.0714C108.444 39.5214 108.258 39.212 107.109 38.4922C106.084 37.8775 104.851 37.3781 103.601 36.9373L102.653 36.6137L101.237 36.1729L98.0751 35.2671C97.0135 34.9719 96.049 34.6544 95.3292 34.3309C94.6255 34.0033 94.2272 33.696 93.9016 33.4109C93.5599 33.1076 93.2222 32.9175 92.8886 32.4565C92.8563 32.416 92.7895 32.2644 92.8138 32.2341L92.9028 32.139L93.0847 31.9449C93.2081 31.8236 93.3173 31.6578 93.4366 31.5162C93.5154 31.4131 93.6004 31.3181 93.6792 31.2049C94.7206 30.9481 95.7518 30.6892 96.9023 30.4769C97.9821 30.2302 99.1831 30.0503 100.413 29.8885L102.226 29.6398L103.781 29.5043C104.61 29.4295 105.441 29.3729 106.274 29.3547C109.601 29.197 112.941 29.3143 116.251 29.7167C121.443 30.3273 126.589 31.6719 131.365 33.8618C136.186 36.0658 140.386 39.1028 144.589 41.9963C151.084 46.6045 157.344 51.3421 162.982 56.9794C164.205 58.2391 165.41 59.4705 166.559 60.8395C170.746 65.9794 171.347 68.3189 171.104 69.9304C171.039 70.3065 171.009 70.7675 170.886 71.0021C170.366 71.7988 169.284 69.5442 166.502 65.9653C162.383 60.6191 157.112 55.837 151.553 51.3259C145.968 46.8815 139.945 42.52 133.794 38.8359C129.299 36.2093 124.28 34.4583 119.082 33.5201C116.488 33.0206 113.833 32.8043 111.18 32.6728C109.847 32.685 108.517 32.6021 107.184 32.689L105.186 32.776L103.478 32.9195L103.458 32.8366Z" fill="#231F20"/>
<path fill-rule="evenodd" clip-rule="evenodd" d="M87.648 155.902C91.5485 158.092 96.7976 158.575 102.035 158.957C107.253 159.331 112.448 159.4 117.406 158.5C121.035 157.875 124.412 156.492 127.476 154.658C128.83 153.852 130.104 152.907 131.293 151.856C132.462 150.808 133.665 149.628 134.512 148.481C136.288 146.099 137.155 143.052 137.636 139.807C137.875 138.177 138.033 136.497 138.198 134.782C138.409 133.265 138.158 131.411 138.999 129.185C139.23 128.635 139.547 128.065 140.016 127.565C140.548 127.028 140.912 126.813 141.286 126.534L143.449 125.076C144.853 124.134 146.197 123.172 147.441 122.118C149.647 120.276 151.521 118.042 152.249 115.555C152.621 114.303 152.603 113.237 152.112 112.218C151.637 111.207 150.721 110.297 149.631 109.559C148.921 109.088 148.157 108.662 147.338 108.318C146.931 108.144 146.517 107.982 146.098 107.839L145.48 107.638C145.344 107.588 145.253 107.594 145.021 107.574C143.395 107.325 141.731 107.566 140.131 108.146C136.924 109.307 133.997 111.638 131.419 114.236C130.62 115.055 130.102 115.247 129.76 114.956C129.409 114.687 129.303 113.866 129.568 112.706C130.102 110.461 132.12 106.484 136.989 104.177C139.118 103.204 141.569 102.583 144.105 102.664L146.003 102.877C146.962 103.034 147.423 103.275 147.967 103.459C149.038 103.869 150.076 104.361 151.099 104.949C152.12 105.548 153.117 106.28 154.059 107.163C154.979 108.106 155.857 109.21 156.429 110.607C156.957 111.99 157.223 113.595 156.975 115.015C156.805 116.485 156.354 117.571 155.844 118.741C153.596 123.206 149.954 125.897 146.58 128.214C144.972 129.333 142.738 130.586 142.96 130.801C142.756 131.225 142.62 132.026 142.558 132.952C142.505 133.87 142.39 135.107 142.267 136.027C141.979 138.417 141.723 140.917 141.12 143.475C140.524 146.016 139.551 148.647 137.919 150.918C137.117 152.092 136.172 153.027 135.277 153.963C134.365 154.899 133.356 155.76 132.33 156.581C130.266 158.225 127.937 159.513 125.545 160.552C120.227 162.793 114.521 163.458 109.019 163.517C106.257 163.529 103.519 163.397 100.803 163.195C98.114 162.981 95.3479 162.76 92.5838 162.188C89.2212 161.487 85.6867 160.36 82.8538 157.817C81.4546 156.559 80.3304 154.933 79.6752 153.166C79.3133 152.288 79.1576 151.447 78.8947 150.586C78.7613 149.7 78.5369 148.829 78.5025 147.925C78.2659 145.209 78.7148 142.381 79.8815 139.877C81.0381 137.366 82.8619 135.211 85.0134 133.587C87.1729 131.963 89.6215 130.815 92.1511 130.067C92.7152 129.907 93.615 129.701 93.7768 129.614C94.2115 129.401 94.7453 129.084 95.2083 128.775C96.1567 128.129 97.0362 127.377 97.8066 126.538C99.0218 125.242 99.9237 123.705 100.526 122.082C101.185 120.26 101.905 118.365 103.007 116.562C104.113 114.766 105.729 113.102 107.678 112.069C109.605 110.999 111.696 110.455 113.724 110.168C115.517 109.933 117.244 109.79 119.058 109.838C122.414 109.96 124.629 110.576 126.07 111.236C127.516 111.909 128.214 112.647 128.58 113.488C128.745 113.876 128.98 114.311 128.976 114.635C128.921 115.72 126.74 114.904 122.522 114.388C119.438 114.018 116.063 114.176 113.049 114.792C109.985 115.472 107.884 116.818 106.477 119.358C105.733 120.64 105.165 122.092 104.528 123.804C103.751 125.816 102.597 127.691 101.167 129.286C99.7194 130.879 98.0816 132.214 96.1425 133.276L95.7482 133.48C95.5703 133.569 95.3499 133.674 95.1457 133.755L94.1953 134.018L93.0529 134.331C92.3209 134.604 91.5647 134.832 90.8772 135.182C88.7925 136.143 86.9039 137.455 85.5269 139.123C84.152 140.791 83.2643 142.759 82.9651 144.878C82.6577 146.983 83.0176 149.304 83.7577 151.429C84.429 153.275 85.7514 154.743 87.6905 155.801L87.648 155.902Z" fill="#6D4D8E"/>
<path fill-rule="evenodd" clip-rule="evenodd" d="M114.302 224.353V210.712C114.336 210.557 109.55 210.557 109.582 210.712V224.353C109.57 224.476 114.312 224.476 114.302 224.353Z" fill="#232020"/>
<path fill-rule="evenodd" clip-rule="evenodd" d="M122.792 237.606C124.794 237.368 126.795 237.103 128.793 236.8C129.792 236.652 130.787 236.474 131.794 236.351L133.296 236.14C133.389 236.086 133.519 236.159 133.585 236.088C133.763 236.08 134.091 236.148 134.119 235.912C134.137 235.722 134.04 235.542 133.939 235.362C133.858 235.237 133.832 235.198 133.664 235.012C133.355 234.652 133.011 234.308 132.661 233.965C131.952 233.289 131.197 232.634 130.407 232.013C124.856 227.63 117.508 224.965 110.377 226.18C107.228 226.706 104.22 228.06 101.619 229.919C98.279 232.343 95.5169 235.489 92.7751 238.7C91.9198 239.701 91.4305 239.192 91.4891 237.833C91.5396 236.484 92.1685 234.228 93.8488 232.187C96.809 228.602 100.734 225.626 105.249 223.853C109.77 222.075 114.855 221.792 119.496 222.872C125.046 224.148 130.457 226.582 134.881 230.374C135.522 230.932 136.143 231.52 136.736 232.161C137.534 233.031 138.43 234.145 138.909 235.206C139.38 236.288 139.591 237.329 139.194 238.371C138.76 239.473 137.577 239.608 136.622 240.122L133.672 240.765L131.586 241.177L127.384 241.855C123.714 242.409 120.026 242.843 116.327 243.185C113.525 243.44 110.7 243.591 107.865 243.628C105.01 243.678 102.109 243.458 99.3284 243.104C94.9892 242.56 90.7895 241.99 86.6605 241.622C85.7567 241.565 84.869 241.513 83.9591 241.456C80.6228 241.214 79.632 240.979 78.8697 239.598C78.6978 239.291 78.4673 238.981 78.3581 238.672C77.9719 237.649 79.4318 236.67 82.1595 236.521C90.2557 236.126 98.1415 238.516 105.471 238.696C111.026 238.767 116.979 238.259 122.766 237.487L122.792 237.606Z" fill="#6D4D8E"/>
<path fill-rule="evenodd" clip-rule="evenodd" d="M139.81 1.82919C139.515 1.60474 139.847 1.25291 140.542 0.80807C140.765 0.664508 141.503 0.452196 141.632 0.504769C141.883 0.607891 142.129 0.715058 142.322 0.842445C142.439 0.919281 143.288 2.45803 143.591 2.97971C143.895 3.48319 144.064 4.01902 144.214 4.56294L145.106 7.8568C145.166 8.10146 145.189 8.35422 145.171 8.61303C145.106 9.50474 145.302 10.3378 145.526 11.1648C145.567 11.3023 145.571 11.4479 145.727 11.5571C145.983 11.7391 146.426 14.0037 146.384 14.3131C146.279 15.0895 146.27 15.8458 146.226 16.6101C146.214 16.7193 146.281 16.8204 146.147 16.9457C145.84 17.2389 145.939 17.4512 145.953 17.6818C145.971 18.0033 145.975 18.3248 145.925 18.6584C145.898 18.8242 145.743 19.0183 145.625 19.2043C145.518 19.3722 145.019 19.4065 144.954 19.3701C144.77 19.265 144.566 19.4308 144.366 19.4894C144.299 19.5097 144.212 19.5359 144.155 19.542C144.042 19.5562 142.702 17.9588 142.641 17.7626C142.592 17.7202 141.761 15.1441 141.622 14.8631C141.553 14.7155 141.602 14.5416 141.62 14.3758C141.626 14.2949 140.872 12.2688 140.862 12.1859C140.805 11.7472 140.574 11.3448 140.813 10.8474C140.86 10.7503 140.825 10.6654 140.803 10.5804C140.605 9.8505 140.579 9.08416 140.506 8.33197C140.469 7.94577 140.342 7.58181 140.267 7.20571C140.253 7.13696 140.285 7.05811 140.291 6.98734C140.299 6.89432 140.322 6.79929 140.299 6.71639C140.069 5.84086 140.035 4.91477 139.679 4.07564C139.602 3.88153 139.709 2.82806 139.596 2.60968C139.537 2.48836 139.931 1.91815 139.81 1.82919Z" fill="#231F20"/>
<path fill-rule="evenodd" clip-rule="evenodd" d="M203.415 50.243C203.204 50.6171 202.75 50.2572 202.171 49.4524C201.985 49.1956 201.656 48.3201 201.69 48.1624C201.757 47.853 201.825 47.5537 201.923 47.3212C201.987 47.1878 203.368 46.0696 203.799 45.6166C204.224 45.1981 204.713 44.9029 205.216 44.634C206.24 44.0799 207.242 43.4612 208.284 42.8627C208.512 42.7292 208.767 42.6423 209.046 42.5937C209.996 42.432 210.817 42.0053 211.608 41.4877C211.741 41.4028 211.895 41.3542 211.958 41.1379C212.043 40.778 214.368 39.587 214.754 39.6052C215.662 39.5708 216.523 39.4434 217.405 39.3868C217.528 39.3767 217.632 39.2797 217.801 39.4273C218.198 39.773 218.412 39.6173 218.669 39.5668C219.021 39.49 219.393 39.4637 219.775 39.5021C219.967 39.5223 220.206 39.7205 220.426 39.8681C220.626 40.0035 220.729 40.6789 220.699 40.7658C220.612 41.0145 220.82 41.2855 220.911 41.5524C220.942 41.6414 220.982 41.7587 220.996 41.8335C221.004 41.9972 219.603 43.6897 219.437 43.7645C219.425 43.7706 219.269 43.8535 219.035 43.9768C218.804 44.1102 218.499 44.2862 218.184 44.4661C217.563 44.8463 216.924 45.2507 216.805 45.3639C216.677 45.4731 216.481 45.4367 216.305 45.4407C216.222 45.4286 214.39 46.6964 214.303 46.7308C213.867 46.8784 213.525 47.2363 212.93 47.0887C212.811 47.0583 212.736 47.121 212.657 47.1675C211.966 47.5861 211.169 47.8146 210.393 48.0977C209.996 48.2412 209.641 48.4778 209.262 48.6638C209.194 48.6962 209.099 48.68 209.02 48.6901C208.919 48.7043 208.807 48.7002 208.723 48.7467C207.839 49.232 206.838 49.4848 205.979 50.0631C205.783 50.2005 204.563 50.245 204.339 50.4068C204.211 50.4998 203.498 50.0954 203.415 50.243Z" fill="#231F20"/>
<path fill-rule="evenodd" clip-rule="evenodd" d="M154.261 203.871L142.394 178.49C142.295 178.181 137.26 180.537 137.43 180.814L149.295 206.192C149.39 206.428 154.381 204.095 154.261 203.871Z" fill="#232020"/>
<path fill-rule="evenodd" clip-rule="evenodd" d="M76.1037 35.7739L65.2778 11.9404C65.1889 11.6492 60.1096 13.9078 60.2693 14.1687L71.1214 38.0587C71.2084 38.2832 76.2149 35.9841 76.1037 35.7739Z" fill="#232020"/>
<path fill-rule="evenodd" clip-rule="evenodd" d="M109.02 41.0914C109.43 40.2806 110.031 39.5729 110.621 38.6084C110.809 38.3131 111.323 38.3233 111.432 38.7216C111.652 39.4798 111.78 40.3432 111.636 41.2875C111.606 41.4129 111.495 42.1347 110.912 42.9415C110.354 43.7665 109.438 44.5814 108.547 45.2406C107.655 45.9139 106.755 46.5367 106.106 47.1109C105.471 47.667 105.002 48.2129 104.743 48.591C103.684 50.0691 103.316 51.5593 103.862 52.7928C103.975 53.1183 104.183 53.4317 104.395 53.7472L105.362 54.8552C105.657 55.2596 106.025 55.5447 106.389 55.8238C106.751 56.1008 107.081 56.4425 107.485 56.6225C108.963 57.6031 110.708 58.0257 112.714 57.9914C113.61 57.957 114.509 57.9772 115.478 57.9004C118.79 57.7649 122.248 56.7236 126.15 56.2787C126.793 56.1918 127.513 56.2443 128.17 56.0826C128.425 55.9815 129.391 56.0563 130.686 56.1877C131.345 56.3414 132.099 56.5517 132.883 56.7943C133.622 57.0916 134.384 57.4757 135.1 57.9347C138.017 59.8678 139.572 62.4964 139.926 62.9837C140.798 64.4396 141.42 65.5678 142.31 66.6355C143.184 67.7132 144.207 68.6797 145.307 69.5552C145.624 69.8019 146.006 69.988 146.247 70.3054C146.793 71.0839 147.646 71.3892 148.449 71.7491C149.583 72.2203 150.734 72.6995 151.953 73.0291C152.556 73.205 153.156 73.4456 153.781 73.6316C154.349 73.8116 154.044 74.1917 153.832 74.2402C153.225 74.3616 153.708 74.59 153.765 74.7639C153.783 74.8266 153.805 74.9055 153.775 74.956C153.767 74.9702 153.633 74.9985 153.405 75.0389C153.176 75.0693 152.849 75.138 152.453 75.1501C151.664 75.2047 150.586 75.2391 149.472 75.1421C147.209 75.049 144.983 74.0845 144.577 73.8823C144.53 73.852 143.788 73.4941 142.749 72.8511C141.716 72.2021 140.415 71.2234 139.225 70.0648C138.032 68.9567 136.907 67.4645 136.23 66.5465C135.498 65.5779 134.954 64.9329 134.76 64.7247C134.358 64.2879 134.05 63.7986 133.7 63.3719C133.613 63.2729 132.232 61.9403 130.546 61.5521C128.995 61.0547 126.937 61.3479 126.801 61.3236C125.172 61.4268 123.477 61.8817 121.619 61.9181C121.261 61.9221 120.881 62.0212 120.519 62.1021C117.383 62.7572 113.945 63.4346 110.211 62.7795C109.264 62.5995 108.32 62.4277 107.398 62.0414C106.446 61.7644 105.598 61.2488 104.753 60.7312C104.442 60.5532 104.171 60.3248 103.942 60.0558C103.633 59.7404 103.342 59.4108 103.022 59.1196C102.11 58.4039 101.595 57.4373 100.895 56.5901C100.228 55.6802 99.6558 54.4346 99.4516 53.1729C98.9946 50.5625 99.9955 48.0006 101.437 46.2111C101.759 45.7784 102.883 44.7108 104.167 43.9707C105.392 43.2509 106.551 42.6888 106.923 42.4037C107.4 42.1267 108.925 41.5201 109.02 41.0914Z" fill="#6D4D8E"/>
</svg>
