<svg width="80" height="80" viewBox="0 0 80 80" fill="none" xmlns="http://www.w3.org/2000/svg">
<path opacity="0.5" d="M69.4944 29.0438C74.6134 23.9248 74.6134 15.6253 69.4944 10.5063C64.3754 5.38724 56.0758 5.38724 50.9568 10.5063L48 13.463C48.0405 13.5853 48.0825 13.7093 48.126 13.8348C49.2098 16.9586 51.2547 21.0537 55.1014 24.9004C58.9481 28.7471 63.0431 30.7919 66.1669 31.8757C66.2919 31.9191 66.4153 31.9609 66.537 32.0012L69.4944 29.0438Z" fill="#D75327"/>
<path d="M48.1299 13.333L48.0026 13.4603C48.0431 13.5826 48.0851 13.7065 48.1286 13.8321C49.2124 16.9559 51.2573 21.051 55.104 24.8977C58.9507 28.7444 63.0457 30.7892 66.1695 31.873C66.2934 31.916 66.4158 31.9574 66.5365 31.9974L38.0016 60.5323C36.0779 62.456 35.1158 63.4181 34.0552 64.2453C32.804 65.2212 31.4503 66.0579 30.0179 66.7405C28.8036 67.3192 27.513 67.7494 24.9319 68.6098L11.3208 73.1468C10.0506 73.5702 8.65016 73.2397 7.70341 72.2929C6.75665 71.3461 6.42606 69.9457 6.84946 68.6755L11.3865 55.0644C12.2469 52.4833 12.6771 51.1927 13.2558 49.9784C13.9384 48.546 14.7751 47.1923 15.751 45.9411C16.5782 44.8805 17.5401 43.9186 19.4638 41.9949L48.1299 13.333Z" fill="#D75327"/>
<g opacity="0.5">
<path d="M18.3069 13.4849L13.4859 18.3059C8.94061 22.8512 6.66797 25.1238 6.66797 27.9479C6.66797 30.7719 8.9406 33.0445 13.4858 37.5898L18.6781 42.782C18.9211 42.5383 19.1821 42.2773 19.4637 41.9957L42.7844 18.6784L37.5908 13.4849C33.0455 8.93963 30.7729 6.66699 27.9488 6.66699C25.1248 6.66699 22.8521 8.93963 18.3069 13.4849Z" fill="#D75327"/>
<path d="M61.3202 37.2143L38.0016 60.5329C37.7199 60.8147 37.4588 61.0758 37.2149 61.3189L42.4118 66.5157C46.957 71.061 49.2297 73.3337 52.0538 73.3337C54.8778 73.3337 57.1505 71.061 61.6958 66.5158L66.5167 61.6948C71.062 57.1495 73.3346 54.8769 73.3346 52.0528C73.3346 49.2287 71.062 46.9561 66.5167 42.4108L61.3202 37.2143Z" fill="#D75327"/>
</g>
<path d="M67.0277 42.9238L63.1307 46.8209C62.1544 47.7972 62.1544 49.3801 63.1307 50.3564C64.107 51.3327 65.6899 51.3327 66.6662 50.3564L70.4999 46.5227C69.571 45.4806 68.4136 44.311 67.0277 42.9238Z" fill="#D75327"/>
<path d="M32.5522 8.70898L28.1307 13.1305C27.1544 14.1068 27.1544 15.6898 28.1307 16.6661C29.107 17.6424 30.6899 17.6424 31.6662 16.6661L36.217 12.1153C34.7975 10.7068 33.6151 9.57138 32.5522 8.70898Z" fill="#D75327"/>
</svg>
