<svg width="34" height="34" viewBox="0 0 34 34" fill="none" xmlns="http://www.w3.org/2000/svg">
<path d="M33.0053 13.1017L24.5606 10.2194L21.4072 0.689812C21.2857 0.322312 20.9166 0.0703125 20.5 0.0703125C20.0834 0.0703125 19.7143 0.322312 19.5928 0.689812L16.4404 10.2194L7.99467 13.1017C7.62173 13.2294 7.375 13.5558 7.375 13.9224C7.375 14.2882 7.62173 14.6163 7.99467 14.7432L16.4356 17.6246L19.59 27.4447C19.7095 27.8157 20.0796 28.0703 20.5 28.0703C20.9194 28.0703 21.2905 27.8157 21.41 27.4438L24.5644 17.6237L33.0063 14.7423C33.3773 14.6163 33.625 14.2891 33.625 13.9224C33.625 13.5567 33.3773 13.2294 33.0053 13.1017Z" fill="#53B28B"/>
<path d="M13.722 26.1039L11.408 25.2479L10.508 21.9479C10.39 21.5119 9.995 21.2099 9.544 21.2099C9.093 21.2099 8.698 21.5119 8.579 21.9469L7.679 25.2469L5.366 26.1029C4.973 26.2479 4.713 26.6229 4.713 27.0409C4.713 27.4589 4.973 27.8339 5.366 27.9789L7.667 28.8319L8.574 32.4539C8.686 32.8979 9.085 33.2099 9.544 33.2099C10.003 33.2099 10.402 32.8979 10.514 32.4529L11.421 28.8309L13.722 27.9779C14.115 27.8339 14.375 27.4589 14.375 27.0409C14.375 26.6229 14.115 26.2479 13.722 26.1039ZM9.384 4.44085L7.02 3.56585L6.144 1.20085C5.999 0.807851 5.625 0.547852 5.206 0.547852C4.788 0.547852 4.414 0.807851 4.268 1.20085L3.393 3.56585L1.028 4.44085C0.635 4.58685 0.375 4.96085 0.375 5.37885C0.375 5.79685 0.635 6.17185 1.028 6.31685L3.393 7.19185L4.268 9.55685C4.414 9.94985 4.788 10.2099 5.206 10.2099C5.624 10.2099 5.998 9.94985 6.144 9.55685L7.019 7.19185L9.384 6.31685C9.777 6.17085 10.037 5.79685 10.037 5.37885C10.037 4.96085 9.777 4.58685 9.384 4.44085Z" fill="#53B28B" fill-opacity="0.5"/>
</svg>
