<svg width="32" height="32" viewBox="0 0 32 32" fill="none" xmlns="http://www.w3.org/2000/svg">
<path d="M2.61719 28.7866L20.936 22.2441L9.15962 10.4678L2.61719 28.7866Z" fill="#96A3BE"/>
<path d="M19.012 16.395L26.3264 9.08061C26.9676 8.43945 28.0013 8.43945 28.6425 9.08061L29.4145 9.85262L30.8015 8.46562L30.0294 7.69361C28.6294 6.29353 26.3395 6.29353 24.9394 7.69361L17.625 15.008L19.012 16.395Z" fill="#96A3BE"/>
<path d="M13.1626 9.00237L12.3906 9.77437L13.7776 11.1614L14.5496 10.3894C15.9497 8.98928 15.9497 6.69943 14.5496 5.29935L13.7776 4.52734L12.3906 5.92742L13.1626 6.69943C13.7907 7.3275 13.7907 8.37429 13.1626 9.00237Z" fill="#96A3BE"/>
<path d="M22.3227 15.5442L20.2422 17.6247L21.6292 19.0117L23.7097 16.9312C24.3508 16.29 25.3845 16.29 26.0257 16.9312L28.1324 19.0379L29.5194 17.6509L27.4127 15.5442C25.9995 14.1441 23.7228 14.1441 22.3227 15.5442Z" fill="#96A3BE"/>
<path d="M19.7053 7.69367L15.0078 12.3911L16.3948 13.7782L21.0923 9.08066C22.4924 7.68058 22.4924 5.39073 21.0923 3.99065L19.0118 1.91016L17.6248 3.29715L19.7053 5.37764C20.3334 6.0188 20.3334 7.06559 19.7053 7.69367Z" fill="#96A3BE"/>
</svg>
