<svg width="80" height="80" viewBox="0 0 80 80" fill="none" xmlns="http://www.w3.org/2000/svg">
<path fill-rule="evenodd" clip-rule="evenodd" d="M29.1043 19.2381L18.8971 33.0482C14.6147 38.8423 12.4735 41.7393 13.6533 44.0171C13.6729 44.0548 13.693 44.0923 13.7137 44.1294C14.9635 46.3726 18.6616 46.3726 26.0579 46.3726C30.168 46.3726 32.223 46.3726 33.5121 47.5849L33.5788 47.6491L46.4854 32.4159L46.4186 32.3517C45.1568 31.1132 45.1568 29.1387 45.1568 25.1897V24.1574C45.1568 13.2086 45.1568 7.73425 42.0789 6.79104C39.0011 5.84782 35.7021 10.3112 29.1043 19.2381Z" fill="#53B28B"/>
<path opacity="0.5" d="M34.8437 54.8103L34.8437 55.8422C34.8436 66.7911 34.8435 72.2655 37.9214 73.2088C40.9992 74.152 44.2982 69.6886 50.8962 60.7617L61.1034 46.9518C65.3858 41.1577 67.5271 38.2607 66.3473 35.9828C66.3277 35.9451 66.3076 35.9077 66.2869 35.8705C65.0371 33.6274 61.3389 33.6274 53.9427 33.6274C49.8326 33.6274 47.7776 33.6274 46.4886 32.415L33.582 47.6483C34.8438 48.8868 34.8438 50.8613 34.8437 54.8103Z" fill="#53B28B"/>
</svg>
