<svg width="37" height="37" viewBox="0 0 37 37" fill="none" xmlns="http://www.w3.org/2000/svg">
<path d="M27.3155 18.4307C25.2772 13.1548 17.7016 13.0938 20.5746 4.53271C15.0862 6.98746 10.7397 13.3014 15.0371 21.6426C8.95934 19.1024 11.6238 12.7396 11.6238 12.7396C11.6238 12.7396 8.30859 14.7669 8.30859 20.8976C8.77517 27.7367 14.5828 29.8372 16.6701 30.106C19.6537 30.4846 22.883 29.935 25.2036 27.8222C27.7576 25.4652 28.6906 21.7036 27.3155 18.4307ZM15.9212 24.5736C17.6892 24.1462 18.5978 22.876 18.8435 21.7526C19.2485 20.0061 17.6647 18.2964 18.7329 15.5363C19.1381 17.82 22.7479 19.249 22.7479 21.7404C22.8461 24.8302 19.482 27.4803 15.9212 24.5736Z" fill="#EB0707"/>
</svg>
