<svg width="27" height="27" viewBox="0 0 27 27" fill="none" xmlns="http://www.w3.org/2000/svg">
<path d="M19.2987 4.52441H13.3582C12.9822 4.52441 12.6211 4.67409 12.3551 4.94013L4.62257 12.6713C4.06852 13.2253 4.06852 14.1234 4.62257 14.6781L10.5631 20.6188C11.1172 21.1728 12.0153 21.1728 12.5693 20.6188L20.3019 12.8875C20.5678 12.6209 20.7176 12.2598 20.7176 11.8831V5.94323C20.7176 5.15933 20.0826 4.52441 19.2987 4.52441ZM16.8158 9.49026C16.2285 9.49026 15.7518 9.01353 15.7518 8.42614C15.7518 7.83875 16.2285 7.36204 16.8158 7.36204C17.4032 7.36204 17.8799 7.83875 17.8799 8.42614C17.8799 9.01353 17.4032 9.49026 16.8158 9.49026Z" fill="#FFC83D"/>
<path d="M22.1378 5.94336L22.1372 12.5472C22.1372 12.8743 22.0073 13.1885 21.7754 13.4198L13.918 21.2772L14.0386 21.3978C14.5926 21.9518 15.4908 21.9518 16.0448 21.3978L23.1403 14.3037C23.407 14.0377 23.5567 13.6766 23.5567 13.3006V7.36217C23.5567 6.57828 22.9217 5.94336 22.1378 5.94336Z" fill="#FFC83D"/>
</svg>
