<svg width="23" height="27" viewBox="0 0 23 27" fill="none" xmlns="http://www.w3.org/2000/svg">
<path d="M22.7629 11.9168C22.6558 11.63 22.3815 11.4394 22.075 11.4394H13.2201L18.3277 1.50865C18.4883 1.19625 18.4054 0.814184 18.129 0.597119C17.9955 0.491519 17.8349 0.439453 17.675 0.439453C17.5042 0.439453 17.3333 0.499586 17.1962 0.617652L11.8084 5.27062L1.06294 14.5509C0.831207 14.7511 0.747608 15.0745 0.854674 15.3612C0.96174 15.6479 1.23527 15.8393 1.5418 15.8393H10.3967L5.28911 25.7701C5.12851 26.0825 5.21138 26.4645 5.48784 26.6816C5.62131 26.7872 5.78191 26.8393 5.94177 26.8393C6.11264 26.8393 6.2835 26.7791 6.42063 26.6611L11.8084 22.0081L22.5539 12.7278C22.7863 12.5276 22.8692 12.2042 22.7629 11.9168Z" fill="#FFAC33"/>
</svg>
