<svg width="17" height="17" viewBox="0 0 17 17" fill="none" xmlns="http://www.w3.org/2000/svg">
<g clip-path="url(#clip0_525_2950)">
<path d="M11.2777 5.32C10.4002 4.4425 9.25266 4 8.09766 4V8.5L4.91766 11.68C6.67266 13.435 9.52266 13.435 11.2852 11.68C13.0402 9.925 13.0402 7.075 11.2777 5.32ZM8.09766 1C3.95766 1 0.597656 4.36 0.597656 8.5C0.597656 12.64 3.95766 16 8.09766 16C12.2377 16 15.5977 12.64 15.5977 8.5C15.5977 4.36 12.2377 1 8.09766 1ZM8.09766 14.5C4.78266 14.5 2.09766 11.815 2.09766 8.5C2.09766 5.185 4.78266 2.5 8.09766 2.5C11.4127 2.5 14.0977 5.185 14.0977 8.5C14.0977 11.815 11.4127 14.5 8.09766 14.5Z" fill="#5D6A83"/>
</g>
<defs>
<clipPath id="clip0_525_2950">
<rect width="16" height="15" fill="white" transform="translate(0.5 1)"/>
</clipPath>
</defs>
</svg>
