<svg width="80" height="80" viewBox="0 0 80 80" fill="none" xmlns="http://www.w3.org/2000/svg">
<path d="M22 37.991C22 28.9037 22 24.36 24.8118 21.5369C27.6236 18.7139 32.149 18.7139 41.2 18.7139H50.8C59.851 18.7139 64.3765 18.7139 67.1882 21.5369C70 24.36 70 28.9037 70 37.991V54.0552C70 63.1425 70 67.6862 67.1882 70.5093C64.3765 73.3323 59.851 73.3323 50.8 73.3323H41.2C32.149 73.3323 27.6236 73.3323 24.8118 70.5093C22 67.6862 22 63.1425 22 54.0552V37.991Z" fill="#6D4B8D"/>
<path opacity="0.5" d="M13.9052 10.5722C10 14.4775 10 20.7629 10 33.3337V40.0003C10 52.5711 10 58.8565 13.9052 62.7617C15.9638 64.8203 18.6837 65.7937 22.6369 66.254C21.9987 63.4514 21.9987 59.5989 21.9987 54.0559V37.9916C21.9987 28.9043 21.9987 24.3607 24.8105 21.5376C27.6222 18.7145 32.1477 18.7145 41.1987 18.7145H50.7987C56.3049 18.7145 60.1362 18.7145 62.9257 19.3501C62.4676 15.3719 61.4947 12.6388 59.4281 10.5722C55.5229 6.66699 49.2375 6.66699 36.6667 6.66699C24.0959 6.66699 17.8105 6.66699 13.9052 10.5722Z" fill="#6D4B8D"/>
</svg>
