<svg width="35" height="35" viewBox="0 0 35 35" fill="none" xmlns="http://www.w3.org/2000/svg">
<g clip-path="url(#clip0_489_748)">
<path d="M17.7955 0C8.38374 0 0.726562 7.65718 0.726562 17.069C0.726562 26.4801 8.38374 34.1379 17.7955 34.1379C27.2066 34.1379 34.8645 26.4801 34.8645 17.069C34.8645 7.65718 27.208 0 17.7955 0ZM22.0404 17.6699H19.2634V27.5678H15.1485V17.6699H13.1924V14.1717H15.1485V11.9089C15.1485 10.2884 15.9185 7.75618 19.3013 7.75618L22.3505 7.76787V11.1637H20.1373C19.777 11.1637 19.2648 11.3438 19.2648 12.1166V14.1723H22.4L22.0404 17.6699Z" fill="white"/>
</g>
<defs>
<clipPath id="clip0_489_748">
<rect width="34.1379" height="34.1379" fill="white" transform="translate(0.726562)"/>
</clipPath>
</defs>
</svg>
