<svg width="35" height="35" viewBox="0 0 35 35" fill="none" xmlns="http://www.w3.org/2000/svg">
<path d="M22.745 9.08203H12.5703C10.9463 9.08203 9.625 10.4033 9.625 12.0273V22.202C9.625 23.826 10.9463 25.1477 12.5703 25.1477H22.745C24.369 25.1477 25.6906 23.8264 25.6906 22.202V12.0273C25.6906 10.4033 24.3694 9.08203 22.745 9.08203ZM17.6576 22.4036C14.7416 22.4036 12.3691 20.0311 12.3691 17.1147C12.3691 14.1987 14.7416 11.8261 17.6576 11.8261C20.574 11.8261 22.9465 14.1987 22.9465 17.1147C22.9465 20.0307 20.5736 22.4036 17.6576 22.4036ZM23.1166 12.9196C22.7847 12.9193 22.4666 12.7874 22.232 12.5528C21.9973 12.3182 21.8653 12.0001 21.8649 11.6683C21.8653 11.3365 21.9973 11.0184 22.232 10.7838C22.4666 10.5492 22.7847 10.4173 23.1166 10.417C23.4483 10.4174 23.7663 10.5494 24.0009 10.7839C24.2355 11.0185 24.3674 11.3366 24.3678 11.6683C24.3674 12 24.2355 12.3181 24.0009 12.5527C23.7663 12.7872 23.4483 12.9192 23.1166 12.9196Z" fill="white"/>
<path d="M17.6556 14.0615C15.9723 14.0615 14.6016 15.4315 14.6016 17.1148C14.6016 18.799 15.9723 20.1693 17.6556 20.1693C19.3398 20.1693 20.7093 18.799 20.7093 17.1148C20.7093 15.4319 19.3394 14.0615 17.6556 14.0615Z" fill="white"/>
<path d="M17.6549 0C8.22835 0 0.585938 7.64241 0.585938 17.069C0.585938 26.4955 8.22835 34.1379 17.6549 34.1379C27.0815 34.1379 34.7239 26.4955 34.7239 17.069C34.7239 7.64241 27.0815 0 17.6549 0ZM27.9224 22.2023C27.9224 25.059 25.5989 27.3825 22.7422 27.3825H12.5676C9.71127 27.3825 7.38743 25.059 7.38743 22.2023V12.0277C7.38743 9.17135 9.71127 6.84752 12.5676 6.84752H22.7422C25.5989 6.84752 27.9224 9.17135 27.9224 12.0277V22.2023Z" fill="white"/>
</svg>
