<svg width="35" height="35" viewBox="0 0 35 35" fill="none" xmlns="http://www.w3.org/2000/svg">
<g clip-path="url(#clip0_489_750)">
<path d="M17.8979 0C8.48765 0 0.863281 7.62437 0.863281 17.0346C0.863281 26.4449 8.48765 34.0692 17.8979 34.0692C27.3082 34.0692 34.9325 26.4449 34.9325 17.0346C35.0012 7.62437 27.3082 0 17.8979 0ZM26.2778 12.776C26.2778 12.982 26.2778 13.1194 26.2778 13.3255C26.2778 19.0266 21.9505 25.6206 13.9827 25.6206C11.5099 25.6206 9.24321 24.9337 7.38864 23.6974C7.73208 23.766 8.07552 23.766 8.41896 23.766C10.4109 23.766 12.2655 23.0792 13.7766 21.9115C11.8534 21.9115 10.2735 20.6064 9.72403 18.8892C9.99878 18.9579 10.2735 18.9579 10.5483 18.9579C10.9604 18.9579 11.3039 18.8892 11.716 18.8205C9.72403 18.4084 8.28158 16.6912 8.28158 14.5619V14.4932C8.89978 14.8366 9.51797 15.0427 10.2048 15.0427C9.03715 14.2871 8.28158 12.982 8.28158 11.4709C8.28158 10.6466 8.48765 9.95976 8.89977 9.27288C11.0291 11.883 14.1888 13.6002 17.7605 13.8063C17.6918 13.4628 17.6231 13.1881 17.6231 12.8447C17.6231 10.4406 19.5464 8.51731 21.9505 8.51731C23.1869 8.51731 24.2859 9.06681 25.1101 9.89107C26.0718 9.68501 27.0334 9.34157 27.8577 8.86075C27.5142 9.89107 26.8273 10.7153 25.9344 11.2648C26.8273 11.1275 27.6516 10.9214 28.4072 10.5779C27.8577 11.4022 27.1021 12.1578 26.2778 12.776Z" fill="white"/>
</g>
<defs>
<clipPath id="clip0_489_750">
<rect width="34.1379" height="34.1379" fill="white" transform="translate(0.863281)"/>
</clipPath>
</defs>
</svg>
