<svg width="22" height="21" viewBox="0 0 22 21" fill="none" xmlns="http://www.w3.org/2000/svg">
<path d="M2.22121 16.1309C0.51372 17.8254 0.421875 20.914 0.421875 20.914C0.421875 20.914 3.5321 20.8228 5.24167 19.1283C6.95125 17.4338 7.65888 15.3893 6.82392 14.5627C5.98896 13.7341 3.9287 14.4364 2.22121 16.1309Z" fill="url(#paint0_linear_489_512)"/>
<path opacity="0.2" d="M5.84911 14.6287C6.1476 14.6287 6.37513 14.7053 6.52751 14.8544C7.10154 15.4241 6.59222 17.1994 4.94526 18.8359C3.75545 20.0166 1.77451 20.3646 0.876927 20.4641C0.977122 19.5733 1.32781 17.6075 2.51553 16.4267C3.61559 15.333 4.92439 14.6287 5.84911 14.6287ZM5.84911 14.2144C4.84507 14.2144 3.44234 14.9187 2.22121 16.1326C0.51372 17.8271 0.421875 20.9157 0.421875 20.9157C0.421875 20.9157 3.5321 20.8245 5.24167 19.13C6.95125 17.4355 7.65888 15.391 6.82392 14.5644C6.58596 14.3241 6.24989 14.2144 5.84911 14.2144Z" fill="#424242"/>
<path d="M2.73893 16.7273C1.66392 17.7941 1.60547 19.7372 1.60547 19.7372C1.60547 19.7372 3.56345 19.6792 4.63846 18.6123C5.71347 17.5455 6.16017 16.2571 5.63415 15.7371C5.10812 15.2172 3.81602 15.6584 2.73893 16.7273Z" fill="url(#paint1_linear_489_512)"/>
<path d="M4.94305 16.746C5.96588 17.8294 7.30807 17.7155 7.4187 17.5373L8.35386 16.0293C8.41022 15.9381 8.35803 15.7931 8.31837 15.7558L5.79471 13.2514C5.75505 13.212 5.61519 13.1664 5.52335 13.2224L4.00372 14.1504C3.82629 14.2602 3.6259 15.3477 4.94305 16.746Z" fill="#546E7A"/>
<path d="M11.8139 19.501C11.6052 19.6688 11.3255 19.6315 11.29 19.3829C11.1919 18.6952 11.2566 17.3135 10.384 16.4476C9.53238 15.6024 8.14844 15.4781 8.14844 15.4781L13.3586 12.9302C13.3586 12.9302 14.3397 14.432 13.799 16.5698C13.3481 18.3368 12.5779 18.8816 11.8139 19.501Z" fill="#0288D1"/>
<path opacity="0.2" d="M13.0663 13.765C13.1039 13.8665 13.1436 13.9825 13.1791 14.1109C13.321 14.6247 13.44 15.4429 13.1916 16.4165C12.8764 17.6636 12.4046 18.198 11.8515 18.6662C11.7805 17.8749 11.626 16.7977 10.8266 16.0064C10.5343 15.7163 10.192 15.4968 9.85593 15.3331L13.0663 13.765ZM13.3586 12.9302L8.14844 15.4781C8.14844 15.4781 9.53447 15.6045 10.384 16.4476C11.2566 17.3135 11.1919 18.6952 11.29 19.3829C11.3108 19.53 11.4194 19.6046 11.5467 19.6046C11.6344 19.6046 11.7304 19.5693 11.8139 19.501C12.5779 18.8816 13.3481 18.3368 13.7969 16.5698C14.3417 14.4299 13.3586 12.9302 13.3586 12.9302Z" fill="#424242"/>
<path d="M1.9077 9.96594C1.70314 10.1399 1.77619 10.4507 2.02668 10.4859C2.7197 10.5832 4.11199 10.519 4.98452 11.3849C5.83618 12.2301 6.01361 13.4274 6.01361 13.4274L8.53101 8.13887C8.53101 8.13887 7.19925 7.51949 5.26215 8.01873C3.92621 8.36467 2.60072 9.37349 1.9077 9.96594Z" fill="#0288D1"/>
<path opacity="0.2" d="M6.76298 8.44567C7.11158 8.44567 7.41217 8.48296 7.65013 8.52853L6.08458 11.8222C5.91759 11.526 5.70259 11.2215 5.42496 10.948C4.68394 10.2127 3.69869 10.0283 2.92218 9.94958C3.5964 9.43999 4.51277 8.85583 5.41453 8.62175C5.8654 8.50367 6.31837 8.44567 6.76298 8.44567ZM6.76298 7.82422C6.32254 7.82422 5.81531 7.87601 5.26006 8.01894C3.92413 8.36488 2.60072 9.3737 1.9077 9.96615C1.70314 10.1402 1.77619 10.4509 2.02668 10.4861C2.7197 10.5835 4.11199 10.5192 4.98452 11.3851C5.83618 12.2303 6.01361 13.4276 6.01361 13.4276L8.52892 8.13909C8.52892 8.13909 7.85261 7.82422 6.76298 7.82422Z" fill="#424242"/>
<path opacity="0.2" d="M5.58332 13.9183L7.65402 15.9732L7.00066 17.0276C6.97979 17.0297 6.95683 17.0297 6.93178 17.0297C6.7293 17.0297 6.02376 16.9779 5.40172 16.3191C4.61477 15.4843 4.49161 14.8318 4.50205 14.577L5.58332 13.9183ZM5.62716 13.1953C5.59167 13.1953 5.55619 13.2036 5.52488 13.2202L4.00525 14.1482C3.82573 14.258 3.62534 15.3455 4.94249 16.7438C5.61255 17.4543 6.42037 17.6511 6.92969 17.6511C7.19688 17.6511 7.38057 17.5973 7.41814 17.5351L8.3533 16.0271C8.40966 15.9359 8.35747 15.7909 8.31781 15.7536L5.79624 13.2512C5.77119 13.2264 5.70022 13.1953 5.62716 13.1953Z" fill="#424242"/>
<path d="M15.1406 1.23242C15.986 1.61772 17.1257 2.2806 18.2132 3.35986C18.5973 3.74101 18.925 4.13045 19.2089 4.51161C19.7579 5.24699 20.1336 5.94923 20.38 6.49818C19.831 7.92959 18.7956 9.59508 17.7832 10.5998C13.6481 14.7034 9.08088 17.0463 6.71795 15.387C6.58018 15.2896 6.4445 15.2006 6.32134 15.0908C4.29448 13.2824 6.61567 8.10567 10.8322 3.92123C11.8905 2.87098 13.6544 1.79794 15.1406 1.23242Z" fill="url(#paint2_radial_489_512)"/>
<path d="M14.0414 9.01931C15.0674 9.01931 15.8992 8.19388 15.8992 7.17567C15.8992 6.15746 15.0674 5.33203 14.0414 5.33203C13.0154 5.33203 12.1836 6.15746 12.1836 7.17567C12.1836 8.19388 13.0154 9.01931 14.0414 9.01931Z" fill="#455A64"/>
<path opacity="0.2" d="M14.0396 5.74633C14.4236 5.74633 14.7868 5.89548 15.0582 6.16478C15.3296 6.43407 15.4799 6.79451 15.4799 7.17567C15.4799 7.55683 15.3296 7.91727 15.0582 8.18656C14.7868 8.45586 14.4236 8.60501 14.0396 8.60501C13.6555 8.60501 13.2923 8.45586 13.0209 8.18656C12.4594 7.62933 12.4594 6.72201 13.0209 6.16478C13.2923 5.89548 13.6534 5.74633 14.0396 5.74633ZM14.0396 5.33203C13.5636 5.33203 13.0877 5.51225 12.7245 5.87269C11.9981 6.59358 11.9981 7.75983 12.7245 8.48072C13.0877 8.84116 13.5636 9.02138 14.0396 9.02138C14.5155 9.02138 14.9914 8.84116 15.3546 8.48072C16.081 7.75983 16.081 6.59358 15.3546 5.87269C14.9914 5.51225 14.5155 5.33203 14.0396 5.33203Z" fill="#424242"/>
<path d="M10.2115 12.547C10.9539 12.547 11.5558 11.9497 11.5558 11.213C11.5558 10.4762 10.9539 9.87891 10.2115 9.87891C9.46904 9.87891 8.86719 10.4762 8.86719 11.213C8.86719 11.9497 9.46904 12.547 10.2115 12.547Z" fill="#455A64"/>
<path d="M15.1399 1.23247C14.7537 3.12375 18.1186 6.8276 20.3793 6.49823C21.0827 4.69395 21.3708 3.46969 21.5628 1.36298C21.6609 0.296151 21.3457 -0.00835964 20.35 0.107645C17.7095 0.414227 16.6658 0.613091 15.1399 1.23247Z" fill="#E53935"/>
<path opacity="0.2" d="M20.7077 0.706412C20.8329 0.706412 20.8955 0.720912 20.9185 0.729198C20.9352 0.766485 20.977 0.911491 20.9415 1.30715C20.7557 3.34758 20.4885 4.50762 19.7976 6.27668C19.2674 7.65423 18.2571 9.25136 17.3407 10.1608C14.1449 13.3322 10.7884 15.3043 8.57991 15.3043C7.985 15.3043 7.47985 15.1614 7.07907 14.8796L7.01018 14.832C6.90373 14.7595 6.81397 14.6953 6.73882 14.629C6.40066 14.3265 6.22115 13.8646 6.20445 13.2556C6.146 11.0391 8.22922 7.38079 11.2726 4.36054C12.2266 3.41387 13.909 2.36569 15.3619 1.81467L15.3744 1.80845C16.8502 1.20979 17.8772 1.02128 20.4196 0.725056C20.5303 0.712627 20.6263 0.706412 20.7077 0.706412ZM20.7077 0.0849609C20.5991 0.0849609 20.4822 0.0932471 20.3507 0.107748C17.7102 0.41433 16.6665 0.613194 15.1406 1.23257C13.6544 1.79602 11.8905 2.86906 10.8322 3.91931C6.61567 8.10375 4.29448 13.2804 6.32134 15.0889C6.44241 15.1966 6.57809 15.2877 6.71795 15.3851C7.2398 15.7517 7.87019 15.9237 8.57991 15.9237C11.0806 15.9237 14.5624 13.7962 17.7853 10.5999C18.7977 9.59523 19.8331 7.92974 20.382 6.49833C21.0855 4.69405 21.3736 3.4698 21.5656 1.36308C21.647 0.437117 21.4216 0.0849609 20.7077 0.0849609Z" fill="#424242"/>
<path opacity="0.2" d="M10.2099 10.2932C10.4583 10.2932 10.69 10.3885 10.8653 10.5625C11.0407 10.7365 11.1367 10.9664 11.1367 11.213C11.1367 11.4595 11.0407 11.6894 10.8653 11.8634C10.69 12.0374 10.4583 12.1327 10.2099 12.1327C9.96151 12.1327 9.7298 12.0374 9.55446 11.8634C9.37912 11.6894 9.2831 11.4595 9.2831 11.213C9.2831 10.9664 9.37912 10.7365 9.55446 10.5625C9.73189 10.3885 9.96359 10.2932 10.2099 10.2932ZM10.2099 9.87891C9.86548 9.87891 9.52315 10.0094 9.26014 10.2704C8.7362 10.7904 8.7362 11.6355 9.26014 12.1555C9.52315 12.4165 9.86548 12.547 10.2099 12.547C10.5543 12.547 10.8967 12.4165 11.1597 12.1555C11.6836 11.6355 11.6836 10.7904 11.1597 10.2704C10.8987 10.0094 10.5543 9.87891 10.2099 9.87891Z" fill="#424242"/>
<defs>
<linearGradient id="paint0_linear_489_512" x1="7.17126" y1="17.5639" x2="0.419788" y2="17.5639" gradientUnits="userSpaceOnUse">
<stop stop-color="#FF6D00"/>
<stop offset="0.2487" stop-color="#FF9B00"/>
<stop offset="0.5135" stop-color="#FFC600"/>
<stop offset="0.721" stop-color="#FFE000"/>
<stop offset="0.8439" stop-color="#FFEA00"/>
</linearGradient>
<linearGradient id="paint1_linear_489_512" x1="4.88164" y1="16.4509" x2="1.4138" y2="20.0516" gradientUnits="userSpaceOnUse">
<stop offset="0.0044475" stop-color="#C62828"/>
<stop offset="0.2711" stop-color="#D75327"/>
<stop offset="0.5983" stop-color="#E98126"/>
<stop offset="0.8504" stop-color="#F59D25"/>
<stop offset="0.9953" stop-color="#F9A825"/>
</linearGradient>
<radialGradient id="paint2_radial_489_512" cx="0" cy="0" r="1" gradientUnits="userSpaceOnUse" gradientTransform="translate(14.7002 4.1346) rotate(180) scale(7.61336 7.55539)">
<stop offset="0.0112" stop-color="#F5F5F5"/>
<stop offset="0.9995" stop-color="#BDBDBD"/>
</radialGradient>
</defs>
</svg>
