<svg width="35" height="35" viewBox="0 0 35 35" fill="none" xmlns="http://www.w3.org/2000/svg">
<path d="M17.5182 0C8.09185 0 0.449219 7.64263 0.449219 17.069C0.449219 26.4953 8.09185 34.1379 17.5182 34.1379C26.9445 34.1379 34.5872 26.4953 34.5872 17.069C34.5872 7.64052 26.9445 0 17.5182 0ZM13.2509 25.3367H8.9837V10.4014H13.2509V25.3367ZM11.2496 9.48607C10.1444 9.48607 9.25041 8.58993 9.25041 7.48471C9.25041 6.37949 10.1465 5.48336 11.2496 5.48336C12.3548 5.48546 13.2509 6.3816 13.2509 7.48471C13.2509 8.58993 12.3548 9.48607 11.2496 9.48607ZM28.1863 25.3367H23.919V16.1024C23.919 15.0207 23.6096 14.2633 22.2804 14.2633C20.0763 14.2633 19.6518 16.1024 19.6518 16.1024V25.3367H15.3845V10.4014H19.6518V11.8287C20.262 11.3615 21.7854 10.4035 23.919 10.4035C25.3016 10.4035 28.1863 11.2313 28.1863 16.2325V25.3367Z" fill="white"/>
</svg>
