<svg width="216" height="190" viewBox="0 0 216 190" fill="none" xmlns="http://www.w3.org/2000/svg">
<mask id="mask0_310_1412" style="mask-type:alpha" maskUnits="userSpaceOnUse" x="0" y="19" width="203" height="165">
<path fill-rule="evenodd" clip-rule="evenodd" d="M0 19.9727H202.944V183.128H0V19.9727Z" fill="white"/>
</mask>
<g mask="url(#mask0_310_1412)">
<path fill-rule="evenodd" clip-rule="evenodd" d="M142.385 25.1022C130.601 24.7127 118.697 24.8367 106.831 24.9414C94.9654 25.0906 83.1055 25.4375 71.2787 26.1196C62.6454 26.6196 54.0452 27.4374 45.5011 28.4257C37.9763 29.3093 30.4631 30.4101 23.2116 32.2045C19.6091 33.1134 16.0182 34.1889 12.8653 35.7644C11.2898 36.5415 9.8732 37.4872 8.80736 38.5336L8.19112 39.3456C7.97214 39.6227 7.97214 39.8436 7.81905 40.1382L7.49542 41.3397L7.23575 42.6594C6.58462 46.2444 6.2513 50.0524 5.95481 53.8177C5.66025 57.5965 5.46646 61.3967 5.31337 65.1988C5.01494 72.8069 4.90448 80.4325 4.93355 88.058C5.00525 101.592 5.5963 115.208 6.75128 128.575C7.48573 137.164 8.50506 145.739 9.8325 154.24C11.1561 162.736 12.7413 171.189 15.1287 179.311C16.772 184.254 15.3923 184.204 12.6095 180.272C9.8887 176.326 6.58849 168.193 4.92773 158.209C2.08293 140.524 0.811685 122.771 0.257452 104.987C-0.225079 87.1957 -0.133999 69.3866 1.44537 51.4418C1.7283 48.7482 1.9841 46.0565 2.43756 43.295C2.6643 41.9075 2.90265 40.5316 3.34643 39.0065C3.57316 38.2701 4.00724 37.1326 4.54985 36.5318L5.35407 35.4718L6.25324 34.6308C8.70272 32.4758 11.3789 31.2763 14.0338 30.1795C16.7042 29.1524 19.3998 28.3327 22.1109 27.6331C32.9552 24.8968 43.9624 23.5539 54.8726 22.5113C78.8732 20.3757 102.918 19.992 126.917 19.9727C134.312 19.9843 141.721 20.1006 149.133 20.4843C156.545 20.8931 163.969 21.4842 171.358 22.9454C174.153 23.5209 176.947 24.2321 179.695 25.3348C181.061 25.9122 182.433 26.5421 183.718 27.4916C184.995 28.4683 186.193 29.6194 186.966 30.8538C188.714 33.2878 189.983 35.9175 191.039 38.586C192.142 41.2447 192.96 43.9713 193.756 46.696C196.721 57.643 198.256 68.78 199.469 79.8414C201.297 97.0517 202.316 113.977 202.744 131.063C202.826 134.825 202.94 138.507 202.944 142.303C202.932 156.372 202.361 160.849 200.952 163.815C200.626 164.49 200.293 165.383 199.977 165.769C198.884 167.067 198.334 161.339 198.202 151.103C197.989 135.918 197.56 120.324 196.613 104.569C195.628 88.837 194.293 72.8437 191.22 57.3214C190.038 51.5911 188.654 45.8666 186.544 40.6324C185.517 38.0124 184.278 35.4989 182.759 33.4777C182.408 32.9022 181.982 32.5766 181.606 32.158C181.422 32.0069 181.243 31.848 181.069 31.6832L180.393 31.2201C179.414 30.6155 178.248 30.069 176.988 29.6078C171.866 27.7939 165.965 26.949 160.15 26.3192C154.295 25.7126 148.36 25.4006 142.41 25.2262L142.385 25.1022Z" fill="#6D4D8E"/>
</g>
<path fill-rule="evenodd" clip-rule="evenodd" d="M139.55 125.513C137.885 124.829 136.188 124.176 134.519 123.858C133.384 123.606 133.591 123.631 133.296 123.564C133.044 123.496 132.969 123.775 132.899 123.965C132.872 124.091 132.874 124.009 132.841 124.376C132.808 124.68 132.796 125.005 132.787 125.333L132.738 127.331C132.605 132.141 132.872 137.14 133.31 142.076C133.517 144.27 133.88 146.458 134.294 148.599L135.18 152.707C135.438 154.079 135.604 155.469 135.746 156.843C135.827 157.69 135.091 157.833 134.103 157.323C133.13 156.812 131.862 155.641 131.335 154.046C129.901 148.318 129.047 142.545 128.853 136.625C128.801 133.079 128.26 129.455 128.37 125.699C128.401 125.174 128.415 124.662 128.477 124.118C128.51 123.889 128.516 123.523 128.603 123.106C128.684 122.717 128.733 122.314 128.837 121.94C129.056 121.194 129.324 120.478 129.824 119.955C130.289 119.355 131.023 119.139 131.795 119.227L134.044 119.238C134.696 119.296 135.118 119.453 135.664 119.556C136.717 119.752 137.682 120.118 138.672 120.428C141.048 121.304 143.342 122.288 145.522 123.432C148.854 125.124 151.981 127.129 155.117 128.994C157.555 130.441 160.076 131.666 162.535 132.949C163.076 133.228 163.63 133.453 164.159 133.753C165.145 134.278 165.721 134.722 166 135.245C166.291 135.732 166.333 136.255 166.233 136.954C166.186 137.274 166.176 137.607 166.099 137.902C165.868 138.877 164.556 139.214 162.816 138.689C157.96 136.724 153.722 133.761 149.35 131.053C146.123 129.042 142.877 127.056 139.513 125.62L139.55 125.513Z" fill="#231F20"/>
<path fill-rule="evenodd" clip-rule="evenodd" d="M157.46 148.629C159.776 150.904 162.159 153.133 164.626 155.27C165.524 156.055 166.52 156.708 167.423 157.483C170.607 160.222 173.878 162.867 177.263 165.343C178.763 166.44 180.368 167.396 181.976 168.252C184.044 169.285 186.189 170.396 188.02 171.132C188.515 171.333 188.623 172.155 187.829 172.924C187.013 173.709 185.35 174.165 183.889 173.731C181.273 172.99 179.025 171.773 176.856 170.463C174.68 169.165 172.653 167.663 170.771 165.969C168.508 163.968 165.867 162.313 163.485 160.386C160.869 158.272 158.336 156.057 155.852 153.79C154.319 152.4 152.83 150.957 151.338 149.525C149.083 147.343 146.934 145.036 144.757 142.783C143.075 141.019 141.256 139.419 139.635 137.471C139.269 137.056 138.899 136.632 138.579 136.149C138.263 135.723 138.066 135.308 137.969 134.921C137.866 134.541 137.781 134.241 137.831 133.938C138.002 133.283 138.285 132.867 138.698 132.485C138.889 132.312 139.056 132.121 139.238 132.004C139.548 131.807 139.918 131.853 140.403 132.006C140.868 132.173 141.554 132.359 141.98 132.832C144.606 135.554 147.484 138.68 150.544 141.742C152.805 144.027 155.131 146.321 157.538 148.534L157.46 148.629Z" fill="#231F20"/>
<path fill-rule="evenodd" clip-rule="evenodd" d="M110.497 127.186C110.987 127.151 111.103 127.932 110.685 128.813C110.555 129.1 109.904 129.767 109.753 129.825C109.46 129.939 109.179 130.05 108.976 130.129C108.85 130.153 107.014 129.806 106.264 129.802C105.598 129.767 104.962 129.612 104.348 129.422C103.079 129.062 101.823 128.635 100.534 128.292C100.249 128.211 99.9838 128.071 99.728 127.897C98.8559 127.279 97.8695 126.996 96.858 126.843C96.6913 126.814 96.5285 126.748 96.327 126.883C95.9917 127.089 93.3349 126.529 93.0229 126.354C92.2323 125.88 91.428 125.465 90.6141 125.038C90.4959 124.975 90.3603 125.019 90.275 124.798C90.0754 124.283 89.7983 124.333 89.5367 124.256C89.1724 124.101 88.8158 124.046 88.4592 123.756C88.2829 123.624 88.1065 123.337 87.9205 123.126C87.7519 122.932 87.843 122.411 87.9069 122.341C88.0871 122.167 87.9437 121.889 87.9263 121.661C87.9205 121.583 87.9147 121.481 87.9244 121.415C87.9321 121.382 88.5387 120.878 89.2286 120.512C89.901 120.159 90.6219 119.909 90.7575 119.917C90.7905 119.915 91.7071 119.895 92.6799 119.876C93.6333 119.886 94.6197 119.992 94.8251 119.979C95.0383 119.975 95.2185 120.138 95.4065 120.252C95.5015 120.285 98.3036 120.562 98.4083 120.612C98.9489 120.822 99.5555 120.802 99.9876 121.374C100.073 121.486 100.191 121.498 100.304 121.523C101.267 121.738 102.158 122.192 103.055 122.612C103.515 122.818 104.007 122.936 104.482 123.108C104.565 123.139 104.631 123.23 104.706 123.289C104.801 123.36 104.889 123.453 104.999 123.488C106.14 123.849 107.131 124.589 108.305 124.951C108.574 125.035 109.58 126.095 109.9 126.217C110.08 126.265 110.303 127.193 110.497 127.186Z" fill="#231F20"/>
<path fill-rule="evenodd" clip-rule="evenodd" d="M123.351 110.495C123.793 110.526 123.468 110.9 123.284 111.975C123.218 112.307 122.849 113.196 122.66 113.248C122.307 113.357 121.88 113.417 121.506 113.39C121.284 113.396 119.173 112.264 118.565 111.909C117.9 111.564 117.383 111.099 116.894 110.611C115.9 109.619 114.912 108.646 113.962 107.632C113.753 107.408 113.592 107.144 113.472 106.848C113.046 105.848 112.441 104.997 111.716 104.228C111.598 104.098 111.517 103.935 111.265 103.91C110.844 103.881 109.139 101.553 109.058 101.141C108.945 100.646 108.8 100.183 108.66 99.7123C108.556 99.2124 108.453 98.7279 108.344 98.2202C108.315 98.0806 108.193 97.9702 108.321 97.7493C108.622 97.2357 108.416 97.0148 108.323 96.7241C108.197 96.2978 108.116 95.8288 108.207 95.3095C108.28 94.9859 108.478 94.6661 108.662 94.4103C108.827 94.1836 109.236 94.2514 109.325 94.2902C109.532 94.4239 109.73 94.2495 109.908 94.2146C109.972 94.201 110.054 94.1836 110.114 94.1816C110.218 94.234 110.792 94.325 111.441 94.5867C111.96 94.8115 112.6 95.137 112.637 95.2107C112.637 95.2107 113.164 95.7765 113.751 96.3366C114.307 96.9295 114.863 97.571 115.009 97.6814C115.156 97.7997 115.16 98.0186 115.205 98.2105C115.214 98.3054 117.013 100.046 117.063 100.129C117.323 100.575 117.794 100.862 117.739 101.546C117.731 101.681 117.815 101.747 117.885 101.825C118.468 102.487 118.832 103.328 119.288 104.098C119.518 104.493 119.836 104.823 120.109 105.177C120.16 105.243 120.16 105.348 120.189 105.431C120.224 105.534 120.243 105.652 120.309 105.729C121.003 106.536 121.512 107.52 122.334 108.163C122.514 108.332 122.937 109.473 123.171 109.609C123.297 109.71 123.177 110.485 123.351 110.495Z" fill="#231F20"/>
<path fill-rule="evenodd" clip-rule="evenodd" d="M143.151 105.955C143.438 106.123 142.965 106.253 142.105 106.834C141.833 107.011 140.967 107.379 140.804 107.311C140.49 107.191 140.173 107.018 139.923 106.792C139.818 106.695 139.609 106.158 139.388 105.48C139.211 104.864 139.047 104.147 138.981 103.819C138.812 103.133 138.863 102.513 138.932 101.885C139.122 100.649 139.355 99.4433 139.669 98.2845C139.739 98.0248 139.857 97.7806 140.027 97.5577C140.616 96.7962 140.919 95.9571 141.143 95.0773C141.178 94.93 141.26 94.7963 141.155 94.5967C140.959 94.2653 141.891 91.9631 142.172 91.7364C142.81 91.1569 143.353 90.5349 143.973 89.9632C144.058 89.8818 144.056 89.7384 144.294 89.7539C144.849 89.7927 144.891 89.5388 145.056 89.3489C145.306 89.1047 145.603 88.878 145.951 88.7036C146.126 88.6144 146.445 88.6338 146.711 88.6261C146.951 88.6183 147.44 89.0698 147.475 89.1532C147.569 89.3954 147.893 89.4826 148.124 89.6338C148.203 89.6842 148.306 89.752 148.364 89.8024C148.428 89.8566 148.494 90.4341 148.597 91.0097C148.738 91.622 148.757 92.1569 148.705 92.2286C148.705 92.2286 148.471 92.8313 148.25 93.4436C148.044 94.0754 147.835 94.7304 147.821 94.8796C147.802 95.0327 147.635 95.118 147.509 95.2207C147.436 95.2672 147 97.2361 146.971 97.3058C146.767 97.6663 146.781 98.1081 146.238 98.3445C146.133 98.393 146.126 98.4782 146.104 98.5596C145.92 99.2456 145.541 99.858 145.229 100.503C145.068 100.831 145.035 101.189 144.928 101.53C144.911 101.592 144.833 101.639 144.789 101.695C144.73 101.763 144.657 101.829 144.645 101.906C144.504 102.722 144.048 103.497 144.126 104.276C144.112 104.464 143.587 105.222 143.641 105.422C143.676 105.497 143.037 105.863 143.151 105.955Z" fill="#231F20"/>
<path fill-rule="evenodd" clip-rule="evenodd" d="M35.0921 54.011C36.3439 54.3153 37.4776 55.1505 37.9931 56.5283C40.241 62.5493 30.071 62.9039 30.1292 57.5341C30.1621 54.6544 32.8189 53.4587 35.0921 54.011Z" fill="#ED1818"/>
<path fill-rule="evenodd" clip-rule="evenodd" d="M50.553 52.3553C51.8049 52.6595 52.9385 53.4947 53.454 54.8726C55.7019 60.8955 45.532 61.2501 45.5901 55.8783C45.623 52.9986 48.2799 51.803 50.553 52.3553Z" fill="#F3C213"/>
<path fill-rule="evenodd" clip-rule="evenodd" d="M66.0061 50.7001C67.258 51.0044 68.3936 51.8396 68.9071 53.2174C71.1551 59.2384 60.9851 59.5931 61.0432 54.2232C61.0762 51.3435 63.7349 50.1459 66.0061 50.7001Z" fill="#096D1F"/>
<path fill-rule="evenodd" clip-rule="evenodd" d="M114.082 186.549C106.075 186.808 98.0655 186.99 90.0582 187.12C87.1359 187.167 84.2175 187.328 81.2971 187.339C70.9973 187.39 60.6994 187.219 50.4112 187.002C45.8475 186.909 41.2547 186.903 36.7298 186.915C33.8288 186.946 30.9181 186.973 28.0113 187.002C25.151 187.05 22.1473 186.944 19.5641 187.085C19.2308 187.13 18.9343 187.089 18.8626 187C18.7308 186.905 18.5738 186.767 18.4711 186.593C18.2289 186.277 18.351 185.556 19.13 184.884C20.6144 183.562 23.5852 182.479 26.959 182.46C38.9119 182.473 50.6883 182.868 62.6508 183.332C69.7958 183.622 77.2334 183.322 84.5411 183.208C92.5794 183.087 100.622 182.915 108.662 182.651C113.609 182.493 118.561 182.308 123.502 182.066C130.992 181.714 138.517 181.318 145.937 180.731C151.704 180.252 157.335 179.524 163.017 178.859C164.267 178.706 165.494 178.555 166.754 178.4C171.435 177.915 172.951 178.061 174.059 179.07C174.311 179.301 174.637 179.524 174.794 179.764C175.321 180.574 173.47 181.444 170.052 181.998C159.911 183.644 149.138 184.62 138.307 185.361C130.265 185.903 122.173 186.299 114.098 186.651L114.082 186.549Z" fill="#231F20"/>
<path fill-rule="evenodd" clip-rule="evenodd" d="M110.884 189.076C103.97 189.312 97.0532 189.508 90.1389 189.649L82.5715 189.839C73.6786 189.928 64.7837 189.882 55.8966 189.756C51.9511 189.735 47.9882 189.715 44.0736 189.694C39.0487 189.702 33.9967 189.769 29.0105 189.56C25.875 189.456 29.8051 186.93 35.64 186.977C45.9166 187.062 56.135 187.275 66.4736 187.522C72.6515 187.682 79.0833 187.456 85.4047 187.337C92.3539 187.211 99.307 187.039 106.258 186.787C110.537 186.661 114.814 186.452 119.087 186.258C125.561 185.94 132.067 185.611 138.483 185.121C143.469 184.723 148.349 184.231 153.267 183.696C154.349 183.58 155.41 183.464 156.501 183.345C160.552 182.971 161.856 183.031 162.786 183.621C162.997 183.754 163.27 183.882 163.4 184.024C163.834 184.502 162.214 185.059 159.253 185.454C150.471 186.646 141.161 187.413 131.805 188.025C124.858 188.49 117.868 188.812 110.896 189.136L110.884 189.076Z" fill="#231F20"/>
<path fill-rule="evenodd" clip-rule="evenodd" d="M181.481 4.81588C181.386 5.4205 181.194 6.02512 181.078 6.62199C181.034 6.83903 181.107 7.05219 181.047 7.27117C180.84 8.03857 180.574 8.8021 180.398 9.55787C180.32 9.89312 180.353 10.2284 180.41 10.5617C180.481 10.9861 180.735 11.4144 180.324 11.8407C180.072 12.1062 176.514 11.769 176.435 11.2903C176.319 10.4377 176.416 9.59081 176.908 8.72264C177.204 8.20329 176.999 7.67231 177.045 7.14715C177.117 6.57548 177.189 5.98636 177.261 5.40694C177.315 5.05037 177.379 4.68992 177.404 4.33335C177.445 3.79269 177.538 3.24233 177.441 2.71523C177.354 2.30633 177.09 1.9207 176.914 1.52731C176.875 1.4401 176.795 1.36065 176.811 1.26763C176.801 1.10098 176.918 0.978889 177.183 0.872306C177.416 0.771536 177.706 0.695959 178.102 0.616506L178.617 0.513799C179.148 0.424656 179.735 0.504109 180.288 0.705648C181.307 1.37228 181.567 2.1765 181.617 2.98847C181.669 3.59308 181.605 4.20545 181.586 4.81007L181.481 4.81588Z" fill="#231F20"/>
<path fill-rule="evenodd" clip-rule="evenodd" d="M209.253 19.5799C208.178 19.9772 207.098 20.3725 206.029 20.7659C205.633 20.9073 205.286 21.1476 204.883 21.2755C203.457 21.7193 202.007 22.1689 200.591 22.6088C199.965 22.8181 199.362 23.0933 198.779 23.3839C198.027 23.7541 197.3 24.2269 196.391 24.2153C195.841 24.223 195.517 21.4965 196.289 21.0372C197.709 20.2601 199.155 19.5528 200.804 19.14C201.796 18.9036 202.62 18.2292 203.531 17.7622C204.529 17.2389 205.585 16.8049 206.625 16.3262C207.269 16.0336 207.914 15.741 208.552 15.4503C209.517 14.991 210.513 14.5705 211.443 14.0434C212.177 13.6597 212.747 12.9679 213.48 12.5648C213.635 12.4679 213.788 12.371 213.966 12.3129C214.627 12.1113 214.949 12.2954 215.435 13.0454C215.547 13.2159 215.666 13.3787 215.761 13.5512C216.082 14.1286 216.069 14.7701 215.78 15.2778C214.98 16.8998 213.716 17.5897 212.396 18.3067C211.398 18.7912 210.342 19.202 209.304 19.669L209.253 19.5799Z" fill="#231F20"/>
<path fill-rule="evenodd" clip-rule="evenodd" d="M136.811 35.6856C126.646 35.3503 116.382 35.4608 106.148 35.5538C95.9137 35.6856 85.6855 35.9859 75.4846 36.577C68.0392 37.0111 60.621 37.7126 53.2513 38.5672C46.7594 39.3307 40.2791 40.2822 34.0217 41.8325C30.9134 42.6174 27.8128 43.5475 25.0881 44.9118C23.7239 45.5823 22.4972 46.402 21.5709 47.3128L21.0322 48.024C20.8422 48.2663 20.8364 48.4639 20.7027 48.7236C20.5109 49.3999 20.3326 50.1131 20.2008 50.9037C19.1524 57.1708 18.8385 63.8216 18.5478 70.3503C18.292 76.912 18.197 83.4891 18.2242 90.0663C18.2881 101.736 18.7978 113.48 19.79 125.008C20.4217 132.417 21.2996 139.813 22.4429 147.146C23.5843 154.475 24.9525 161.768 27.0202 168.773C28.4445 173.04 27.2857 172.978 24.9215 169.577C22.6115 166.165 19.7997 159.148 18.3695 150.544C15.9181 135.3 14.8213 119.993 14.3387 104.66C13.9201 89.3202 13.9938 73.9644 15.3445 58.4944C15.5867 56.1728 15.8076 53.8532 16.1952 51.4734C16.389 50.2797 16.5964 49.0937 16.9762 47.7857C17.1719 47.1539 17.5382 46.185 18.0033 45.6695L18.6912 44.7645L19.4625 44.0436C21.5612 42.1949 23.8653 41.1601 26.1501 40.2163C28.4484 39.3307 30.7719 38.6273 33.1051 38.0226C42.4534 35.6623 51.9432 34.5073 61.3497 33.6062C82.0404 31.7614 102.776 31.4261 123.47 31.4067C129.848 31.4164 136.235 31.5153 142.626 31.8447C149.015 32.1955 155.418 32.7032 161.784 33.9628C164.193 34.457 166.602 35.0693 168.966 36.0189C170.142 36.5169 171.322 37.0576 172.425 37.8734C173.522 38.7125 174.551 39.6989 175.217 40.7628C176.721 42.8557 177.816 45.1211 178.725 47.4194C179.674 49.71 180.38 52.0606 181.066 54.4074C183.624 63.8429 184.947 73.447 185.992 82.9833C187.566 97.8236 188.436 112.42 188.798 127.151C188.868 130.395 188.963 133.57 188.965 136.843C188.955 148.974 188.471 152.834 187.294 155.392C187.021 155.975 186.744 156.747 186.478 157.08C185.568 158.2 185.116 153.26 185.011 144.433C184.841 131.335 184.48 117.888 183.667 104.298C182.82 90.729 181.671 76.9352 179.018 63.5406C177.998 58.5951 176.804 53.6536 174.981 49.1306C174.091 46.8671 173.024 44.6928 171.704 42.939C171.4 42.441 171.026 42.1561 170.7 41.7899L170.227 41.3732L169.638 40.9682C168.786 40.4431 167.772 39.9663 166.683 39.5671C162.249 37.9994 157.158 37.2727 152.139 36.7301C147.085 36.2069 141.963 35.9394 136.834 35.7883L136.811 35.6856Z" fill="#6D4D8E"/>
<path fill-rule="evenodd" clip-rule="evenodd" d="M111.741 175.821L91.3837 175.914L83.9597 176.032C75.2335 176.05 66.5033 175.825 57.7771 175.715C53.9033 175.624 50.012 175.666 46.1653 175.622C41.2257 175.637 36.2492 175.593 31.3173 174.878C28.2613 174.486 32.3211 172.761 37.9371 172.585C47.9501 172.626 57.998 172.593 68.1408 172.818C74.2083 172.942 80.5219 172.663 86.727 172.589L107.212 172.32C111.416 172.246 115.619 172.172 119.818 172.099C126.182 171.955 132.577 171.858 138.889 171.593C143.797 171.38 148.601 170.979 153.452 170.663C154.52 170.595 155.564 170.488 156.644 170.473C160.643 170.428 161.93 170.812 162.808 171.573C163.008 171.754 163.269 171.928 163.387 172.101C163.785 172.674 162.169 173.263 159.262 173.761C150.623 174.963 141.47 175.234 132.283 175.517C125.455 175.649 118.597 175.781 111.751 175.91L111.741 175.821Z" fill="#231F20"/>
<path fill-rule="evenodd" clip-rule="evenodd" d="M13.5663 121.803C13.171 115.718 12.8842 109.633 12.642 103.548C12.5489 101.327 12.3183 99.114 12.268 96.8951C12.1052 89.0622 12.1497 81.2235 12.3978 73.3829C12.5276 69.9025 12.516 66.4046 12.609 62.93C12.7718 58.467 12.5858 53.9421 14.3589 49.3862C14.9616 47.9405 16.1185 48.706 17.0758 50.1322C17.9924 51.5217 18.9614 53.6417 18.723 56.0156C18.0118 64.6121 18.0545 73.5844 17.4363 82.5917C17.0991 87.9964 17.5719 93.6104 17.7657 99.1353C17.9731 105.213 18.223 111.299 18.5874 117.377C18.8025 121.117 19.0602 124.859 19.3838 128.587C19.8877 134.236 20.3101 139.928 21.1531 145.485C21.8101 149.803 22.7674 153.991 23.839 158.111C24.0677 159.025 24.3564 159.888 24.6122 160.781C25.0715 162.432 25.3641 163.514 25.4397 164.26C25.4765 165.074 25.2672 165.593 25.0095 166.163C24.8952 166.422 24.839 166.736 24.7459 166.934C24.5832 167.265 24.2266 167.213 23.4669 166.773C23.0348 166.558 22.7073 166.194 22.3624 165.752C21.9787 165.308 21.6822 164.725 21.4109 164.097C19.7578 160.304 18.7211 156.372 17.7657 152.369C16.8433 148.363 16.0991 144.28 15.4713 140.183C14.4791 134.104 13.9307 127.953 13.4346 121.822L13.5663 121.803Z" fill="#6D4D8E"/>
</svg>
