<svg width="197" height="175" viewBox="0 0 197 175" fill="none" xmlns="http://www.w3.org/2000/svg">
<path fill-rule="evenodd" clip-rule="evenodd" d="M6.33628 157.239C6.20621 157.411 6.07448 157.579 5.93775 157.744C5.87938 157.815 5.81769 157.885 5.75766 157.953C5.72597 157.99 5.5142 158.233 5.67595 158.046C5.84103 157.858 5.60091 158.121 5.56756 158.155C5.51087 158.211 5.45417 158.266 5.39581 158.321C5.28576 158.426 5.17237 158.528 5.05731 158.628C4.62876 158.998 4.16854 159.325 3.70998 159.659C2.50605 160.533 1.46553 161.558 0.591769 162.769C0.421685 163.004 0.383332 163.306 0.590101 163.531C0.815213 163.779 1.31212 163.849 1.61561 163.848C2.47103 163.844 3.60826 163.554 4.14186 162.815C4.39532 162.467 4.65878 162.125 4.94392 161.801C4.97394 161.766 5.00562 161.731 5.03563 161.696C5.13902 161.583 5.11734 161.608 4.9706 161.766C5.03563 161.728 5.09733 161.635 5.15069 161.581C5.26408 161.466 5.38247 161.355 5.50253 161.245C5.93274 160.851 6.40131 160.503 6.87321 160.161C8.01544 159.334 9.03261 158.42 9.88636 157.288C10.0615 157.056 10.0915 156.746 9.88803 156.524C9.66292 156.277 9.16601 156.205 8.86252 156.207C7.99209 156.21 6.88988 156.507 6.33628 157.239Z" fill="#231F20"/>
<path fill-rule="evenodd" clip-rule="evenodd" d="M12.5326 122.476C10.7133 124.889 8.3255 126.806 6.31117 129.046C5.73088 129.689 6.81809 129.831 7.25497 129.801C7.76689 129.766 8.28715 129.661 8.76405 129.471C9.13757 129.322 9.55944 129.151 9.83458 128.846C11.8489 126.606 14.2368 124.689 16.056 122.276C16.1994 122.086 16.3278 121.887 16.1093 121.694C15.8892 121.497 15.364 121.504 15.1105 121.52C14.6003 121.555 14.08 121.66 13.6031 121.85C13.2479 121.991 12.7694 122.162 12.5326 122.476Z" fill="#231F20"/>
<path fill-rule="evenodd" clip-rule="evenodd" d="M9.88191 141.09C8.47622 142.757 6.7487 144.123 5.13123 145.574C4.97615 145.714 4.91779 145.935 5.08621 146.084C5.27797 146.256 5.7382 146.251 5.95831 146.236C6.7487 146.181 7.61579 145.939 8.21442 145.4C9.83189 143.948 11.5611 142.582 12.9651 140.915C13.1002 140.756 13.1952 140.569 13.0118 140.404C12.8184 140.233 12.3581 140.238 12.138 140.254C11.6895 140.284 11.2359 140.376 10.819 140.541C10.4972 140.671 10.1104 140.818 9.88191 141.09Z" fill="#231F20"/>
<path fill-rule="evenodd" clip-rule="evenodd" d="M149.473 3.13964C149.858 1.64057 151.182 0.800151 152.429 1.26371C158.607 3.56652 147.462 10.9502 149.473 3.13964Z" stroke="#231F20" stroke-width="2.08436"/>
<path fill-rule="evenodd" clip-rule="evenodd" d="M157.129 26.1367C157.477 24.781 158.673 24.0223 159.8 24.4425C165.383 26.5219 155.311 33.1935 157.129 26.1367Z" stroke="#231F20" stroke-width="1.83424"/>
<path fill-rule="evenodd" clip-rule="evenodd" d="M74.8317 10.3061C75.1802 8.95046 76.3775 8.19175 77.503 8.61196C83.0858 10.6913 73.0158 17.363 74.8317 10.3061Z" stroke="#231F20" stroke-width="1.83424"/>
<path fill-rule="evenodd" clip-rule="evenodd" d="M119.551 37.0172C119.938 35.5165 121.26 34.6777 122.507 35.1413C128.687 37.4424 117.54 44.8261 119.551 37.0172Z" fill="#231F20"/>
<path fill-rule="evenodd" clip-rule="evenodd" d="M118.512 173.611C108.872 174.131 99.2221 174.311 89.5789 174.225C86.0605 174.183 82.5421 174.198 79.0287 174.051C66.6393 173.613 54.2715 172.679 41.9704 171.197C36.5094 170.59 31.025 169.813 25.644 168.922C18.7289 167.778 11.8088 166.478 5.01213 164.81C0.775034 163.761 6.49953 163.503 14.3934 165.017C21.3902 166.366 28.4037 167.58 35.4622 168.53C42.5273 169.441 49.6392 170.228 56.7977 170.838C65.3586 171.6 74.3081 171.892 83.0991 172.039C92.7655 172.215 102.444 172.12 112.105 171.697C118.053 171.457 123.994 171.038 129.921 170.533C138.892 169.701 147.888 168.579 156.662 166.883C157.192 166.784 157.723 166.684 158.238 166.589L158.241 166.588L158.338 166.576C159.622 166.419 161.084 165.59 162.387 164.807C163.721 164.013 165 163.089 166.26 162.159C168.776 160.279 171.191 158.262 173.567 156.186C174.704 155.199 175.78 154.188 176.904 153.166C181.051 149.357 182.346 148.162 183.667 147.747C183.966 147.65 184.326 147.486 184.551 147.47C185.301 147.393 184.072 149.481 181.111 152.457C177.981 155.601 174.639 158.635 171.061 161.52C169.273 162.964 167.429 164.37 165.456 165.68C164.479 166.346 163.46 166.973 162.365 167.553C161.811 167.84 161.273 168.133 160.622 168.363C160.059 168.63 159.258 168.804 158.463 168.92L158.688 168.892C155.048 169.564 151.35 170.253 147.626 170.775C137.991 172.204 128.251 173.091 118.527 173.666L118.512 173.611Z" fill="#231F20"/>
<path fill-rule="evenodd" clip-rule="evenodd" d="M111.338 70.6541C101.185 70.0288 91.1999 68.6281 81.25 67.084C77.6199 66.5137 73.9831 66.0085 70.373 65.3665C64.0082 64.2409 57.6534 62.9953 51.3352 61.7597L50.4765 61.593C50.3431 61.588 50.1446 61.4596 50.0729 61.6347L48.9024 63.017L45.7675 66.7138L39.4527 74.0641C35.6958 78.3996 31.9206 82.7568 28.1938 87.0589C25.7959 89.8236 23.3197 92.5366 20.7651 95.1846C19.4711 96.4969 18.1672 97.8009 16.7831 99.0398C15.4208 100.294 13.9684 101.486 12.2776 102.445C11.1087 103.022 10.5 103.043 10.4834 102.815C10.44 102.568 10.8886 102.043 11.4605 101.301C12.5711 99.6451 14.522 96.742 17.3751 93.7289C27.3634 82.8918 37.1516 71.6479 46.9764 60.334L47.6517 59.542C47.8118 59.3585 47.9636 59.1551 48.1286 58.99L48.6656 58.5982L48.9307 58.3997C48.9174 58.3564 49.0808 58.7649 49.0158 58.5898L49.0241 58.5882L49.0441 58.5831L49.0808 58.5715L49.1542 58.5498L49.3076 58.5081C49.5193 58.4664 49.7078 58.3647 49.9395 58.3747C50.3864 58.4247 50.9534 58.4414 51.2985 58.5281C52.4174 58.7449 53.538 58.9617 54.6635 59.1801C56.908 59.592 59.1658 60.0055 61.4319 60.4207C65.9691 61.1811 70.5331 61.9465 75.057 62.7052C85.0052 64.3327 94.9885 65.8084 105.003 66.7222C111.183 67.2708 117.3 67.5793 123.493 67.2408C132.884 66.8973 142.319 66.3487 151.605 65.3932C158.832 64.6878 165.857 63.5456 173.01 62.6952C174.585 62.4984 176.13 62.3 177.728 62.1432C180.701 61.8848 182.684 61.7997 184.091 61.9615C185.495 62.1666 186.304 62.4717 186.936 62.8919C187.222 63.077 187.596 63.2555 187.754 63.4189C188.021 63.699 187.543 63.9325 186.494 64.1826C185.442 64.421 183.812 64.8229 181.693 65.0313C175.403 65.8151 168.892 66.9756 162.232 67.741C155.575 68.5631 148.79 69.2451 141.978 69.767C136.919 70.1689 131.838 70.4373 126.756 70.6691C124.2 70.7492 121.697 70.8709 119.095 70.9126C116.491 70.9493 113.911 70.8809 111.347 70.7425L111.338 70.6541Z" fill="#231F20"/>
<path fill-rule="evenodd" clip-rule="evenodd" d="M98.5541 121.579C90.9954 121.497 83.44 121.31 75.8996 120.74C73.1499 120.501 70.3869 120.518 67.6488 120.146C57.9657 119.232 48.376 117.366 38.923 115.125C34.7492 114.058 30.5855 112.948 26.4718 112.032C21.1725 110.87 15.8749 110.136 10.5539 109.574C8.89646 109.406 9.08989 108.624 10.5589 107.847C12.018 107.065 14.8311 106.328 18.076 106.675C23.7988 107.393 29.2932 108.864 34.6659 110.298C37.3572 111.013 40.0185 111.757 42.7065 112.381C45.4012 112.998 48.1008 113.616 50.8105 114.237C54.0788 114.854 57.4438 115.359 60.8321 115.802C64.2405 116.113 67.6688 116.424 71.0672 116.733C78.5542 117.27 86.0713 117.675 93.6 117.678C98.234 117.76 102.87 117.632 107.504 117.527C114.515 117.226 121.574 116.923 128.507 116.166C133.903 115.634 139.141 114.67 144.432 113.891C145.594 113.705 146.728 113.488 147.904 113.323C152.241 112.634 153.685 112.828 154.757 113.543C155.005 113.711 155.331 113.86 155.502 114.035C156.108 114.61 154.343 115.617 151.2 116.479C146.478 117.6 141.602 118.63 136.603 119.267C131.607 119.926 126.521 120.428 121.415 120.788C113.833 121.387 106.188 121.545 98.5658 121.675L98.5541 121.579Z" fill="#231F20"/>
<path fill-rule="evenodd" clip-rule="evenodd" d="M179.687 95.4909C178.253 97.2868 176.781 99.076 175.247 100.829C174.681 101.462 174.199 102.166 173.599 102.773C171.516 104.942 169.257 106.912 166.991 108.809C165.974 109.668 165.062 110.533 164.034 111.449C162.946 112.234 162.135 112.358 161.323 112.618C160.626 112.788 159.952 112.953 159.209 113.135C158.94 113.191 158.355 112.756 158.397 111.866C158.445 110.982 159.242 109.901 160.174 109.595C160.97 109.333 161.832 109.029 161.98 108.886C161.98 108.886 161.995 108.879 161.983 108.881L162.103 109.069L162.242 109.251L162.317 109.338L162.357 109.381L162.379 109.401L162.384 109.406C162.777 109.86 161.85 108.796 161.947 108.904L161.95 108.901L162.177 108.687L162.635 108.266L163.593 107.465C164.872 106.403 166.16 105.357 167.493 104.335C169.072 103.096 170.359 101.462 171.698 99.9348C173.172 98.2506 174.59 96.4931 175.977 94.6905L178.508 91.3222C179.792 89.6197 181.111 87.9222 182.305 86.1697C183.236 84.809 183.973 83.3499 184.895 82.0043C185.095 81.7041 185.27 81.399 185.487 81.1088C186.334 80.0616 186.872 79.9216 187.484 80.0066C187.629 80.03 187.783 80.0333 187.905 80.0733C188.305 80.2034 188.306 80.8771 188.038 81.8876C187.029 84.7323 185.398 87.3152 183.717 89.8915C182.475 91.8091 181.17 93.7017 179.759 95.5376L179.687 95.4909Z" fill="#231F20"/>
<path fill-rule="evenodd" clip-rule="evenodd" d="M122.403 137.925C112.542 138.802 102.65 139.313 92.7571 139.436C89.1453 139.439 85.5369 139.586 81.9301 139.471C75.5686 139.361 69.2155 138.973 62.879 138.474C56.5459 137.939 50.2144 137.178 43.9513 136.368C38.3752 135.669 32.7574 134.986 27.2214 134.184C23.6663 133.665 20.1028 133.113 16.5628 132.418C13.0127 131.769 9.54096 130.735 6.10926 129.66C3.97488 128.958 4.40342 128.559 6.3744 128.459C8.33703 128.411 11.8855 128.381 15.9074 129.066C23.0193 130.422 30.2045 131.412 37.4414 132.321C44.685 133.231 51.9586 134.235 59.2239 135.032C67.9415 135.991 77.086 136.16 86.0571 136.163C95.9237 136.163 105.802 135.763 115.653 134.974C121.718 134.52 127.771 133.85 133.806 133.11C138.376 132.523 142.954 131.901 147.512 131.194C149.787 130.815 152.06 130.438 154.328 130.062L157.716 129.433L159.405 129.114L160.25 128.954L160.672 128.874C160.766 128.848 160.846 128.856 160.917 128.813C162.278 128.156 163.804 127.103 165.155 126.098C166.515 125.027 167.844 123.917 169.118 122.735C171.673 120.383 174.121 117.912 176.492 115.349C177.536 114.222 178.523 113.086 179.547 111.924C183.339 107.609 184.536 106.248 185.868 105.693C186.168 105.566 186.523 105.361 186.755 105.324C187.522 105.176 186.555 107.439 183.994 110.907C180.157 116.008 175.895 120.999 170.939 125.563C168.406 127.824 165.85 129.99 162.457 131.774L161.946 132.034L161.353 132.153L160.726 132.276L159.497 132.521L157.037 133.008C155.398 133.34 153.747 133.637 152.098 133.932C142.3 135.723 132.373 137.085 122.425 138.014L122.403 137.925Z" fill="#231F20"/>
<path fill-rule="evenodd" clip-rule="evenodd" d="M180.692 136.465C179.616 137.434 178.526 138.383 177.429 139.325C177.027 139.666 176.687 140.072 176.273 140.402C174.831 141.581 173.32 142.683 171.811 143.775C171.146 144.264 170.497 144.786 169.865 145.314L169.755 145.394C169.47 145.644 169.063 145.798 168.726 145.878C168.414 145.95 168.137 145.983 167.874 146.006C167.362 146.043 166.86 146.031 166.603 145.988C166.552 145.905 166.031 145.533 166.14 144.836C166.273 144.145 166.949 143.458 167.507 143.363C167.769 143.317 167.997 143.272 168.149 143.225C168.299 143.185 168.186 143.203 168.236 143.22C169.366 142.359 170.682 141.456 171.999 140.632C173.077 139.957 173.962 138.979 174.926 138.121C175.981 137.172 177.049 136.226 178.086 135.248C178.728 134.649 179.363 134.042 179.983 133.42C180.917 132.473 181.884 131.544 182.738 130.534C183.4 129.748 183.92 128.866 184.491 128.022C184.616 127.836 184.719 127.637 184.856 127.459C185.344 126.782 185.746 126.773 186.366 127.055C186.508 127.119 186.655 127.169 186.778 127.24C187.165 127.455 187.36 128.062 187.122 128.676C186.333 130.42 185.103 131.936 183.809 133.4C182.848 134.489 181.779 135.488 180.742 136.51L180.692 136.465Z" fill="#231F20"/>
<path fill-rule="evenodd" clip-rule="evenodd" d="M100.849 157.045C92.5637 157.516 84.2612 157.728 75.9588 157.73C72.9289 157.743 69.8991 157.805 66.8726 157.697C64.2013 157.647 61.5333 157.505 58.867 157.346C56.199 157.23 53.5344 156.993 50.873 156.761C45.5454 156.319 40.2361 155.567 34.9919 154.925C30.3212 154.345 25.5989 153.943 20.9199 153.386C14.9086 152.736 8.80891 151.515 3.17113 149.251C1.40859 148.55 1.89049 147.973 3.61301 147.8C5.33386 147.642 8.28199 147.795 11.5736 148.512C17.4132 149.768 23.4145 150.441 29.5292 151.138C35.6388 151.82 41.7919 152.714 47.8482 153.494C55.1535 154.332 62.8256 154.508 70.361 154.582C78.6484 154.648 86.9492 154.473 95.245 154.088C100.349 153.815 105.455 153.504 110.549 153.088C118.265 152.427 126.019 151.724 133.642 150.71C139.57 149.924 145.345 148.896 151.161 147.867C152.442 147.632 153.694 147.403 154.985 147.168C159.774 146.333 161.358 146.433 162.523 147.06C162.788 147.201 163.127 147.325 163.292 147.472C163.572 147.722 163.242 148.047 162.41 148.445C161.579 148.841 160.254 149.339 158.505 149.723C148.136 152.045 137.054 153.685 125.887 154.974C117.594 155.964 109.222 156.581 100.866 157.126L100.849 157.045Z" fill="#231F20"/>
<path fill-rule="evenodd" clip-rule="evenodd" d="M75.2076 145.309C70.1334 145.119 65.0626 144.82 60.0001 144.418C58.1525 144.278 56.3032 144.176 54.4607 143.99C47.9424 143.351 41.5309 142.285 35.0811 141.558C32.2047 141.243 29.3199 140.928 26.4685 140.616C22.7984 140.218 19.0798 139.709 15.5281 138.594C13.3303 137.888 16.6186 136.814 20.7057 137.423C27.9993 138.542 35.5013 139.199 43.005 140.376C47.4972 141.093 52.1445 141.502 56.7535 141.869C61.8093 142.295 66.8818 142.612 71.9593 142.811C75.0825 142.939 78.2124 143.026 81.339 143.051C86.0746 143.086 90.8387 143.101 95.5376 142.897C99.1911 142.742 102.763 142.406 106.36 142.072C107.152 141.994 107.929 141.917 108.724 141.839C111.684 141.568 112.646 141.757 113.333 142.292C113.488 142.414 113.692 142.526 113.785 142.644C114.103 143.007 112.931 143.578 110.762 143.935C104.319 144.882 97.4653 145.282 90.5852 145.447C85.4743 145.579 80.3368 145.505 75.2126 145.369L75.2076 145.309Z" fill="#231F20"/>
<path fill-rule="evenodd" clip-rule="evenodd" d="M118.672 170.41C108.75 171.034 98.8171 171.364 88.8872 171.449C85.2621 171.455 81.6403 171.574 78.0201 171.475C65.2522 171.214 52.4892 170.557 39.7979 169.099C34.1535 168.437 28.559 167.777 22.9646 167.288C15.7961 166.623 8.52746 165.951 1.47564 164.242C-0.720447 163.707 -0.301906 163.268 1.65573 163.15C3.6167 163.035 7.11009 163.153 11.1888 163.673C18.4257 164.605 25.7493 165.099 33.1129 165.954C40.4266 166.806 47.7018 167.61 55.0872 168.105C63.9032 168.762 73.1194 168.821 82.1655 168.812C92.1155 168.801 102.074 168.527 112.014 167.969C118.133 167.643 124.246 167.168 130.343 166.591C139.571 165.683 148.832 164.547 157.873 162.848C158.937 162.644 159.999 162.441 161.035 162.242L161.053 162.239L161.165 162.226C162.278 162.099 163.664 161.309 164.873 160.578C166.114 159.813 167.319 158.956 168.492 158.052C170.844 156.255 173.102 154.319 175.325 152.333C176.459 151.279 177.569 150.247 178.713 149.184C182.929 145.219 184.286 144.017 185.762 143.698C186.097 143.625 186.494 143.48 186.752 143.487C187.619 143.49 186.429 145.713 183.422 148.829C180.424 151.944 177.221 154.952 173.774 157.819C172.048 159.253 170.272 160.652 168.35 161.957C167.398 162.621 166.402 163.248 165.313 163.83C164.77 164.12 164.226 164.412 163.566 164.649C163.007 164.919 162.153 165.102 161.326 165.222L161.61 165.187C159.475 165.579 157.326 165.974 155.167 166.373C152.999 166.713 150.824 167.053 148.647 167.395C138.719 168.841 128.697 169.786 118.69 170.48L118.672 170.41Z" fill="#231F20"/>
<path fill-rule="evenodd" clip-rule="evenodd" d="M76.4298 127.933C76.2647 131.196 76.1263 134.476 76.0196 137.761C75.9796 138.958 76.0463 140.157 75.9963 141.354C75.7645 145.581 75.5294 149.817 75.2976 154.042C75.1875 155.921 75.1742 157.809 75.1325 159.683C75.1008 162.09 75.1408 164.521 74.3555 166.962C74.1153 167.722 73.48 167.441 72.8947 166.705C72.5996 166.337 72.3245 165.871 72.1077 165.336C71.8742 164.781 71.7175 164.156 71.7358 163.497C71.8776 158.748 71.986 153.88 72.4095 148.985C72.678 146.053 72.4629 142.992 72.5346 139.985L72.803 130.049L73.0431 123.916C73.1115 122.362 73.2066 120.807 73.3833 119.212C73.5184 118.134 73.8919 117.464 74.2087 116.694C74.5489 115.958 74.9074 115.253 75.2742 114.559C76.4031 112.4 77.5337 110.317 78.7843 108.281C79.0628 107.834 79.3429 107.404 79.6648 106.984C80.8503 105.418 81.494 105.116 82.3194 105.213C82.5078 105.236 82.7079 105.231 82.863 105.28C83.3632 105.425 83.3282 106.384 82.7579 107.694C81.9309 109.657 80.9387 111.541 79.9366 113.424C79.0144 115.31 77.8255 117.204 77.1752 118.91C77.0568 119.222 76.9668 119.507 76.9834 119.502L76.8784 120.624L76.7166 123.015C76.6366 124.643 76.5616 126.282 76.5199 127.931L76.4298 127.933Z" fill="#6D4D8E"/>
<path fill-rule="evenodd" clip-rule="evenodd" d="M115.144 125.391C112.051 125.481 108.957 125.553 105.866 125.588C104.737 125.6 103.611 125.687 102.484 125.678C98.5072 125.687 94.5319 125.57 90.5599 125.47C88.7991 125.405 87.0265 125.426 85.2773 125.405C83.0312 125.416 80.7684 125.446 78.5357 125.1C77.1433 124.913 78.9942 123.275 81.5638 123.207C86.1227 123.282 90.6733 123.397 95.2756 123.624C98.0286 123.754 100.893 123.594 103.708 123.539C106.805 123.465 109.903 123.397 112.999 123.267L118.716 122.995C121.599 122.817 124.498 122.653 127.35 122.35C129.569 122.126 131.724 121.711 133.908 121.429L135.342 121.226C137.14 120.999 137.742 121.184 138.19 121.65C138.292 121.76 138.422 121.865 138.487 121.975C138.705 122.34 138.012 122.78 136.711 123.149C132.838 124.117 128.682 124.581 124.5 124.896C121.395 125.148 118.269 125.293 115.15 125.446L115.144 125.391Z" fill="#231F20"/>
<path fill-rule="evenodd" clip-rule="evenodd" d="M47.2905 122.361C44.7626 121.916 42.1963 121.35 39.7268 120.68C38.8247 120.44 37.9075 120.258 37.0121 120.001C33.8505 119.099 30.729 118.114 27.5841 117.255C26.1884 116.873 24.7677 116.568 23.362 116.3C21.5511 115.973 19.7269 115.756 17.951 115.242C16.8321 114.954 18.5063 113.438 20.6874 113.648C24.4859 114.242 28.1811 115.219 31.8095 116.418C33.9823 117.137 36.2984 117.632 38.5462 118.211C41.0258 118.854 43.4703 119.46 45.9732 119.895C47.5156 120.165 49.0631 120.417 50.6238 120.622C52.9833 120.94 55.3628 121.257 57.729 121.506C59.5666 121.704 61.3942 121.749 63.2234 122.009C63.6269 122.062 64.0255 122.093 64.429 122.173C65.9331 122.424 66.3549 122.81 66.5567 123.368C66.6017 123.503 66.6701 123.638 66.6834 123.762C66.7351 124.17 66.0598 124.387 64.9659 124.377C61.731 124.269 58.3777 123.91 54.956 123.485C52.4164 123.178 49.8535 122.828 47.2855 122.416L47.2905 122.361Z" fill="#231F20"/>
<path fill-rule="evenodd" clip-rule="evenodd" d="M69.0304 86.989C68.9603 85.3465 69.3255 83.5456 70.2176 81.9715C71.1331 80.4041 72.6588 79.1268 74.4297 78.6232C75.707 78.2514 77.0793 78.1596 78.3316 78.5082C78.8769 78.7133 79.4355 78.9184 79.9391 79.1985C80.3976 79.542 80.9312 79.8321 81.2864 80.254C82.0735 81.0477 82.6538 81.9482 83.0523 82.8486C83.8827 84.6562 84.2596 86.4621 84.588 88.2296C84.8632 89.7771 85.1367 91.3228 85.4101 92.8586C85.7736 94.7979 86.2072 96.6805 86.5057 98.518C86.594 99.0917 86.0138 99.2834 85.2434 98.9966C84.4647 98.7198 83.4875 97.8894 83.1423 96.7338C82.552 94.6895 82.1218 92.6985 81.77 90.7542C81.4582 88.8082 81.1664 86.9073 80.6678 85.1698C80.3543 84.1609 79.864 83.1721 79.162 82.6035C78.4767 82.0282 77.673 81.7014 76.7575 81.6464C74.7765 81.4763 72.9306 83.022 72.5454 85.2848C72.307 86.6438 72.4737 88.2696 72.9239 89.6703C73.6126 91.8381 75.1951 93.7173 77.2144 94.9663C78.7918 95.9401 80.5961 96.442 82.3953 96.8506C82.7888 96.9523 83.1974 96.9806 83.5959 97.079C85.085 97.4008 85.5068 97.7377 85.6619 98.7098C85.6969 98.9333 85.757 99.1584 85.762 99.3735C85.7853 100.094 85.0183 100.571 83.7626 100.511C80.1042 100.249 76.0905 98.9166 72.8739 95.8834C71.7067 94.7428 70.7179 93.3572 70.0208 91.8214C69.3689 90.264 69.0237 88.6148 68.9453 86.9973L69.0304 86.989Z" fill="#231F20"/>
<path fill-rule="evenodd" clip-rule="evenodd" d="M109.186 90.6781C109.653 90.0394 110.085 89.3624 110.481 88.6654L110.987 87.5648L111.245 87.0129L111.38 86.5327L111.534 86.0541C111.539 85.919 111.544 85.7906 111.56 85.6589C111.639 85.3554 111.525 85.2204 111.544 85.0052C111.424 84.7068 111.245 84.3883 110.728 84.0881C109.966 83.6596 108.776 83.5562 107.615 83.5062C106.574 83.4645 105.484 83.5279 104.435 83.7079C103.916 83.808 103.418 83.928 102.963 84.0748C102.648 84.1782 102.109 84.465 101.597 84.7568C99.5677 85.914 97.5667 87.188 95.6691 88.5803C93.9866 89.8193 92.4024 91.2066 91.0001 92.6907C90.113 93.6512 89.2759 94.66 88.5656 95.7005C87.8235 96.7294 87.1899 97.7749 86.7246 98.8254C86.4295 99.4574 85.6441 99.349 85.0788 98.4119C84.4418 97.4531 84.4052 95.6272 85.3423 94.0947C88.8023 88.9155 93.4796 85.5155 98.4704 82.6541C99.2292 82.2239 99.9879 81.7937 100.752 81.3618C101.799 80.7932 102.721 80.5664 103.658 80.3163C105.519 79.9044 107.403 79.7026 109.371 79.9461C110.443 80.0861 111.57 80.3513 112.672 80.9999C113.233 81.2851 113.74 81.757 114.208 82.2706C114.592 82.8342 115.025 83.4678 115.125 84.1332C115.509 85.4872 115.234 86.6927 114.952 87.7549C114.633 88.8071 114.192 89.6842 113.78 90.633C112.594 92.8708 110.938 94.8151 109.037 96.4109C106.099 98.7887 102.581 100.223 99.0474 101.073C96.296 101.734 93.5147 102.204 90.6266 102.125C89.9913 102.09 89.3609 102.072 88.7173 102.002C86.3244 101.627 85.6608 100.921 85.6008 99.7575C85.5857 99.4891 85.5441 99.2139 85.5791 98.9688C85.7191 98.1417 86.773 97.7799 88.197 97.89C92.4792 98.1868 97.1465 97.7849 101.319 96.1858C104.433 95.0569 107.178 93.1643 109.102 90.6247L109.186 90.6781Z" fill="#231F20"/>
<path fill-rule="evenodd" clip-rule="evenodd" d="M84.0145 99.9737C85.4785 101.718 86.4357 103.841 87.166 105.982C87.9364 108.234 88.455 110.586 88.6368 112.96C88.6968 113.73 90.3926 113.464 90.8112 113.342C91.4398 113.16 92.5654 112.748 92.502 111.925C92.3152 109.482 91.7716 107.061 90.9629 104.748C90.1859 102.523 89.1387 100.312 87.6146 98.4963C86.8092 97.5375 83.1024 98.8882 84.0145 99.9737Z" fill="#231F20"/>
<path fill-rule="evenodd" clip-rule="evenodd" d="M86.4752 97.6605C83.5954 95.7912 80.1271 97.342 77.7009 99.2246C75.7199 100.764 74.1041 102.673 72.3582 104.456C71.6078 105.221 72.0114 106.436 72.9752 106.762C74.1474 107.157 75.3814 106.75 76.2218 105.893C76.8488 105.253 77.4441 104.581 78.0627 103.932C78.4529 103.523 78.8914 103.145 79.2616 102.718C78.8498 103.192 79.1633 102.813 79.2783 102.705C79.3884 102.603 79.4967 102.503 79.6068 102.403C79.8286 102.204 80.052 102.008 80.2805 101.818C80.7257 101.447 81.1876 101.094 81.6712 100.777C81.8312 100.672 82.1647 100.549 81.5694 100.835C81.7062 100.769 81.8362 100.682 81.9713 100.61C82.1998 100.489 82.4399 100.395 82.6717 100.285C81.8813 100.659 82.605 100.34 82.8667 100.265C83.2336 100.158 82.2298 100.312 82.6283 100.307C82.7317 100.305 82.9118 100.318 83.0085 100.287C82.8934 100.323 82.3765 100.25 82.79 100.297C83.2503 100.347 82.5399 100.198 82.665 100.253C82.76 100.295 82.8734 100.337 82.9735 100.367C83.2703 100.455 82.5316 100.097 82.9535 100.37C83.9123 100.994 85.3763 100.845 86.2501 100.113C86.9738 99.5064 87.4774 98.3108 86.4752 97.6605Z" fill="#231F20"/>
<path fill-rule="evenodd" clip-rule="evenodd" d="M100.005 75.8065C99.3043 76.6452 98.609 77.509 97.942 78.4061C97.6985 78.7296 97.5351 79.1098 97.2833 79.4316C96.3562 80.5555 95.4191 81.6927 94.497 82.8099C94.1001 83.3185 93.7599 83.8705 93.3747 84.3841C92.9095 85.0594 92.481 85.7681 91.8006 86.295C91.5855 86.4584 91.2537 86.1899 90.9919 85.7547C90.7368 85.3228 90.51 84.7009 90.6801 84.2607C91.257 82.6832 92.1225 81.3125 93.248 80.0419C93.93 79.2899 94.2885 78.2944 94.8721 77.444C95.5041 76.5035 96.1628 75.573 96.8415 74.6476C97.265 74.079 97.6902 73.5103 98.1104 72.9467C98.7424 72.0796 99.4711 71.2759 100.108 70.4255C100.598 69.7602 100.958 69.0064 101.41 68.3094C101.507 68.1544 101.614 68.011 101.746 67.8842C102.247 67.4257 102.559 67.4173 103.153 67.7658C103.288 67.8442 103.428 67.9142 103.55 68.0009C103.962 68.2928 104.108 68.7897 103.99 69.3149C103.843 70.1187 103.535 70.7807 103.171 71.4076C102.818 72.0396 102.424 72.6449 102.027 73.2502C101.46 74.1623 100.702 74.9511 100.075 75.8498L100.005 75.8065Z" fill="#6D4D8E"/>
<path fill-rule="evenodd" clip-rule="evenodd" d="M122.387 172.567C117.048 172.653 111.69 172.669 106.331 172.482C104.375 172.414 102.415 172.407 100.464 172.266C93.666 171.559 86.9693 171.634 80.1143 171.909C77.0944 172.021 74.0796 172.267 71.0481 172.427C67.1779 172.632 63.1559 172.774 59.2956 171.734C58.095 171.397 58.3835 171.012 59.4607 170.75C60.5446 170.491 62.3888 170.196 64.5366 170.153C68.3601 170.103 72.2137 169.579 76.174 169.206C80.1776 168.992 84.1029 168.879 88.1382 168.926C90.5561 168.956 93.0056 168.986 95.4735 169.017C97.9147 169.114 100.369 169.212 102.802 169.309C108.106 169.511 113.431 169.484 118.765 169.334C122.047 169.236 125.333 169.097 128.62 168.927C133.579 168.637 138.657 168.514 143.519 168.074C147.319 167.697 150.993 166.928 154.654 166.074C155.458 165.874 156.247 165.677 157.056 165.476C158.563 165.14 159.56 164.942 160.307 165.012C161.063 165.114 161.561 165.442 162.001 165.867C162.2 166.051 162.442 166.199 162.568 166.346C162.782 166.601 162.605 166.911 162.143 167.465C161.688 168.044 160.873 168.549 159.75 168.872C153.139 170.942 145.762 171.872 138.488 172.096C133.137 172.281 127.763 172.466 122.399 172.653L122.387 172.567Z" fill="#231F20"/>
<path fill-rule="evenodd" clip-rule="evenodd" d="M182.45 149.509C182.45 149.509 200.005 145.839 196.55 150.843C190.862 159.079 171.003 173.181 132.832 171.742L163.952 164.777L182.45 149.509Z" fill="#231F20"/>
</svg>
