<svg width="157" height="180" viewBox="0 0 157 180" fill="none" xmlns="http://www.w3.org/2000/svg">
<path fill-rule="evenodd" clip-rule="evenodd" d="M42.7037 98.62C45.8705 101.224 48.3455 104.658 49.6498 108.525C50.1566 109.919 50.536 111.373 50.7039 112.851C50.8857 114.157 50.8453 115.475 50.7691 116.786L50.4396 118.731C50.323 119.376 50.0944 119.996 49.9234 120.626C49.0591 123.099 47.6568 125.352 45.8907 127.242C44.3283 128.926 42.4596 130.322 40.4588 131.393C37.8937 132.758 35.0176 133.699 32.0934 133.697C31.1839 133.716 31.3098 133.472 32.0358 133.148C32.7665 132.845 34.0569 132.368 35.5742 131.947C40.9672 130.485 45.7974 126.774 48.1123 121.61C48.8228 120.074 49.157 118.372 49.3544 116.658C49.4135 114.931 49.3669 113.176 48.958 111.486C48.1993 107.744 46.2732 104.251 43.6101 101.481C41.9637 99.7844 40.0375 98.3495 37.8952 97.3296C36.2427 96.658 34.5217 96.0517 32.7261 95.9242C32.2784 95.8885 31.8322 95.8139 31.3844 95.8108L30.0412 95.8683C29.1504 95.8776 28.241 96.0346 27.3548 96.1854C24.5876 96.672 21.9929 97.6297 19.6283 99.0351C19.106 99.3398 18.61 99.6678 18.0955 100.002C17.144 100.624 16.5299 101.059 16.0558 101.309C15.5692 101.541 15.2598 101.641 14.9675 101.664C14.8338 101.675 14.6737 101.711 14.582 101.697C14.2928 101.684 14.8525 100.863 16.2019 99.7968C18.2074 98.2344 20.5191 96.8259 23.0905 95.9242C24.3699 95.4672 25.696 95.1267 27.0346 94.8749C27.7046 94.7474 28.3778 94.651 29.0509 94.5593L31.1544 94.4427C35.3519 94.4007 39.4732 96.0362 42.7239 98.5873L42.7037 98.62Z" fill="#231F20"/>
<path fill-rule="evenodd" clip-rule="evenodd" d="M136.46 136.053C134.646 136.014 132.857 135.808 131.088 135.495C130.203 135.338 129.325 135.148 128.451 134.926C128.014 134.813 127.579 134.691 127.142 134.55L126.632 134.37C126.587 134.349 126.537 134.331 126.497 134.295C126.475 134.25 126.484 134.348 126.478 134.37L126.477 134.384C126.442 134.377 126.511 135.333 126.55 135.904C126.64 136.554 126.694 137.204 126.811 137.855C127.568 142.528 128.698 147.191 129.592 151.887C129.973 153.977 130.385 156.072 130.699 158.16C131.15 160.831 131.433 163.555 131.364 166.271C131.363 167.116 131.294 167.003 131.141 166.297C131.044 165.828 130.942 165.324 130.844 164.842C130.753 164.237 130.481 163.545 130.418 162.777C129.71 157.341 128.561 151.974 127.52 146.508C126.907 143.237 126.041 139.876 125.674 136.437C125.618 136.028 125.603 135.61 125.587 135.19L125.562 134.558L125.618 133.585C125.757 133.561 126.016 133.434 126.052 133.491C126.094 133.516 126.164 133.536 126.245 133.557C126.285 133.558 126.323 133.598 126.366 133.566L126.498 133.438C126.565 133.286 126.733 133.462 126.853 133.482C127.007 133.549 127.043 133.552 127.134 133.586C127.45 133.692 127.767 133.788 128.092 133.875C128.74 134.052 129.398 134.203 130.06 134.335C131.386 134.601 132.728 134.796 134.073 134.917C136.339 135.108 138.635 135.136 140.835 134.6C144.204 133.902 147.494 132.565 150.133 130.425C151.163 129.598 152.025 128.611 152.798 127.577C153.507 126.497 154.169 125.385 154.608 124.165C154.846 123.647 154.961 123.095 155.147 122.554C155.708 120.502 155.819 119.829 156.223 119.416C156.31 119.321 156.403 119.19 156.483 119.139C156.727 118.952 156.867 119.882 156.581 121.51C156.13 123.905 155.192 126.348 153.63 128.436C152.064 130.508 149.995 132.263 147.646 133.418C145.917 134.304 144.081 134.954 142.214 135.405C140.372 135.87 138.376 136.145 136.465 136.08L136.46 136.053Z" fill="#231F20"/>
<path fill-rule="evenodd" clip-rule="evenodd" d="M47.7627 177.792C31.9474 181.57 4.57189 179.386 0.724173 176.101C-3.66611 172.351 13.34 169.147 13.34 169.147C13.34 169.147 15.4419 177.045 24.6282 177.416C33.8145 177.789 47.7627 177.792 47.7627 177.792Z" fill="#231F20"/>
<path fill-rule="evenodd" clip-rule="evenodd" d="M119.11 176.803C108.979 179.076 80.6178 182.106 74.5952 176.714C70.8159 173.331 92.0506 170.528 92.0506 170.528C92.0506 170.528 88.0381 174.042 88.7516 174.844C89.4637 175.645 119.11 176.803 119.11 176.803Z" fill="#231F20"/>
<path fill-rule="evenodd" clip-rule="evenodd" d="M67.9478 29.8158C61.3313 30.8185 55.4875 36.2426 54.5252 43.0473C54.0821 45.5113 54.2795 48.0563 54.7661 50.553C55.1299 52.3704 55.6896 54.1722 56.4249 55.9165C56.8042 56.7855 57.2131 57.6406 57.6406 58.4941L57.9795 59.1237C58.1412 59.4175 58.3853 59.8373 58.5983 60.1824C59.0864 60.8991 59.5342 61.6064 60.069 62.3122L60.7857 63.6974L60.8525 64.6364L60.8852 64.994C60.952 65.0966 60.7872 65.3127 60.6737 65.3749C60.4359 65.5521 60.1793 65.7029 59.8358 65.8319C59.472 65.9423 59.0958 66.0714 58.5905 66.1195C58.1086 66.1833 57.51 66.1537 56.9333 66.132C55.7937 66.0667 54.5018 65.9781 53.5022 65.8646C50.6199 65.535 47.7501 65.2692 44.8756 65.0515C40.5397 64.7173 36.1743 64.5416 31.8788 64.5556C29.1209 64.5711 26.3614 64.6768 23.6393 64.9225C22.279 65.0391 20.9202 65.1417 19.591 65.3562C18.9288 65.4635 18.2711 65.591 17.6353 65.7589C17.001 65.9237 16.3201 65.9905 15.7387 66.2843C15.0282 66.645 14.7763 66.8953 14.711 66.8129C14.6644 66.7492 14.8168 66.3341 15.3593 65.7604C15.9003 65.2272 16.7461 64.31 17.9898 63.7736C19.207 63.1735 20.6964 62.6589 22.3272 62.3418C28.1353 61.4665 33.8812 61.437 39.6116 61.5163C42.4768 61.5722 45.3373 61.6935 48.1916 61.8614C49.6172 61.9562 51.0443 62.0246 52.4699 62.0915L53.5364 62.1475L53.8038 62.163C53.8629 62.1661 53.8504 62.1786 53.8769 62.1848C53.9126 62.1832 53.9499 62.1972 53.9888 62.205L54.5314 62.3278C54.7817 62.362 55.1517 62.4724 55.3818 62.3915L54.9636 61.765C54.8983 61.6096 54.7786 61.4401 54.6822 61.2691C54.6822 61.2691 54.449 60.868 54.2888 60.6022L53.8022 59.7145C53.1555 58.5283 52.6161 57.2784 52.1124 56.0113C51.1329 53.4664 50.4582 50.7551 50.2903 47.9863C50.2157 45.9078 50.2561 43.7919 50.7536 41.7476C50.9137 40.7091 51.3242 39.7328 51.6056 38.7285C51.9958 37.7397 52.4233 36.765 52.9643 35.8586C55.0662 32.1913 58.3309 29.3028 62.1024 27.5662C64.4235 26.4469 66.9855 25.9587 69.417 25.7022C71.8888 25.4488 74.4042 25.5017 76.8668 25.9339C80.601 26.5666 84.2062 28.1803 87.1413 30.6335C90.0454 33.1147 92.2467 36.4478 93.2759 40.1059C95 45.7865 94.2833 51.8496 92.1861 57.1897C91.7477 58.3853 91.23 59.5093 90.6641 60.6581C89.4608 62.6931 88.4565 63.8855 87.6466 64.6318C86.8428 65.3795 86.1526 65.6298 85.4996 65.7433C85.2074 65.7993 84.8933 65.9237 84.6959 65.9299C84.0663 65.9827 84.5575 64.0177 85.9038 61.1432C86.8537 58.9791 87.8331 56.8617 88.5685 54.6619C89.2836 52.459 89.7578 50.2017 89.9163 47.9552C90.3594 43.4779 89.2447 38.957 86.4884 35.5322C84.4674 32.9764 81.5353 31.1232 78.2659 30.2278C75.0059 29.2857 71.4349 29.2608 67.9743 29.9106L67.9478 29.8158Z" fill="#231F20"/>
<path fill-rule="evenodd" clip-rule="evenodd" d="M131.354 68.5533C131.418 68.2424 131.413 68.3139 131.435 68.2315C131.451 68.1833 131.46 68.1755 131.474 68.1429C131.507 68.0853 131.528 68.0138 131.457 67.9921C131.399 67.9532 131.379 67.9252 131.264 67.8677L130.01 67.4122C128.327 66.8074 126.544 66.3628 124.749 65.9695C123.424 65.7161 122.087 65.5575 120.747 65.3694C116.03 64.6372 111.202 64.32 106.384 64.4055C104.246 64.4428 102.104 64.6651 100.005 64.9341C97.3033 65.2994 94.6806 65.9912 91.9507 66.2167C91.0941 66.2742 91.0459 65.7301 91.5931 64.9388C91.8683 64.5408 92.2911 64.0744 92.8415 63.6096C93.3949 63.1556 94.1038 62.8556 94.8998 62.6566C100.56 61.29 106.378 60.9527 112.155 61.4439C115.606 61.73 119.205 61.7844 122.725 62.313C124.655 62.6193 126.582 62.9799 128.491 63.4805C129.444 63.7448 130.398 63.9873 131.339 64.3371L132.045 64.5796L132.398 64.7009L132.865 64.8999C133.508 65.1875 134.137 65.5482 134.687 65.9151C134.767 66.2913 134.983 66.582 135.012 66.9878C135.084 67.3764 134.949 67.8552 134.879 68.2766L134.45 70.2261L133.682 73.668C132.934 77.138 132.202 80.6297 131.755 84.1136C131.409 86.8218 131.336 89.5019 131.334 92.1619C131.351 92.7433 131.368 93.317 131.385 93.9031C131.42 96.0671 131.309 96.7279 130.554 97.2798C130.383 97.4041 130.218 97.5658 130.042 97.6498C129.47 97.9436 128.823 97.0574 128.572 95.3489C127.878 90.2979 128.405 85.0495 129.159 79.9036C129.725 76.0808 130.527 72.2704 131.269 68.5424L131.354 68.5533Z" fill="#231F20"/>
<path fill-rule="evenodd" clip-rule="evenodd" d="M24.344 95.8445C27.7813 94.9847 31.7145 94.82 35.3414 95.8584C38.9746 96.8907 42.188 99.0874 44.5915 101.87C46.3358 103.911 47.7645 106.231 48.6087 108.771C49.3735 111.005 49.6503 113.374 49.6176 115.706C49.5772 118.057 48.988 120.333 48.1905 122.53C46.3747 126.842 43.0322 130.336 39.0694 132.472C35.5482 134.371 31.5512 135.371 27.5932 135.299C22.5266 135.312 17.3201 133.378 13.7927 129.768C12.6594 128.678 13.2719 128.394 14.6835 128.646C15.4048 128.744 16.2521 129.078 17.2999 129.331C18.3695 129.55 19.4205 130.039 20.6035 130.457C24.6891 132.229 29.3095 132.363 33.5505 131.178C35.6524 130.505 37.6563 129.543 39.4503 128.251C41.1869 126.892 42.7042 125.278 43.9043 123.416C46.6421 118.876 46.5177 112.571 43.9774 107.75C42.6 105.074 40.5246 102.755 37.9672 101.171C35.3881 99.6269 32.3503 98.8931 29.3001 99.0501C25.4773 99.19 21.6374 100.428 18.1581 102.285C17.5005 102.637 16.8507 103.01 16.2086 103.397L14.954 104.199L13.5533 105.166L12.5661 105.682C12.2318 105.861 12.0484 105.816 11.7826 105.897C11.2882 105.897 10.999 105.377 10.7783 104.759C10.542 104.132 10.4549 103.255 10.3647 102.431L10.1704 100.166C9.99939 97.8204 9.87346 95.4853 9.75998 93.1581C9.53766 88.3449 9.24073 83.6235 9.35888 78.8057C9.38686 77.7439 9.40241 76.7007 9.49724 75.6234C9.68069 73.6288 9.94498 72.2949 10.3367 71.3979C10.7829 70.5164 11.2338 70.0562 11.7546 69.7764C11.9909 69.6474 12.2536 69.4748 12.451 69.439C12.7931 69.3862 12.905 69.7577 12.9656 70.4573C13.0169 71.1631 13.1118 72.2327 12.9687 73.5868C12.6951 77.6444 12.8055 81.9492 12.9439 86.2928C13.104 90.6411 13.3387 95.0749 13.7134 99.4683L13.7989 100.434L13.7927 100.442C13.788 100.449 13.7849 100.479 13.7989 100.455C13.802 100.482 13.8098 100.468 13.8176 100.466C13.8502 100.446 13.7709 100.504 13.8969 100.421L14.2466 100.197L14.9571 99.7575C15.9163 99.1854 16.8911 98.6304 17.9094 98.1375C19.9304 97.1317 22.0835 96.3202 24.3113 95.7527L24.344 95.8445Z" fill="#231F20"/>
<path fill-rule="evenodd" clip-rule="evenodd" d="M57.545 173.677L57.5295 173.637L57.4984 173.551C57.4984 173.551 57.4751 173.494 57.4937 173.534L57.2761 173.057C56.9683 172.415 56.7102 171.746 56.4459 171.084C55.9469 169.744 55.5023 168.377 55.196 166.964C54.5384 164.155 54.3596 161.193 54.7281 158.271C55.5085 152.386 58.8354 147.017 63.6299 143.649C65.3959 142.41 67.4698 141.408 69.5328 140.876C71.5989 140.301 73.7396 140.01 75.8773 140.041C79.6379 140.123 83.4281 141.095 86.6509 143.135C89.9062 145.097 92.4543 148.256 93.8037 151.751C95.1236 155.239 95.6257 158.939 95.3506 162.589C95.2153 164.413 94.9122 166.235 94.3152 167.984C94.0167 168.855 93.7027 169.728 93.2658 170.549C93.0482 170.96 92.8678 171.387 92.6004 171.773L92.2258 172.363C92.1185 172.525 91.9351 172.834 91.8962 172.861L91.5557 173.279C91.4764 173.421 91.321 173.533 91.2075 173.663C91.1173 173.766 90.8313 173.965 91.1126 174.007C91.4438 174.106 91.792 174.15 92.1403 174.198L93.7913 174.391L95.946 174.593C98.8236 174.835 101.709 174.991 104.576 175.089C108.495 175.227 112.424 175.208 116.34 175.121C120.242 175.013 124.198 174.916 127.942 174.064C129.095 173.78 129.573 173.613 129.605 173.756C129.629 173.879 129.165 174.305 128.201 174.779C126.286 175.749 122.452 176.852 117.876 177.279C112.719 177.76 107.568 177.714 102.419 177.61C99.8435 177.54 97.2674 177.424 94.679 177.228L92.731 177.058L91.2541 176.898C90.6338 176.825 90.0135 176.732 89.4305 176.615C88.1993 176.381 87.6458 175.835 87.3955 175.243C87.2789 175.028 87.3738 174.897 87.3909 174.714L87.4841 174.206L87.5805 173.697C87.6007 173.612 87.6069 173.531 87.6365 173.442L87.9894 173.066L89.3481 171.41C89.6389 171.073 89.6155 171.036 89.7259 170.871L89.9762 170.457C90.3384 169.924 90.5732 169.302 90.867 168.721C91.3598 167.497 91.7469 166.215 91.9988 164.886C92.4963 162.232 92.5414 159.424 92.0687 156.714C91.6816 154.504 90.9634 152.29 89.7928 150.418C88.6035 148.543 86.9385 146.965 84.9952 145.81C81.0993 143.463 76.1773 142.888 71.7077 143.847C66.736 144.714 62.5852 148.194 60.1926 152.644C59.0173 154.869 58.3301 157.327 58.1451 159.853C57.9912 162.38 58.2928 164.963 59.0266 167.448C59.3002 168.447 59.6593 169.43 60.0558 170.395C60.2408 170.885 60.474 171.354 60.6901 171.832C60.9823 172.489 61.4674 173.296 61.8451 174.016C62.1079 174.439 62.1048 174.705 62.1576 175.002L62.3084 175.886L62.3271 175.997L62.3317 176.025L62.3333 176.031C62.5478 176.135 62.0426 175.894 62.0939 175.92L62.0923 175.925L62.0892 175.942C62.0846 175.964 62.0721 175.975 62.0644 175.992L61.9478 176.149L61.7037 176.457C61.5078 176.654 61.1907 176.796 60.8051 176.894C60.0449 177.097 59.1681 177.2 58.3301 177.318L56.4381 177.548C54.1684 177.803 51.9048 178.016 49.6382 178.201C44.5468 178.613 39.4336 178.88 34.3064 178.915C31.7444 178.926 29.1777 178.884 26.6048 178.7C25.3175 178.61 24.0287 178.479 22.7337 178.28C21.4325 178.05 20.1577 177.854 18.8005 177.257C16.6318 176.343 15.2109 174.489 14.1848 172.693C13.1572 170.855 12.5214 168.912 12.0037 166.972C10.9978 163.078 10.5641 159.14 10.3604 155.2C10.2718 153.464 10.2469 151.765 10.2905 150.017C10.4957 143.541 11.2326 141.512 12.2229 140.245C12.4561 139.957 12.7017 139.573 12.9116 139.432C13.266 139.202 13.4355 139.708 13.5707 140.865C13.6982 142.023 13.8241 143.834 13.8024 146.137C13.7884 149.555 14.0029 153.013 14.2283 156.456C14.4849 159.895 14.9202 163.351 15.7768 166.588C16.5992 169.761 18.1227 172.925 20.1484 173.851C20.5541 174.077 21.4014 174.3 22.1632 174.458C22.9529 174.622 23.7924 174.745 24.6444 174.843C26.3545 175.04 28.1252 175.138 29.9068 175.191C35.2097 175.333 40.6198 175.114 46.0128 174.761C48.7101 174.579 51.4105 174.355 54.0953 174.08L57.3087 173.722C57.3585 173.716 57.5046 173.735 57.4284 173.651L57.545 173.677Z" fill="#231F20"/>
<path fill-rule="evenodd" clip-rule="evenodd" d="M155.418 123.931C154.782 125.514 153.967 127.034 152.919 128.422C151.875 129.834 150.601 131.023 149.232 132.032C146.465 134.078 143.096 135.199 139.795 135.466C137.386 135.715 134.973 135.65 132.645 135.238C131.618 135.056 130.607 134.824 129.611 134.554L128.868 134.344L128.499 134.234L128.327 134.181L128.275 134.162L127.854 133.996C127.713 133.951 127.543 133.84 127.402 133.853C127.388 133.994 127.361 134.143 127.355 134.299L127.361 134.79L127.521 136.023C128.1 139.816 129.098 143.689 129.844 147.591C130.519 151.061 131.2 154.565 131.649 158.074C131.933 160.328 132.168 162.61 132.084 164.906L132.036 166.626L131.733 168.334C131.553 169.468 131.301 170.587 131.012 171.691C130.652 173.067 130.483 172.823 130.287 171.601C130.172 170.988 130.099 170.142 129.909 169.132C129.793 168.607 129.673 168.067 129.549 167.507C129.48 167.221 129.448 166.929 129.359 166.631C129.331 166.331 129.305 166.027 129.275 165.715C128.924 161.318 128.406 156.917 127.514 152.502C126.631 148.092 125.625 143.647 124.879 139.016C124.771 138.315 124.661 137.612 124.552 136.908L124.415 135.821L124.339 135.246C124.292 134.989 124.292 134.67 124.288 134.398C124.292 133.288 124.097 131.995 124.554 131.334L124.784 130.731C125.001 130.686 125.09 130.504 125.236 130.44C125.57 130.342 126.006 130.304 126.54 130.401C127.078 130.509 127.669 130.733 128.235 130.918L129.626 131.353C130.282 131.543 130.94 131.718 131.601 131.869C132.922 132.175 134.253 132.402 135.581 132.53C138.494 132.836 141.457 132.547 144.092 131.441C146.712 130.366 149.066 128.475 150.629 126.122C152.573 123.179 153.596 119.521 153.492 115.959C153.401 113.254 152.728 110.535 151.394 108.194C150.09 105.829 148.08 103.959 145.69 102.78C141.942 100.943 137.589 101 133.578 101.907C132.684 102.095 131.836 102.392 130.956 102.656C129.325 103.158 128.279 103.565 127.472 103.701C126.654 103.816 126.11 103.754 125.535 103.461C125.273 103.332 124.959 103.234 124.759 103.077C124.421 102.813 124.507 102.376 124.987 101.801C125.465 101.223 126.351 100.525 127.636 99.9307C131.428 98.1475 135.828 97.109 140.439 97.5039C145.005 97.8646 149.875 99.9555 152.961 103.903C157.485 109.694 158.025 117.57 155.499 123.951L155.418 123.931Z" fill="#231F20"/>
<path fill-rule="evenodd" clip-rule="evenodd" d="M125.651 39.4406C125.59 39.7499 125.189 39.6209 124.583 39.2447C124.388 39.1234 123.942 38.6291 123.933 38.5093C123.911 38.2761 123.895 38.0445 123.916 37.8502C123.93 37.7305 124.736 36.5008 124.982 36.0639C125.225 35.6379 125.534 35.2959 125.86 34.9726C126.518 34.3149 127.141 33.634 127.749 32.9686C127.885 32.8209 128.049 32.7028 128.231 32.6064C128.862 32.2768 129.332 31.7762 129.707 31.2166C129.769 31.1248 129.861 31.0518 129.834 30.8885C129.823 30.6258 130.865 29.2297 131.062 29.1007C131.569 28.7805 132.004 28.398 132.513 28.042C132.586 27.9907 132.587 27.8928 132.757 27.9036C133.15 27.927 133.184 27.7404 133.32 27.6083C133.506 27.4248 133.676 27.2305 133.903 27.0579C134.015 26.9724 134.234 26.9367 134.419 26.8776C134.587 26.8247 134.955 27.0502 134.983 27.1092C135.061 27.274 135.294 27.2694 135.465 27.33C135.524 27.3518 135.6 27.3782 135.644 27.4031C135.715 27.4186 135.97 29.3992 135.84 29.5718C135.835 29.5811 135.779 29.7381 135.694 29.9729C135.603 30.2045 135.484 30.5108 135.359 30.8279C135.055 31.4047 134.734 32.0063 134.652 32.1602C134.591 32.297 134.433 32.3654 134.302 32.4494C134.263 32.51 133.208 34.175 133.136 34.2186C132.838 34.4922 132.64 34.8544 132.141 34.9259C132.043 34.9384 131.998 35.0068 131.947 35.0674C131.494 35.5711 130.921 35.9458 130.378 36.3344C130.1 36.535 129.875 36.7837 129.621 37.0045C129.574 37.0433 129.5 37.0527 129.441 37.0775C129.368 37.1086 129.282 37.1304 129.228 37.1817C128.654 37.7227 127.951 38.1145 127.446 38.7099C127.327 38.8467 126.464 39.1545 126.339 39.3224C126.266 39.4126 125.674 39.3146 125.651 39.4406Z" fill="#231F20"/>
<path fill-rule="evenodd" clip-rule="evenodd" d="M73.3222 0.516292C73.1667 0.220912 73.5787 0.0623395 74.3265 0.00170886C74.5643 -0.0169467 75.2561 0.121415 75.3417 0.208475C75.5111 0.382594 75.6728 0.552048 75.7816 0.71373C75.8376 0.811672 75.9837 2.2155 76.0863 2.69589C76.1718 3.15917 76.1625 3.61623 76.1205 4.06707C76.0521 4.98897 76.0288 5.91864 75.993 6.85142C75.9853 7.05818 75.9402 7.26339 75.8625 7.46705C75.5982 8.16352 75.5546 8.87866 75.5935 9.5969C75.5997 9.7166 75.5748 9.83942 75.6883 9.95912C75.8733 10.1566 75.8283 12.103 75.7303 12.3533C75.4925 12.9736 75.3277 13.5985 75.0758 14.2219C75.0416 14.3121 75.0789 14.4085 74.9343 14.4862C74.6001 14.6681 74.6405 14.864 74.6016 15.0583C74.5721 15.3288 74.4291 15.5962 74.2736 15.8621C74.2006 15.9942 74 16.1217 73.8632 16.2492C73.7342 16.3642 73.4061 16.2896 73.3611 16.2461C73.2476 16.1201 73.0719 16.2134 72.9273 16.2196C72.8776 16.2227 72.8123 16.2243 72.7703 16.2181C72.719 16.2103 72.4454 15.8076 72.1469 15.3863C71.881 14.9666 71.696 14.5282 71.6852 14.4427C71.682 14.4225 71.5981 13.8426 71.5095 13.2254C71.4597 12.6144 71.4069 11.9739 71.3805 11.8433C71.3525 11.705 71.4364 11.5713 71.4893 11.436C71.511 11.3738 71.3291 9.52538 71.3447 9.45076C71.4007 9.07143 71.3012 8.68122 71.609 8.31743C71.6712 8.24592 71.6587 8.16663 71.6587 8.09201C71.6525 7.43129 71.8064 6.78146 71.9292 6.12851C71.9899 5.79582 71.9805 5.45536 72.0116 5.11956C72.0163 5.05893 72.0645 5.0014 72.0894 4.94233C72.1189 4.86771 72.164 4.79464 72.1686 4.71846C72.2106 3.91627 72.4469 3.13585 72.4189 2.31811C72.4112 2.13 72.862 1.29205 72.8527 1.07285C72.8449 0.948479 73.3813 0.634444 73.3222 0.516292Z" fill="#231F20"/>
<path fill-rule="evenodd" clip-rule="evenodd" d="M118.054 65.6485C116.172 65.4759 114.278 65.3002 112.375 65.2583C111.679 65.2598 110.992 65.2598 110.294 65.2598C107.847 65.2318 105.392 65.3049 102.942 65.4806C101.858 65.5894 100.767 65.7075 99.7005 65.877C98.3231 66.0651 96.9737 66.4242 95.5667 66.4538C95.1268 66.4631 95.1345 66.2128 95.4439 65.863C95.7502 65.5132 96.3549 65.0173 97.1556 64.8649C99.9788 64.2726 102.853 63.9539 105.76 63.9322C107.497 63.9213 109.294 63.7658 111.07 63.7627C113.021 63.7705 114.973 63.8311 116.918 64.0006C118.117 64.0829 119.308 64.2602 120.5 64.4001C122.3 64.6706 124.099 65.0002 125.859 65.4262C127.228 65.7449 128.586 66.0449 129.913 66.5284L130.79 66.8393C131.852 67.3306 132.136 67.6057 132.178 68.0271C132.188 68.1234 132.213 68.2292 132.2 68.3131C132.155 68.6023 131.634 68.5976 130.886 68.3147C128.645 67.5125 126.205 66.8999 123.702 66.446C121.849 66.09 119.951 65.8692 118.054 65.6873V65.6485Z" fill="#231F20"/>
<path fill-rule="evenodd" clip-rule="evenodd" d="M8.87504 26.0188C8.55789 25.9738 8.65894 25.5696 9.00096 24.9586C9.10978 24.7643 9.58239 24.3056 9.7021 24.2885C9.93529 24.2559 10.1654 24.2279 10.3628 24.2357C10.481 24.2435 11.7651 24.9446 12.2284 25.1529C12.6746 25.3597 13.043 25.6426 13.3975 25.9427L15.5848 27.7367C15.745 27.8704 15.8802 28.0305 15.989 28.2187C16.3684 28.8514 16.869 29.3644 17.4442 29.7997C17.539 29.8728 17.6136 29.9707 17.7846 29.9598C18.0676 29.9412 19.4947 31.2564 19.6098 31.4989C19.8989 32.099 20.2518 32.6338 20.5767 33.1997C20.6234 33.279 20.726 33.3085 20.6825 33.4733C20.5799 33.8542 20.7555 33.949 20.8737 34.1045C21.0385 34.3206 21.1908 34.5507 21.3028 34.8212C21.3572 34.9549 21.3168 35.1865 21.3043 35.3902C21.2934 35.5736 20.897 35.897 20.8286 35.9079C20.6312 35.9405 20.5363 36.1815 20.3995 36.3416C20.3529 36.396 20.2922 36.4675 20.2487 36.5048C20.1601 36.5795 18.3754 36.2079 18.2557 36.0866C18.2401 36.0758 17.7784 35.7322 17.2856 35.3668C16.7959 35.0062 16.2797 34.6346 16.1631 34.5693C16.0419 34.5025 15.9999 34.3501 15.9377 34.2211C15.9066 34.162 14.394 33.1235 14.3473 33.0675C14.1033 32.7815 13.7395 32.6151 13.6804 32.141C13.6695 32.0462 13.6027 32.0073 13.5436 31.9591C13.0446 31.5471 12.6839 30.9952 12.2812 30.4869C12.076 30.2257 11.8164 30.0205 11.5863 29.7842C11.5459 29.7422 11.535 29.6676 11.5055 29.6132C11.4713 29.5416 11.4464 29.4608 11.392 29.4095C10.8199 28.8794 10.3799 28.2171 9.74407 27.7538C9.59794 27.6434 9.22327 26.8086 9.04449 26.6951C8.94655 26.6283 9.00252 26.0359 8.87504 26.0188Z" fill="#231F20"/>
</svg>
