<svg width="203" height="188" viewBox="0 0 203 188" fill="none" xmlns="http://www.w3.org/2000/svg">
<path fill-rule="evenodd" clip-rule="evenodd" d="M173.128 75.565C170.591 63.8703 165.497 52.6984 158.261 43.1597C151.045 33.6244 141.635 25.6749 130.702 20.7982C126.74 18.9626 122.571 17.581 118.321 16.5779C114.069 15.58 109.74 14.8778 105.372 14.605C89.9565 13.5156 74.2809 17.1974 60.624 24.6577C46.9723 32.0458 35.0858 43.1509 27.8966 56.9539C21.6929 69.275 18.7221 83.4072 18.9615 97.1046C19.1744 105.929 20.8217 114.711 23.8681 122.952C26.8706 131.222 31.485 138.827 37.1537 145.525C40.7246 149.645 39.424 150.092 35.2583 147.378C34.2041 146.706 32.9722 145.835 31.7508 144.638C31.1225 144.056 30.4608 143.426 29.7709 142.744C29.4277 142.401 29.0757 142.048 28.7167 141.687C28.3946 141.296 28.0638 140.897 27.7276 140.488C26.4271 138.818 24.8871 137.048 23.6886 134.897C23.0533 133.845 22.4109 132.748 21.7686 131.617C21.1913 130.453 20.6633 129.23 20.1178 127.988C18.1783 123.577 16.8514 118.94 15.7232 114.276C15.2973 111.918 14.8063 109.565 14.5089 107.189C14.2977 104.806 13.9053 102.432 13.9 100.035C13.4794 90.475 14.5828 80.8834 17.0555 71.6685C18.4036 67.0804 19.8854 62.575 21.9076 58.1876C23.8611 53.7631 26.3672 49.6133 29.1884 45.7239C34.8183 37.9204 41.9213 31.2925 49.8005 25.916C59.2125 19.4536 69.9779 14.6226 81.3593 11.9018C92.7495 9.21968 104.789 8.8853 116.255 11.2101C128.865 13.6828 140.837 19.5169 150.513 27.9522C160.276 36.303 167.78 47.0667 172.769 58.7824C175.849 66.0016 177.986 73.615 179.109 81.3727C180.201 89.1374 180.244 97.0483 179.204 104.813C177.718 116.601 173.475 127.968 167.389 138.119C161.136 148.165 152.939 157.074 143.067 163.536C127.823 173.835 109.365 177.952 91.3292 177.158C89.337 177.058 87.3694 176.897 85.3965 176.751C83.4378 176.5 81.4596 176.32 79.4779 175.977C72.1145 174.778 67.4102 173.277 64.1931 172.066C62.5916 171.424 61.3543 170.857 60.3617 170.308C59.3815 169.719 58.6388 169.161 58.0123 168.582C57.4438 168.054 56.6642 167.45 56.3843 167.03C55.9127 166.317 57.1517 166.285 59.7317 166.847C62.3047 167.457 66.2856 168.404 71.3964 169.62C86.551 172.929 102.844 173.615 118.244 169.472C133.687 165.59 147.652 156.289 157.652 143.646C165.086 134.26 170.334 123.127 173.061 111.423C175.81 99.7075 175.645 87.3863 173.017 75.6195L173.128 75.565Z" fill="#221F1F"/>
<path fill-rule="evenodd" clip-rule="evenodd" d="M60.7646 147.66C54.1895 154.24 47.5757 160.812 40.6945 167.153C38.1813 169.465 35.7122 171.834 33.0793 174.034C28.4138 177.881 23.6145 181.647 18.0356 184.512C15.2584 185.883 12.1469 187.168 8.63057 187.043C6.98505 187.011 5.17762 186.67 3.54265 185.679C1.88657 184.702 0.71095 182.906 0.318489 181.174C-0.376678 178.066 0.188255 175.215 0.848223 172.527C1.57859 169.847 2.56766 167.3 3.67641 164.844C6.58731 158.58 10.0403 152.5 15.0701 147.565C16.7227 146.055 17.2137 147.118 16.779 149.094C16.3601 151.097 15.1898 154.127 13.1236 157.246C11.2951 160.016 9.60732 162.899 8.14483 165.856C6.68586 168.807 5.42752 171.859 4.6954 174.87C3.96327 177.848 4.01431 180.919 5.4064 181.902C6.06813 182.515 7.32823 182.902 8.78368 182.962C10.1265 183.071 11.5573 182.807 13.0603 182.328C16.6575 181.17 20.1897 178.863 23.5318 176.408C26.8862 173.916 30.098 171.137 33.2641 168.358C40.2123 162.209 46.8841 155.669 53.4926 149.061L65.6448 136.783C71.7675 130.566 77.98 124.364 84.2506 118.341C89.1467 113.678 93.8721 109 99.4088 104.954C100.642 104.077 101.86 103.211 103.231 102.451C108.346 99.637 111.251 100.204 112.242 101.524C112.485 101.851 112.767 102.192 112.825 102.474C112.916 102.963 112.379 103.178 111.589 103.384C110.787 103.591 109.593 103.924 107.969 104.644C105.561 105.719 103.18 107.374 100.862 109.153C98.5376 110.937 96.255 112.894 93.9918 114.924C89.4652 118.989 84.9968 123.332 80.5583 127.745C73.9727 134.309 67.4135 141.02 60.8473 147.725L60.7646 147.66Z" fill="#7877C6"/>
<path fill-rule="evenodd" clip-rule="evenodd" d="M105.172 84.0563C105.413 84.3608 105.666 84.6617 105.928 84.9574L106.534 85.6068L107.378 86.4463C107.407 86.9936 107.387 87.6518 107.276 88.229C107.178 88.5194 107.049 88.8081 106.923 89.0914L106.391 89.8939C105.772 90.656 105.275 91.0801 104.756 91.5782C104.343 91.9636 104.448 91.8474 104.334 91.9706C104.241 92.0498 104.29 92.1765 104.39 92.2082C104.494 92.261 104.515 92.298 104.733 92.2997C104.967 92.3385 105.226 92.3349 105.502 92.2927C105.775 92.2593 106.036 92.2751 106.324 92.1941C107.447 92.0111 108.617 91.5588 109.767 91.0942C112.072 90.1016 114.309 88.7658 116.484 87.3473C119.145 85.5874 121.665 83.5934 124.177 81.5906C128.607 78.055 132.855 74.2571 136.943 70.3025C140.979 66.3287 145.06 62.2298 148.328 57.7473C149.701 55.8237 150.322 53.5094 149.125 51.6985C148.3 50.0178 145.646 50.72 143.547 51.7178C140.755 53.0413 138.147 54.9438 135.615 56.8814C133.082 58.8402 130.613 60.9028 128.146 62.9549C125.127 65.5983 126.783 59.9525 132.786 55.1585C135.451 53.0765 138.198 51.0807 141.357 49.4651C142.95 48.682 144.634 47.934 146.816 47.7598C147.901 47.707 149.323 47.9252 150.438 48.8562C151.561 49.8717 151.94 50.7569 152.313 51.8498C153.01 54.0796 152.369 56.3816 151.445 58.0289C150.472 59.7536 149.389 60.9926 148.291 62.3196C146.088 64.9119 143.751 67.323 141.35 69.6831C135.585 75.2866 129.538 81.0609 122.971 86.0714C120.013 88.2906 116.982 90.4395 113.667 92.2241C112.018 93.1216 110.296 93.9347 108.42 94.4996C107.486 94.7847 106.502 94.9942 105.458 95.0558C105.207 95.0927 104.932 95.0698 104.661 95.0505C104.415 95.0206 103.971 95.0294 103.658 94.9414C103.026 94.6756 102.338 94.5471 101.766 94.16C101.361 93.8027 100.886 93.4648 100.819 92.8506C100.747 92.2786 100.983 91.7823 101.294 91.2843C101.592 90.7915 102.101 90.304 102.504 89.908L103.445 89.0122C103.79 88.6743 104.212 88.2167 104.283 88.0883C104.402 87.8982 104.58 87.6008 104.411 87.4089L103.964 86.9267L103.192 86.0292C102.69 85.4132 102.213 84.7691 101.778 84.0774C101.353 83.3418 100.969 82.6853 100.724 81.6382C100.448 80.5189 100.812 79.3573 101.622 78.6357C102.086 78.4615 102.592 78.3559 103.112 78.3172C103.686 78.2662 103.952 78.2908 104.367 78.3031C105.129 78.3436 105.865 78.4598 106.587 78.6076C107.136 78.722 107.672 78.8645 108.206 79.0194L108.92 79.2447L109.314 79.389C109.464 79.5069 109.534 79.2764 109.642 79.2165L109.999 78.8663L111.134 77.7487C112.352 76.5414 113.568 75.3377 114.777 74.1392L113.056 73.275L110.309 71.809C108.494 70.8024 106.708 69.7499 104.99 68.5532C103.982 67.8387 102.986 67.1048 102.078 66.1615C101.648 65.6933 101.161 65.1953 100.837 64.3171C100.494 63.504 100.724 62.5748 101.291 61.9377C103.032 59.9173 105.492 59.5459 107.56 59.5143C109.679 59.4861 111.689 59.7325 113.69 59.9806C115.097 60.1566 116.465 60.3273 117.866 60.5403C123.056 61.3358 124.666 61.7529 125.673 62.6663C125.9 62.8722 126.211 63.0904 126.335 63.284C126.752 63.9264 124.557 64.1076 120.72 63.6729C117.563 63.3192 114.36 62.8634 111.194 62.5378C109.622 62.39 108.038 62.2685 106.632 62.39C105.912 62.4287 105.307 62.6012 104.76 62.7947C104.517 62.9373 104.244 63.0147 104.04 63.2066C103.933 63.2946 103.815 63.3579 103.711 63.4565L103.57 63.6025L103.581 63.5937C103.565 63.6166 103.574 63.6448 103.589 63.6606C103.596 63.6729 103.584 63.6448 103.623 63.6976C103.662 63.7715 103.741 63.8613 103.815 63.951C103.947 64.127 104.151 64.3241 104.337 64.5142C105.145 65.2833 106.162 66.033 107.217 66.7334C109.336 68.1414 111.643 69.4173 113.976 70.6246L116.342 71.8055L119.568 73.3155C116.849 76.0223 114.122 78.7343 111.396 81.4481L110.652 82.1873C110.4 82.416 110.187 82.812 109.821 82.541L107.915 81.8828C107.296 81.6839 106.675 81.5079 106.06 81.3795C105.446 81.251 104.835 81.1559 104.253 81.1225L103.598 81.1119H103.558C103.54 81.1225 103.526 81.1419 103.526 81.1647C103.524 81.1788 103.523 81.1823 103.53 81.2052C103.574 81.2827 103.605 81.4956 103.706 81.6698C104.036 82.4108 104.6 83.2326 105.219 84.0035L105.172 84.0563Z" fill="#7C3AED"/>
<path fill-rule="evenodd" clip-rule="evenodd" d="M136.585 90.8147C136.881 89.9277 137.045 88.687 137.161 87.5237C137.277 86.3393 137.337 85.1285 137.368 83.9159C137.391 83.0306 137.321 82.1436 137.317 81.2584C137.319 79.7361 137.27 78.0395 137.182 76.6721C137.184 76.3799 137.173 76.0402 137.129 75.6654C137.103 75.4771 137.076 75.2782 137.011 75.0846C136.983 74.9984 136.92 74.8681 136.832 74.8963C136.761 74.935 136.715 75.0037 136.663 75.0653C136.49 75.2958 136.314 75.5967 136.124 75.8836C136.015 76.049 135.971 76.1247 135.8 76.3518C135.57 76.6562 135.322 76.9519 135.052 77.237C134.72 77.5978 134.306 77.9691 133.928 78.2577C133.565 78.5428 133.196 78.8192 132.817 79.0849C132.057 79.6111 131.258 80.0845 130.366 80.4154C130.116 80.4981 129.804 80.4594 129.855 80.1092C129.707 80.0581 129.663 79.9033 129.66 79.729C129.646 79.5583 129.649 79.37 129.67 79.1694C129.762 78.3669 130.14 77.4042 130.957 76.8533C131.661 76.3694 132.497 75.8238 132.932 75.4208C133.192 75.1849 133.449 74.9174 133.695 74.6147C134.202 73.9987 134.737 73.117 135.228 72.3691C135.482 71.9502 135.739 71.6985 135.992 71.4416C136.235 71.3166 136.466 71.2146 136.657 71.1706C137.039 71.1037 137.317 70.7763 137.896 71.2427C138.32 71.3923 138.63 71.7408 138.896 72.311C139.139 72.927 139.322 73.6767 139.408 74.5038C139.677 76.7724 139.663 77.5027 139.767 78.7382C139.848 79.8927 139.92 81.0507 139.926 82.2C139.927 84.7325 139.85 87.2509 139.461 89.8292C139.311 90.6317 139.204 91.4219 138.748 92.3353C138.361 93.1765 137.303 94.2325 136.165 94.0319C135.293 93.9474 134.567 93.4177 134.113 93.0111C133.609 92.5729 133.22 92.0872 132.837 91.6014C132.097 90.6194 131.48 89.5916 130.902 88.555C130.021 86.9359 129.139 85.3555 128.511 83.5692C128.379 83.1732 128.233 82.7825 128.139 82.3513C127.784 80.7955 128.252 79.7677 129.113 79.7519C129.311 79.7519 129.5 79.7783 129.626 79.8698C129.978 80.3767 130.295 80.3556 130.473 81.1634C131.228 83.6888 132.698 86.7722 134.352 89.2607C134.665 89.7271 135.003 90.1512 135.337 90.5349C135.63 90.8992 136.117 91.2618 136.18 91.3075C136.217 91.341 136.216 91.3462 136.247 91.3445C136.219 91.4078 136.402 91.1914 136.522 90.7971L136.585 90.8147Z" fill="#673FD7"/>
<path fill-rule="evenodd" clip-rule="evenodd" d="M109.512 90.5585C109.107 90.9844 108.685 91.4825 108.222 91.7113C107.886 91.9225 107.536 92.0703 107.177 92.1724C106.459 92.3748 105.718 92.3765 104.949 92.3501C104.459 92.3343 103.771 91.6215 104.074 91.1235C104.607 90.2752 105.128 89.4515 105.591 88.7194C105.612 88.6895 105.653 88.6367 105.711 88.561C105.734 88.5241 105.763 88.4783 105.799 88.4238C105.867 88.3182 105.952 88.1826 106.022 88.0366C106.191 87.7726 106.159 87.2657 105.679 87.1918C105.658 87.1337 105.561 87.1302 105.512 87.1056L105.42 87.0739L105.084 86.8433C104.63 86.5301 104.158 86.2133 103.66 85.8367C103.402 85.6378 103.152 85.4442 102.84 85.1503C102.699 85.0218 102.518 84.8353 102.326 84.603C102.254 84.5273 102.096 84.3003 101.988 84.1331C101.916 84.0116 101.909 84.0204 101.79 83.7899C101.693 83.591 101.61 83.3798 101.547 83.1651L101.464 82.8431C101.443 82.7744 101.381 82.3256 101.397 82.0617C101.425 81.4052 101.548 80.8772 101.902 80.2701C102.231 79.6594 102.981 79.0522 103.419 78.8621C103.69 78.7284 103.989 78.6245 104.289 78.5577C104.419 78.5277 104.63 78.4961 104.693 78.4908L104.868 78.4767C105.434 78.4521 105.595 78.4943 105.811 78.5172C106.14 78.5682 106.323 78.6122 106.489 78.6492C106.795 78.7143 106.999 78.7865 107.168 78.8797C107.912 79.3162 108.574 79.4746 109.202 79.6717L109.649 79.8072C109.853 79.8688 109.732 79.8178 109.781 79.8283L109.824 79.8019C109.846 79.7843 109.857 79.7579 109.864 79.7403C110.151 79.4816 110.728 78.9431 111.163 78.5084C112.113 77.5686 113.048 76.5602 113.907 75.5429C114.341 75.0396 114.734 74.5099 115.124 74.0312C115.107 74.0593 115.116 74.0206 115.116 74.0206C115.114 74.003 115.093 73.9924 115.082 73.996L115.066 74.0012C115.205 74.0664 114.776 73.8675 114.528 73.7654L113.632 73.3994L112.749 73.0368L111.796 72.6039C111.393 72.4085 110.777 72.1146 110.177 71.7926C109.121 71.2294 107.976 70.6627 106.666 69.795C106.012 69.341 105.278 68.8289 104.449 67.8363C104.253 67.611 104.019 67.2484 103.835 66.9457C103.812 66.9123 103.697 66.7029 103.601 66.4811C103.507 66.2717 103.428 66.0535 103.363 65.8352C103.305 65.6645 103.229 65.2985 103.208 64.9324C103.185 64.5734 103.203 64.2073 103.256 63.8641C103.56 62.2327 104.671 61.2771 105.204 60.9497C105.85 60.5379 106.196 60.4429 106.594 60.3021C107.861 59.9677 108.528 59.9571 109.266 59.9554C109.973 59.9606 110.598 60.0082 111.223 60.0539C112.456 60.156 113.629 60.2933 114.787 60.4464C115.554 60.5766 116.335 60.6505 117.099 60.5432C117.733 60.4376 121.135 60.7931 124.538 61.3914L125.814 61.622L126.362 61.7258C126.367 61.7082 126.367 61.7364 126.372 61.7223C126.349 61.7346 126.434 61.7399 126.698 61.6273C127.197 61.4196 127.856 60.911 128.088 60.7561C128.676 60.3725 129.522 59.665 130.277 59.0719L132.65 57.2064C134.262 55.9692 135.928 54.7618 137.706 53.6584C138.229 53.3592 138.695 52.9139 139.306 52.8365C140.714 52.6587 141.759 51.9178 143.021 51.3934C144.717 50.6665 146.725 50.0998 148.918 50.4307C149.99 50.612 151.009 51.2367 151.701 52.0217C152.352 52.6799 151.395 53.1216 151.148 53.1058C150.367 53.0037 150.708 53.6601 150.545 53.9804C150.499 54.0948 150.434 54.2409 150.36 54.3148C150.34 54.3359 150.212 54.3324 150.024 54.3078C149.927 54.3008 149.826 54.2656 149.7 54.255C149.568 54.2656 149.42 54.2796 149.26 54.2937C148.67 54.2691 147.799 54.5982 146.933 55.0047C145.145 55.9445 143.355 57.5918 142.97 57.8452C142.919 57.8593 142.254 58.3591 141.264 59.1335C140.275 59.9272 138.978 61.0307 137.685 62.2538C136.388 63.4805 135.108 64.7863 134.005 65.9092C132.813 67.1517 131.412 68.1654 130.911 68.4575C129.871 69.1104 128.472 69.5469 126.863 69.5592C126.772 69.5645 126.363 69.5927 125.716 69.5575C125.554 69.5381 125.378 69.517 125.188 69.4959C125.038 69.473 124.876 69.4483 124.704 69.4237C124.484 69.3885 124.237 69.3498 123.972 69.3093C122.903 69.1456 121.506 68.9538 120.105 68.7849C117.298 68.4487 114.524 68.2305 114.318 68.2446C113.225 68.1759 112.127 68.2023 111.115 68.227C110.645 68.2305 110.179 68.2358 109.702 68.2393C109.489 68.234 109.299 68.2375 109.16 68.1988C109.084 68.183 109.019 68.1636 109 68.1407L108.975 68.1214C108.956 68.0721 108.977 68.2182 108.931 67.9401C108.863 67.56 108.771 67.1816 108.651 66.8085C108.572 66.548 108.495 66.2981 108.419 66.0517C108.347 65.8317 108.222 65.5871 108.134 65.4005C108.078 65.2404 107.992 65.0873 107.881 64.9482C107.754 64.8004 107.766 64.7599 107.657 64.6843C107.511 64.5663 107.513 64.635 107.652 64.6015C107.689 64.5875 107.896 64.5575 107.983 64.4924L108.06 64.4414L108.08 64.4273L108.088 64.4185L109.003 63.9028L109.044 63.8835L109.199 63.799C109.56 63.5614 110.084 63.139 110.591 62.5741C110.633 62.5301 110.651 62.5935 110.744 62.641C110.924 62.7519 111.184 62.9138 111.517 63.0774C112.175 63.4136 112.984 63.7603 113.893 64.144C114.357 64.3393 114.815 64.5399 115.432 64.8426L116.668 65.4481L118.137 66.1749L118.984 66.6254C119.406 66.8507 119.776 67.0971 120.17 67.3347C121.736 68.3396 123.026 69.5856 123.736 71.1308C124.068 71.9175 124.214 72.7887 124.17 73.6281C124.146 74.0435 124.1 74.4571 123.931 74.8566C123.82 75.2631 123.651 75.6644 123.44 76.0621C123.204 76.6517 122.711 77.1603 122.286 77.6777C122.025 78.0103 121.742 78.3166 121.444 78.6281C121.205 78.885 120.971 79.1332 120.737 79.3831C118.898 81.3102 116.983 82.8994 114.878 84.4587L114.058 85.043C113.949 85.1538 113.665 85.2805 113.453 85.4301L112.78 85.8613C112.314 86.0901 111.832 86.2784 111.341 86.4421C110.836 86.5653 110.316 86.567 109.797 86.516C107.346 86.1341 106.517 85.548 105.304 85.3967C105.209 85.3879 105.081 85.3738 104.922 85.3562C104.848 85.3439 104.776 85.3545 104.716 85.3193L104.642 85.2929L104.628 85.2858L104.623 85.2823L104.736 84.7966C105.044 83.5453 105.213 82.4172 105.051 82.1532C105.026 82.1109 105.038 82.1602 105.153 82.1215C105.218 82.1092 105.278 82.0845 105.331 82.0476L105.931 81.7308C106.247 81.5742 106.362 81.4193 106.784 81.1289C106.964 80.9916 107.136 80.8491 107.303 80.696C107.456 80.5604 107.696 80.3141 107.632 80.395L107.659 80.439C107.71 80.4989 107.75 80.5534 107.835 80.6379C108.136 80.9547 108.611 81.3753 109.079 81.7942L109.472 82.1391C109.678 82.2957 109.834 82.4981 110.012 82.6688C110.378 83.0015 110.649 83.3605 110.941 83.6597C111.221 84.0979 111.488 84.4463 111.622 84.7966C111.798 85.1204 111.92 85.3967 111.997 85.6132C112.284 86.1341 112.018 87.4611 111.422 88.4413C110.742 89.4463 109.861 90.2294 109.512 90.5585Z" fill="#5643CC"/>
<path fill-rule="evenodd" clip-rule="evenodd" d="M185.003 64.0595C186.538 65.4657 188.046 67.7923 188.861 69.9288C190.005 72.9242 190.169 76.1413 188.926 79.1332C188.138 81.0339 191.726 81.055 192.346 79.5626C194.894 73.4222 192.52 66.3491 187.751 61.9793C186.564 60.8934 183.471 62.6568 185.003 64.0595Z" fill="#221F1F"/>
<path fill-rule="evenodd" clip-rule="evenodd" d="M66.1102 8.29113C67.0324 7.35486 67.8965 6.59457 68.9788 5.82549C69.2604 5.62486 69.5455 5.43303 69.8359 5.24824C69.9626 5.16728 70.0928 5.08809 70.2213 5.00889C70.5434 4.8153 70.0013 5.13032 70.3269 4.94905C70.9147 4.62347 71.5184 4.3278 72.1361 4.06734C72.2734 4.00926 72.4124 3.95646 72.5497 3.90014C72.8999 3.75759 72.2558 3.9987 72.613 3.87374C72.9281 3.76287 73.2466 3.66255 73.5687 3.57104C73.8555 3.49008 74.1442 3.41617 74.4346 3.34929C74.5806 3.31585 74.7285 3.28593 74.8745 3.25601C75.5732 3.10642 74.6581 3.28241 75.0646 3.22082C75.7105 3.12226 76.3599 3.05538 77.0128 3.02547C77.708 2.99203 78.0688 3.00435 78.8484 3.05538C79.8621 3.12402 81.1926 2.74388 81.6801 1.76009C82.143 0.823811 81.2736 0.112805 80.3901 0.0547274C76.9847 -0.174062 73.6356 0.309915 70.4677 1.59289C67.4424 2.81955 64.792 4.82058 62.5164 7.13487C61.8177 7.84411 62.1503 8.81383 63.0444 9.11301C64.0845 9.45972 65.3604 9.05318 66.1102 8.29113Z" fill="#221F1F"/>
<path fill-rule="evenodd" clip-rule="evenodd" d="M193.471 57.4796C195.029 58.4792 196.555 59.8643 197.387 61.4728C198.237 63.1219 198.51 64.9768 198.382 66.8089C198.323 67.6167 199.334 67.7663 199.951 67.6818C200.553 67.6009 201.907 67.2137 201.963 66.4076C202.109 64.3415 201.871 62.256 200.896 60.4046C199.837 58.3877 198.19 56.883 196.287 55.6616C195.597 55.2181 194.374 55.5278 193.751 55.9643C193.204 56.3462 192.748 57.015 193.471 57.4796Z" fill="#221F1F"/>
<path fill-rule="evenodd" clip-rule="evenodd" d="M61.1493 52.3019C61.503 56.9886 52.5538 57.2877 53.3511 51.7598C53.909 47.9021 59.898 47.6452 60.9909 51.4466C61.0771 51.7458 61.1281 52.0309 61.1493 52.3019Z" fill="#221F1F"/>
<path fill-rule="evenodd" clip-rule="evenodd" d="M43.4388 69.1295C43.6517 71.9418 38.2804 72.1214 38.7609 68.8039C39.0953 66.4896 42.689 66.3365 43.3437 68.6156C43.3965 68.7969 43.4264 68.9676 43.4388 69.1295Z" fill="#221F1F"/>
<path fill-rule="evenodd" clip-rule="evenodd" d="M130.378 154.472C130.591 157.284 125.219 157.464 125.698 154.146C126.034 151.832 129.628 151.679 130.283 153.958C130.336 154.139 130.365 154.31 130.378 154.472Z" fill="#221F1F"/>
</svg>
