<svg width="186" height="233" viewBox="0 0 186 233" fill="none" xmlns="http://www.w3.org/2000/svg">
<path d="M189.901 265.093C191.784 266.557 193.664 267.845 195.547 269.309C208.818 279.471 222.517 289.005 237.498 296.306C241.957 298.515 246.586 300.367 251.298 301.953C254.32 302.953 257.512 303.597 260.694 303.711C269.976 304.147 275.408 297.417 272.759 288.461C271.623 284.597 269.608 280.927 267.947 277.251C267.483 276.112 266.846 275.153 266.641 273.743C267.445 274.169 268.248 274.595 269.051 275.021C275.484 278.781 282.006 282.627 289.121 285.137C292.59 286.394 296.142 287.384 299.777 288.107C301.906 288.595 304.202 288.55 306.317 288.332C312.573 287.591 316.818 283.357 317.842 277.066C318.396 273.788 317.977 270.44 317.209 267.276C315.862 261.65 313.729 256.481 311.157 251.409C305.087 239.164 297.706 227.562 290.065 216.231C282.064 204.553 273.8 192.969 265.712 181.382C265.169 180.686 264.802 179.987 264.691 178.841C265.847 179.26 266.827 179.682 267.983 180.101C276.351 183.469 284.885 186.305 293.828 187.454C297.989 187.991 302.231 188.084 306.378 187.914C310.173 187.751 313.853 186.266 316.806 183.735C321.064 180.207 322.913 175.402 322.982 169.925C323.069 165.331 321.836 161.027 320.164 156.821C317.197 149.637 313.007 143.184 308.295 137.094C295.34 120.48 280.131 106.029 263.713 93.0155C251.603 83.4499 238.894 74.8675 225.156 67.8951C219.983 65.347 214.638 62.979 209.047 61.5874C205.051 60.5176 201.067 59.9776 196.832 60.2373C186.076 61.1549 178.785 67.6568 176.604 78.0327C175.8 82.1111 175.79 86.0856 176.313 90.2262C177.044 95.9525 178.387 101.402 180.523 106.747C182.94 112.882 185.619 118.923 188.123 124.968C188.493 125.844 188.864 126.72 189.511 128.209C188.178 127.793 187.468 127.63 186.669 127.381C179.644 124.958 172.706 122.444 165.688 120.374C158.671 118.304 151.494 117.12 144.081 117.442C140.463 117.601 136.852 118.114 133.515 119.063C124.382 121.715 118.23 127.753 115.142 136.91C113.224 142.688 112.899 148.612 113.283 154.698C113.678 161.314 115.128 167.733 116.842 174.058C117.126 175.024 117.414 176.166 117.704 177.486C116.552 177.243 115.752 176.994 114.952 176.745C106.331 173.999 97.6727 173.816 88.8894 176.285C81.9514 178.275 75.2939 181.056 69.4603 185.321C64.4057 188.776 61.7642 193.685 61.0892 199.793C60.3414 206.696 61.3559 213.388 64.3923 219.599C66.3276 223.712 68.4396 227.822 70.9877 231.658C77.3546 241.071 83.8981 250.481 90.6978 259.444C104.934 278.329 120.299 296.221 137.485 312.399C147.203 321.57 157.527 330.111 169.056 337.039C173.972 340.033 178.972 342.761 184.477 344.243C188.205 345.23 192.11 346.213 195.908 346.227C207.309 346.621 214.41 339.417 214.098 328.03C214.032 324.675 213.61 321.151 212.665 317.99C210.774 311.668 208.707 305.35 206.031 299.485C201.229 288.804 195.814 278.401 190.666 268.081C190.295 267.205 189.838 266.419 189.468 265.543C189.641 265.363 189.727 265.273 189.901 265.093Z" fill="#FFC83D"/>
</svg>
