<svg width="168" height="44" viewBox="0 0 168 44" fill="none" xmlns="http://www.w3.org/2000/svg">
<path d="M0 29.211L14.5727 22.7251L22.9604 27.5895L24.6549 43.5483L14.3185 43.463L15.8436 32.3686L14.0643 31.3446L5.33767 38.1718L0 29.211Z" fill="#B4C0D3"/>
<path d="M23.9219 26.9054L36.8001 36.3782L41.8836 27.2467L31.5471 23.065V21.0168L41.8836 16.7498L36.8001 7.70361L23.9219 17.1765V26.9054Z" fill="#7C3AED"/>
<path d="M22.9604 16.41L24.6549 0.451172L14.3185 0.621852L15.8436 11.7162L14.0643 12.7403L5.25294 5.91301L0 14.7885L14.5727 21.2744L22.9604 16.41Z" fill="#E8BBF8"/>
<g clip-path="url(#clip0_554_376)">
<path d="M69.8117 16.7398H65.1717L62.3317 27.5398H62.1717L58.7717 16.7398H53.0117L58.6517 34.4998H64.2917L67.1317 23.7798H67.2917L70.1717 34.4998H75.8117L81.4517 16.7398H76.2117L72.8117 27.5398H72.6517L69.8117 16.7398ZM95.893 28.2198C95.253 29.8598 94.013 30.6198 92.013 30.6198C89.773 30.6198 88.013 29.2598 87.853 26.8998H100.653V25.1398C100.653 20.2998 97.573 16.2598 91.693 16.2598C86.253 16.2598 82.173 20.2998 82.173 25.8998C82.173 31.5398 86.173 34.9798 91.813 34.9798C96.453 34.9798 99.613 32.6998 100.533 28.6598L95.893 28.2198ZM87.933 23.8198C88.253 21.9398 89.333 20.4598 91.653 20.4598C93.853 20.4598 94.973 22.0598 95.093 23.8198H87.933ZM109.246 25.4198C109.246 22.5798 110.886 20.7798 113.286 20.7798C116.006 20.7798 117.326 22.7398 117.326 25.6198C117.326 28.5398 116.006 30.4998 113.286 30.4998C110.886 30.4998 109.246 28.6998 109.246 25.8198V25.4198ZM108.966 31.2998C109.926 33.4598 112.166 34.9798 115.126 34.9798C120.446 34.9798 123.166 30.8598 123.166 25.6198C123.166 20.4198 120.446 16.2598 115.246 16.2598C112.166 16.2598 110.126 17.8198 109.246 19.9398V9.29982H103.486V34.4998H107.926L108.966 31.2998ZM135.867 13.6198C138.067 13.6198 139.347 14.7798 139.587 16.7398L145.267 16.6198C144.787 11.6598 141.307 8.81982 135.947 8.81982C128.707 8.81982 125.067 14.3798 125.067 22.0998C125.067 30.0198 128.827 34.9798 135.787 34.9798C141.507 34.9798 145.507 31.6198 145.507 26.2598C145.507 21.4198 142.187 18.0198 136.707 18.0198C133.907 18.0198 131.707 19.1798 130.627 20.9398C130.787 16.6198 132.547 13.6198 135.867 13.6198ZM131.667 26.3798C131.667 24.0598 133.147 22.5398 135.667 22.5398C138.267 22.5398 139.747 24.0598 139.747 26.3798C139.747 28.6598 138.267 30.2198 135.707 30.2198C133.187 30.2198 131.667 28.6198 131.667 26.3798ZM156.93 30.1798C154.73 30.1798 153.45 29.0198 153.21 27.0598L147.53 27.1798C148.01 32.1398 151.49 34.9798 156.85 34.9798C164.09 34.9798 167.73 29.4198 167.73 21.6998C167.73 13.7798 163.97 8.81982 157.01 8.81982C151.29 8.81982 147.29 12.1798 147.29 17.5398C147.29 22.3798 150.61 25.7798 156.09 25.7798C158.89 25.7798 161.09 24.6198 162.17 22.8598C162.01 27.1798 160.25 30.1798 156.93 30.1798ZM161.13 17.4198C161.13 19.7398 159.65 21.2598 157.13 21.2598C154.53 21.2598 153.05 19.7398 153.05 17.4198C153.05 15.1398 154.53 13.5798 157.09 13.5798C159.61 13.5798 161.13 15.1798 161.13 17.4198Z" fill="#2D2928"/>
</g>
<defs>
<clipPath id="clip0_554_376">
<rect width="115" height="27" fill="white" transform="translate(52.8828 8.5)"/>
</clipPath>
</defs>
</svg>
