<svg width="1920" height="845" viewBox="0 0 1920 845" fill="none" xmlns="http://www.w3.org/2000/svg">
<path d="M1158.74 826.217C1146 834.812 1131.8 840.364 1116.39 842.833C1113.48 843.3 1110.67 843.629 1107.39 843.304C1097.92 843.973 1088.55 843.654 1079.74 842.033C1070.29 840.391 1061.78 837.509 1053.96 833.423C1039.68 826.123 1026.25 815.292 1014.18 801.207C991.705 774.956 975.366 739.956 962.412 709.267L954.204 689.838C943.589 664.733 933.559 641.012 921.974 622.428C914.531 610.151 907.503 601.448 900.399 595.549C893.714 589.945 886.154 586.789 876.262 585.461C867.861 584.137 859.87 585.54 851.182 589.723C846.993 591.608 842.564 594.38 837.205 598.395C832.709 601.542 828.078 605.439 822.947 610.145C807.682 624.454 792.102 643.901 775.603 664.494L774.973 665.281L774.959 665.298C769.737 671.833 764.515 678.369 759.275 684.786C736.278 712.742 711.149 741.403 682.494 760.679C666.93 771.182 651.176 777.954 634.28 781.269C625.353 783.063 616.371 783.653 607.471 783.137C602.336 782.868 597.772 782.265 593.031 781.326C588.638 780.209 583.966 778.895 579.363 777.205C561.728 770.687 547.008 760.426 535.325 746.401C525.558 734.377 518.206 719.414 513.006 700.589C508.915 685.832 506.378 669.008 505.232 649.047C504.424 631.338 504.619 612.861 505.115 595.55L505.454 582.146L505.474 581.456C506.287 551.727 507.058 523.572 503.561 499.568C501.506 485.94 498.162 475.312 493.407 466.852C488.32 457.838 481.751 451.366 472.99 446.824C433.92 425.903 381.683 462.67 326.439 501.74L326.135 501.955C263.895 545.855 199.668 591.159 140.406 559.342C125.558 551.528 113.886 540.051 105.702 525.343C98.9018 513.206 94.2051 498.547 91.4878 480.536C87.535 453.502 88.4091 423.875 89.3783 392.41L89.7503 378.394C90.1465 362.07 90.4837 344.541 89.6626 327.563C88.8778 310.821 86.6973 296.366 83.2753 283.565C79.4859 269.974 74.3552 259.025 67.8832 250.719C60.4182 241.599 50.9883 235.102 39.0177 230.71C28.4535 226.578 17.1402 225.721 4.45406 228.119C-7.01888 230.321 -18.3411 235.169 -29.9982 242.741C-48.7566 255.375 -66.6727 273.591 -83.5352 292.943L-83.5352 240.694C-72.823 230.345 -61.6058 220.86 -49.7831 212.904C-33.8191 202.58 -17.701 195.749 -1.63535 192.689C17.6883 188.986 36.4099 190.354 53.1773 196.89C70.8122 203.408 85.5315 213.669 97.3731 227.912C107.09 240.431 114.302 255.293 119.292 273.546C123.35 288.913 125.888 305.739 126.824 325.127C127.702 343.309 127.471 361.55 126.94 378.624L126.586 392.758L126.565 393.491C125.717 422.968 124.912 450.869 128.374 474.626C130.429 488.252 133.668 499.019 138.544 507.46C143.493 516.374 150.061 522.845 158.84 527.506C198.154 548.499 250.349 511.65 305.692 472.578L305.756 472.532C367.968 428.585 432.327 383.2 491.406 414.87C506.115 422.585 517.77 433.945 526.092 448.751C533.032 460.986 537.729 475.646 540.445 493.656C544.556 520.907 543.717 550.774 542.783 582.475L542.426 595.759C541.945 612.34 541.624 629.988 542.495 646.472C543.492 663.788 545.671 678.244 549.022 690.57C552.884 704.634 557.978 715.347 564.536 723.396C572 732.516 581.43 739.013 593.14 743.325C596.163 744.418 599.169 745.393 601.859 745.933C604.412 746.373 607.327 746.755 610.589 746.961C616.349 747.251 622.14 746.931 627.929 745.759C639.747 743.38 650.949 738.552 662.345 730.9C686.816 714.358 709.838 688.219 731.04 662.372C735.006 657.619 738.825 652.823 742.658 648.008C743.912 646.433 745.167 644.858 746.428 643.28L748.161 641.123C765.198 619.911 781.29 599.876 798.149 584.145C804.471 578.278 810.434 573.317 816.053 569.384C823.107 564.249 829.576 560.178 835.842 557.232C851.265 549.906 867.038 547.379 882.416 549.646C899.026 551.84 912.963 557.737 924.785 567.735C935.125 576.15 944.42 587.523 953.874 603.24C967.249 624.475 978.121 650.464 989.564 677.82L989.626 677.967L996.76 694.782C1008.61 723.1 1023.5 755.057 1042.8 777.568C1051.99 788.231 1061.48 795.935 1071.85 801.308C1076.44 803.728 1081.41 805.359 1087.04 806.399C1092.78 807.42 1098.91 807.653 1105.17 807.134C1117.56 806.118 1128.32 802.454 1137.79 796.081C1146.67 789.805 1154.74 780.744 1162.68 768.308C1178.44 743.454 1188.91 710.709 1198.25 679.483L1202.48 664.727C1211.09 634.467 1219.34 605.961 1230.98 581.769C1238.93 565.324 1247.71 552.632 1257.26 543.456C1269.31 531.09 1283.24 522.912 1298.83 519.199C1314.04 515.426 1329.71 516.314 1346.3 521.663C1359.46 525.743 1372.77 533.197 1387.11 544.248C1405.42 558.314 1423.81 577.609 1441.62 596.304L1442.72 597.467L1459.98 615.452C1481.48 637.734 1506.61 662.589 1533.21 677.498C1544.75 683.903 1556.24 687.643 1568.23 688.876C1580.83 690.012 1592.47 688.145 1603.18 683.276C1614.64 677.678 1623.88 669.765 1630.83 659.911C1634.11 655.261 1637.03 649.938 1639.3 644.358C1641.42 639.407 1643.11 633.312 1644.56 625.675C1650.02 596.768 1647.28 562.987 1643.55 530.819L1642.72 524.558C1642.13 520 1641.52 515.459 1640.93 510.974L1640.68 509.005C1637.03 480.842 1633.58 454.189 1634.17 429.903C1634.82 410.38 1637.08 396.429 1641.51 384.675C1644.21 377.082 1647.9 370.181 1652.46 364.112C1656.57 358.477 1661.74 353.159 1668.92 347.274C1681.58 337.237 1696.61 331.431 1713.77 329.894C1728.88 328.687 1744.11 330.007 1760.35 333.837C1773.88 337.009 1789.28 341.943 1808.54 349.294C1822.1 354.4 1835.86 359.961 1849.76 365.621L1857.44 368.759C1888.65 381.233 1921.33 393.591 1950.14 396.741C1978.96 399.891 2000.28 393.804 2015.43 378.146C2050.26 342.106 2025.58 284.779 1999.42 224.17L1999.33 223.975C1971.25 158.752 1939.46 84.958 1990.56 31.9156C2003.14 18.9768 2018.3 9.99243 2035.72 5.13928C2050.88 1.01112 2067.99 -0.0327836 2086.82 2.0465C2089.16 2.31608 2091.54 2.62813 2093.96 2.98456V39.3962C2089.83 38.6523 2085.85 38.07 2082 37.6466C2067.86 36.1513 2055.41 36.8118 2045.02 39.6884C2034.05 42.6621 2024.82 48.2655 2016.85 56.3397C1982.51 92.0265 2007.07 149.033 2033.05 209.352L2033.12 209.547C2061.4 275.035 2093.32 349.161 2041.83 402.434C2018.29 426.716 1985.88 436.763 1945.31 432.223C1911.96 428.588 1876.51 415.216 1842.93 401.79L1835.24 398.651L1832.6 397.583C1819.74 392.389 1807.12 387.287 1794.67 382.581C1777 375.827 1763.18 371.489 1751.18 368.677C1738.69 365.706 1727.23 364.749 1716.31 365.651C1706.5 366.495 1698.74 369.438 1692.09 374.751C1687.55 378.511 1684.44 381.68 1682.05 384.853C1679.69 388.144 1677.66 391.988 1675.99 396.505C1672.07 406.84 1671.19 420.813 1670.89 430.328C1670.34 452.258 1673.78 478.286 1677.44 505.852C1677.86 509.093 1678.27 512.338 1678.68 515.612C1679.1 519.059 1679.52 522.537 1679.99 526.073C1684.03 561.102 1687.02 598.241 1680.55 631.923C1678.57 641.827 1676.23 650.211 1673.32 657.35C1669.97 665.534 1665.78 673.243 1660.97 680.082C1650.45 695.118 1636.34 707.086 1618.63 715.747C1601.53 723.464 1583.23 726.518 1564.09 724.853C1546.8 723.133 1530.62 717.96 1514.59 708.999C1483.81 691.848 1456.47 664.677 1433.23 640.734C1427.35 634.759 1421.46 628.664 1415.7 622.549L1414.28 621.072C1396.8 602.779 1380.27 585.472 1364.11 573.053C1353.15 564.616 1343.5 559.124 1334.5 556.319C1324.44 553.076 1315.54 552.561 1307.16 554.633C1298.29 556.783 1290.88 561.247 1283.35 569.006C1276.51 575.562 1270.21 584.825 1264.26 597.307C1254 618.628 1246.31 645.544 1238.14 674.12L1238.01 674.566L1233.69 689.578C1223.63 723.349 1212.2 758.795 1193.94 787.69C1183.4 804.306 1171.99 816.813 1158.74 826.217Z" fill="#9F6FFF" fill-opacity="0.6"/>
</svg>
